<mxfile host="app.diagrams.net" modified="2023-11-01T15:19:31.440Z" agent="Mozilla/5.0 (X11; Linux x86_64; rv:109.0) Gecko/20100101 Firefox/118.0" etag="0OET0Ecq3kNOGrAqIWRh" version="22.0.8" type="device">
  <diagram name="Page-1" id="GF6Ig5fyT9nL08g-VgnM">
    <mxGraphModel dx="1951" dy="4430" grid="1" gridSize="10" guides="1" tooltips="1" connect="1" arrows="1" fold="1" page="1" pageScale="1" pageWidth="2339" pageHeight="3300" math="0" shadow="0">
      <root>
        <mxCell id="0" />
        <mxCell id="1" parent="0" />
        <mxCell id="3EtvzqERgFBNUbqquFPB-20" style="edgeStyle=orthogonalEdgeStyle;rounded=0;orthogonalLoop=1;jettySize=auto;html=1;exitX=0.5;exitY=1;exitDx=0;exitDy=0;entryX=0.5;entryY=0;entryDx=0;entryDy=0;fillColor=#d5e8d4;strokeColor=#82b366;" edge="1" parent="1" source="3EtvzqERgFBNUbqquFPB-1" target="3EtvzqERgFBNUbqquFPB-6">
          <mxGeometry relative="1" as="geometry" />
        </mxCell>
        <mxCell id="3EtvzqERgFBNUbqquFPB-1" value="Django" style="rounded=1;whiteSpace=wrap;html=1;" vertex="1" parent="1">
          <mxGeometry x="1350" y="480" width="120" height="60" as="geometry" />
        </mxCell>
        <mxCell id="3EtvzqERgFBNUbqquFPB-19" style="edgeStyle=orthogonalEdgeStyle;rounded=0;orthogonalLoop=1;jettySize=auto;html=1;exitX=0.5;exitY=1;exitDx=0;exitDy=0;entryX=0.5;entryY=0;entryDx=0;entryDy=0;fillColor=#d5e8d4;strokeColor=#82b366;" edge="1" parent="1" source="3EtvzqERgFBNUbqquFPB-2" target="3EtvzqERgFBNUbqquFPB-1">
          <mxGeometry relative="1" as="geometry" />
        </mxCell>
        <mxCell id="3EtvzqERgFBNUbqquFPB-2" value="Front" style="rounded=1;whiteSpace=wrap;html=1;" vertex="1" parent="1">
          <mxGeometry x="1350" y="390" width="120" height="60" as="geometry" />
        </mxCell>
        <mxCell id="3EtvzqERgFBNUbqquFPB-4" value="&lt;div&gt;&lt;br&gt;&lt;/div&gt;&lt;div&gt;&lt;br&gt;&lt;/div&gt;&lt;div style=&quot;font-size: 13px;&quot;&gt;&lt;font style=&quot;font-size: 19px;&quot;&gt;&lt;br&gt;&lt;/font&gt;&lt;/div&gt;&lt;div&gt;&lt;br&gt;&lt;/div&gt;&lt;div&gt;&lt;br&gt;&lt;/div&gt;&lt;div&gt;&lt;br&gt;&lt;/div&gt;&lt;div&gt;&lt;br&gt;&lt;/div&gt;&lt;div&gt;&lt;br&gt;&lt;/div&gt;&lt;div&gt;&lt;br&gt;&lt;/div&gt;&lt;div&gt;&lt;br&gt;&lt;/div&gt;&lt;div&gt;&lt;br&gt;&lt;/div&gt;&lt;div&gt;&lt;br&gt;&lt;/div&gt;&lt;div&gt;&lt;br&gt;&lt;/div&gt;&lt;div style=&quot;font-size: 16px;&quot;&gt;publisher script&lt;br&gt;&lt;/div&gt;" style="rounded=0;whiteSpace=wrap;html=1;fillColor=none;" vertex="1" parent="1">
          <mxGeometry x="1260" y="570" width="300" height="260" as="geometry" />
        </mxCell>
        <mxCell id="3EtvzqERgFBNUbqquFPB-21" style="edgeStyle=orthogonalEdgeStyle;rounded=0;orthogonalLoop=1;jettySize=auto;html=1;exitX=0.5;exitY=1;exitDx=0;exitDy=0;fillColor=#d5e8d4;strokeColor=#82b366;" edge="1" parent="1" source="3EtvzqERgFBNUbqquFPB-6" target="3EtvzqERgFBNUbqquFPB-7">
          <mxGeometry relative="1" as="geometry" />
        </mxCell>
        <mxCell id="3EtvzqERgFBNUbqquFPB-6" value="postgres listener" style="rounded=1;whiteSpace=wrap;html=1;" vertex="1" parent="1">
          <mxGeometry x="1350" y="600" width="120" height="60" as="geometry" />
        </mxCell>
        <mxCell id="3EtvzqERgFBNUbqquFPB-23" style="edgeStyle=orthogonalEdgeStyle;rounded=0;orthogonalLoop=1;jettySize=auto;html=1;entryX=1;entryY=0.5;entryDx=0;entryDy=0;fillColor=#d5e8d4;strokeColor=#82b366;" edge="1" parent="1" source="3EtvzqERgFBNUbqquFPB-7" target="3EtvzqERgFBNUbqquFPB-18">
          <mxGeometry relative="1" as="geometry">
            <Array as="points">
              <mxPoint x="900" y="720" />
              <mxPoint x="900" y="910" />
            </Array>
          </mxGeometry>
        </mxCell>
        <mxCell id="3EtvzqERgFBNUbqquFPB-7" value="rabbitmq publisher" style="rounded=1;whiteSpace=wrap;html=1;" vertex="1" parent="1">
          <mxGeometry x="1350" y="690" width="120" height="60" as="geometry" />
        </mxCell>
        <mxCell id="3EtvzqERgFBNUbqquFPB-10" value="postgres" style="shape=cylinder3;whiteSpace=wrap;html=1;boundedLbl=1;backgroundOutline=1;size=15;" vertex="1" parent="1">
          <mxGeometry x="1090" y="800" width="60" height="80" as="geometry" />
        </mxCell>
        <mxCell id="3EtvzqERgFBNUbqquFPB-31" style="edgeStyle=orthogonalEdgeStyle;rounded=0;orthogonalLoop=1;jettySize=auto;html=1;exitX=0.5;exitY=0;exitDx=0;exitDy=0;fillColor=#f8cecc;strokeColor=#b85450;" edge="1" parent="1" source="3EtvzqERgFBNUbqquFPB-11" target="3EtvzqERgFBNUbqquFPB-10">
          <mxGeometry relative="1" as="geometry">
            <Array as="points">
              <mxPoint x="1410" y="860" />
            </Array>
          </mxGeometry>
        </mxCell>
        <mxCell id="3EtvzqERgFBNUbqquFPB-11" value="rabbitmq listener" style="rounded=1;whiteSpace=wrap;html=1;" vertex="1" parent="1">
          <mxGeometry x="1350" y="880" width="120" height="60" as="geometry" />
        </mxCell>
        <mxCell id="3EtvzqERgFBNUbqquFPB-26" style="edgeStyle=orthogonalEdgeStyle;rounded=0;orthogonalLoop=1;jettySize=auto;html=1;exitX=0.5;exitY=1;exitDx=0;exitDy=0;entryX=0.5;entryY=0;entryDx=0;entryDy=0;fillColor=#f8cecc;strokeColor=#b85450;" edge="1" parent="1" source="3EtvzqERgFBNUbqquFPB-12" target="3EtvzqERgFBNUbqquFPB-15">
          <mxGeometry relative="1" as="geometry" />
        </mxCell>
        <mxCell id="3EtvzqERgFBNUbqquFPB-12" value="Django" style="rounded=1;whiteSpace=wrap;html=1;" vertex="1" parent="1">
          <mxGeometry x="410" y="480" width="120" height="60" as="geometry" />
        </mxCell>
        <mxCell id="3EtvzqERgFBNUbqquFPB-25" style="edgeStyle=orthogonalEdgeStyle;rounded=0;orthogonalLoop=1;jettySize=auto;html=1;exitX=0.5;exitY=1;exitDx=0;exitDy=0;fillColor=#f8cecc;strokeColor=#b85450;" edge="1" parent="1" source="3EtvzqERgFBNUbqquFPB-13" target="3EtvzqERgFBNUbqquFPB-12">
          <mxGeometry relative="1" as="geometry" />
        </mxCell>
        <mxCell id="3EtvzqERgFBNUbqquFPB-13" value="Front" style="rounded=1;whiteSpace=wrap;html=1;" vertex="1" parent="1">
          <mxGeometry x="410" y="390" width="120" height="60" as="geometry" />
        </mxCell>
        <mxCell id="3EtvzqERgFBNUbqquFPB-14" value="&lt;div&gt;&lt;br&gt;&lt;/div&gt;&lt;div&gt;&lt;br&gt;&lt;/div&gt;&lt;div style=&quot;font-size: 13px;&quot;&gt;&lt;font style=&quot;font-size: 19px;&quot;&gt;&lt;br&gt;&lt;/font&gt;&lt;/div&gt;&lt;div&gt;&lt;br&gt;&lt;/div&gt;&lt;div&gt;&lt;br&gt;&lt;/div&gt;&lt;div&gt;&lt;br&gt;&lt;/div&gt;&lt;div&gt;&lt;br&gt;&lt;/div&gt;&lt;div&gt;&lt;br&gt;&lt;/div&gt;&lt;div&gt;&lt;br&gt;&lt;/div&gt;&lt;div&gt;&lt;br&gt;&lt;/div&gt;&lt;div&gt;&lt;br&gt;&lt;/div&gt;&lt;div&gt;&lt;br&gt;&lt;/div&gt;&lt;div&gt;&lt;br&gt;&lt;/div&gt;&lt;div style=&quot;font-size: 16px;&quot;&gt;publisher script&lt;br&gt;&lt;/div&gt;" style="rounded=0;whiteSpace=wrap;html=1;fillColor=none;" vertex="1" parent="1">
          <mxGeometry x="320" y="570" width="300" height="260" as="geometry" />
        </mxCell>
        <mxCell id="3EtvzqERgFBNUbqquFPB-27" style="edgeStyle=orthogonalEdgeStyle;rounded=0;orthogonalLoop=1;jettySize=auto;html=1;exitX=0.5;exitY=1;exitDx=0;exitDy=0;entryX=0.5;entryY=0;entryDx=0;entryDy=0;fillColor=#f8cecc;strokeColor=#b85450;" edge="1" parent="1" source="3EtvzqERgFBNUbqquFPB-15" target="3EtvzqERgFBNUbqquFPB-16">
          <mxGeometry relative="1" as="geometry" />
        </mxCell>
        <mxCell id="3EtvzqERgFBNUbqquFPB-15" value="postgres listener" style="rounded=1;whiteSpace=wrap;html=1;" vertex="1" parent="1">
          <mxGeometry x="410" y="600" width="120" height="60" as="geometry" />
        </mxCell>
        <mxCell id="3EtvzqERgFBNUbqquFPB-30" style="edgeStyle=orthogonalEdgeStyle;rounded=0;orthogonalLoop=1;jettySize=auto;html=1;entryX=0;entryY=0.75;entryDx=0;entryDy=0;fillColor=#f8cecc;strokeColor=#b85450;" edge="1" parent="1" source="3EtvzqERgFBNUbqquFPB-16" target="3EtvzqERgFBNUbqquFPB-11">
          <mxGeometry relative="1" as="geometry">
            <Array as="points">
              <mxPoint x="630" y="780" />
              <mxPoint x="960" y="780" />
              <mxPoint x="960" y="925" />
            </Array>
          </mxGeometry>
        </mxCell>
        <mxCell id="3EtvzqERgFBNUbqquFPB-16" value="rabbitmq publisher" style="rounded=1;whiteSpace=wrap;html=1;" vertex="1" parent="1">
          <mxGeometry x="410" y="690" width="120" height="60" as="geometry" />
        </mxCell>
        <mxCell id="3EtvzqERgFBNUbqquFPB-17" value="postgres" style="shape=cylinder3;whiteSpace=wrap;html=1;boundedLbl=1;backgroundOutline=1;size=15;" vertex="1" parent="1">
          <mxGeometry x="150" y="800" width="60" height="80" as="geometry" />
        </mxCell>
        <mxCell id="3EtvzqERgFBNUbqquFPB-24" style="edgeStyle=orthogonalEdgeStyle;rounded=0;orthogonalLoop=1;jettySize=auto;html=1;exitX=0;exitY=0.5;exitDx=0;exitDy=0;fillColor=#d5e8d4;strokeColor=#82b366;" edge="1" parent="1" source="3EtvzqERgFBNUbqquFPB-18" target="3EtvzqERgFBNUbqquFPB-17">
          <mxGeometry relative="1" as="geometry">
            <Array as="points">
              <mxPoint x="270" y="910" />
              <mxPoint x="270" y="840" />
            </Array>
          </mxGeometry>
        </mxCell>
        <mxCell id="3EtvzqERgFBNUbqquFPB-18" value="rabbitmq listener" style="rounded=1;whiteSpace=wrap;html=1;" vertex="1" parent="1">
          <mxGeometry x="410" y="880" width="120" height="60" as="geometry" />
        </mxCell>
        <mxCell id="3EtvzqERgFBNUbqquFPB-22" style="edgeStyle=orthogonalEdgeStyle;rounded=0;orthogonalLoop=1;jettySize=auto;html=1;exitX=0;exitY=0.5;exitDx=0;exitDy=0;entryX=0.5;entryY=0;entryDx=0;entryDy=0;entryPerimeter=0;fillColor=#d5e8d4;strokeColor=#82b366;" edge="1" parent="1" source="3EtvzqERgFBNUbqquFPB-1" target="3EtvzqERgFBNUbqquFPB-10">
          <mxGeometry relative="1" as="geometry" />
        </mxCell>
        <mxCell id="3EtvzqERgFBNUbqquFPB-28" style="edgeStyle=orthogonalEdgeStyle;rounded=0;orthogonalLoop=1;jettySize=auto;html=1;entryX=0.5;entryY=0;entryDx=0;entryDy=0;entryPerimeter=0;fillColor=#f8cecc;strokeColor=#b85450;" edge="1" parent="1" source="3EtvzqERgFBNUbqquFPB-12" target="3EtvzqERgFBNUbqquFPB-17">
          <mxGeometry relative="1" as="geometry" />
        </mxCell>
        <mxCell id="3EtvzqERgFBNUbqquFPB-33" value="" style="rounded=0;whiteSpace=wrap;html=1;fillColor=none;" vertex="1" parent="1">
          <mxGeometry x="1040" y="350" width="590" height="680" as="geometry" />
        </mxCell>
        <mxCell id="3EtvzqERgFBNUbqquFPB-34" value="" style="rounded=0;whiteSpace=wrap;html=1;fillColor=none;" vertex="1" parent="1">
          <mxGeometry x="100" y="350" width="590" height="680" as="geometry" />
        </mxCell>
        <mxCell id="3EtvzqERgFBNUbqquFPB-35" value="" style="shape=flexArrow;endArrow=classic;startArrow=classic;html=1;rounded=0;entryX=0.002;entryY=0.423;entryDx=0;entryDy=0;entryPerimeter=0;exitX=1.007;exitY=0.427;exitDx=0;exitDy=0;exitPerimeter=0;" edge="1" parent="1" source="3EtvzqERgFBNUbqquFPB-34" target="3EtvzqERgFBNUbqquFPB-33">
          <mxGeometry width="100" height="100" relative="1" as="geometry">
            <mxPoint x="800" y="640" as="sourcePoint" />
            <mxPoint x="900" y="540" as="targetPoint" />
          </mxGeometry>
        </mxCell>
        <mxCell id="3EtvzqERgFBNUbqquFPB-36" value="&lt;div&gt;&lt;font style=&quot;font-size: 17px;&quot;&gt;docker network connect bridge service&lt;/font&gt;&lt;/div&gt;&lt;div&gt;&lt;font style=&quot;font-size: 17px;&quot;&gt;172.17.0.0&lt;br&gt;&lt;/font&gt;&lt;/div&gt;" style="text;html=1;align=center;verticalAlign=middle;resizable=0;points=[];autosize=1;strokeColor=none;fillColor=none;" vertex="1" parent="1">
          <mxGeometry x="710" y="570" width="310" height="50" as="geometry" />
        </mxCell>
        <mxCell id="3EtvzqERgFBNUbqquFPB-37" value="" style="shape=image;verticalLabelPosition=bottom;labelBackgroundColor=default;verticalAlign=top;aspect=fixed;imageAspect=0;image=data:image/png,iVBORw0KGgoAAAANSUhEUgAAA5cAAAF0CAYAAAC32s3gAAAABHNCSVQICAgIfAhkiAAAIABJREFUeF7snQeUFNe1rvcAIoqcszBgkoki5zSAyeE+kkAGDIILAoQuybbAwAUMGF8eQSAjCXjkIBBwAZNMMNEkmQwimihyzgO8/o90WtXV1VXV0zOjbvTvtVhM1Yn1VXV3/bX32RWVJ0+e10IjARIgARIgARIgARIgARIgARIggRAIJAqhLZuSAAmQAAmQAAmQAAmQAAmQAAmQgCJAcckLgQRIgARIgARIgARIgARIgARIIGQCFJchI2QHJEACJEACJEACJEACJEACJEACFJe8BkiABEiABEiABEiABEiABEiABEImEKfi8rPPPpNatWqFPKmfqoNwnP/ChQuldOnSrpBg/lWqVHGsGx0dLdOnT5e0adM61v25Vrg3qrE8aVzsZ3n4T2sUkLvjm8ur1MmCOv7H/1FK7v9X7aDaJGTlu+OaybPyeQMO6VSuG8aWT8CB35CC+0MbyJ0Z73n/vcyUKl6OrHz58tK1a9c46TuY71enATt27Ch//OMfnaqxPACBuOL3c/19c/v7HwC/d3cw/OLy8+M0L11etmxZGTJkiNvqrBePBJzOv1N5PE6NXf/EBJL8xOMHPXyzZs0EX34ZM2aU7777ThYvXiy7du0Kup+fc4M7d+4odvfu3QtrDA96VZPE392XlEsPqnk+6FlVYsr+IA6exUii6w8k2frjknzHuTg/jsTXHkii+8/ivF90eHt6W0k3YLkkuvc0pP7NfHRnofaf6O4TxTbRg/g5frcHHej43LaPr3pOfELlH1/zju9+04xYq4Z4mS213B/dNF6G69evn5QpU0aSJUum/t+xY4fMmzcvXsb6uXaK39QPPvhA7t69G5EIIuX3LRDcn5p/pPMLxDXc9+O+tkuXLuq7DRYTEyNnz56VwYMHq+3+/ftL5cqV1d/Pnj1T93ArV66UzZs3q33BWIcOHaRly5ZKpB89etSnaZ8+fdQ4bdu2DaZL1iUBHwIRJS5/+9vfSq5cueRPf/qTXL58WYoVKyYffvihvHjxQvbt28dT65IAWIU7L3jNXpTIKSmWfONzVG/tPifJlx8SSZZEYornkMddKkniO0/krWPfuTx6d9XenrTVXcUga73MkFKikiQOspV/9UB84qL/pAcvC/79lBbo+EKe02uHNy85lXsmYMcnLviHfIw/cQevXzkwjuX8Pv74Y0mRIoUsWLBA8uXLJ3//+9/l7bffjmVvbGZFIFOmTJIkSUTdFvgdRiT8vvlN+ocd4cA/kvkF4hoJ+zds2CD417RpU6lZs6bg+85s27ZtU99/yZMnVxFtuP+9deuWHDrkuSdyaQULFpSKFSvK/fv3LVvAM/zo0SOpWrWqbN++3bIOd5KAEwHvrwh+rCHazE8rBg0apC7eL774QjzvxBQ88fjFL34hKVOmlHPnzsmXX36pnq5ow360KVWqlOAJGJ4q4+lyqP3nzp1b3n33XfnDH/4gvXr1EnxA8AH4+uuvpU2bNmqO4Tx/pxOBcoSpdu/eXbF7/vy5YgfhbLTGjRtLw4YNJV26dHL+/HmZMWOGnD592lslS5YsMmrUKMmfP79cv35dnZ+DB7/3/OGLqHbtH8MW8eTKaE7nF2E3c+fOlXr16sk777wjT548kUWLFsmmTZvcHF5QdZ5VyidJzt2SJNcf+rSLehrj3Zfk4l15/qvs8sIjMiEu741pKq+ypFb1U/1lkzz7dRF5UTCLwAuZduhqtf9x2zLyrMI7IsnfkiRnbkjK+fsl8ZXvPbgxWeFxaSJRUVGqbrINJyTlgv3qb21PogvJ87qFPCGjySXxpbuSYv4+eev8bW/58xI55GmT4vIydzoRz1zfOv6dvP3XHRKTK508/KimvEqbQtD7vQmtvG3Sd/nR8/KkWXF5VuUX8ipNco/n9Kkk33JKkq85ZpyC+tvMx03/Tnwedakoz6vmt5yX3hno+Pwm6NkRkzeDPBhUV1L+vz2S7J/nVZXYHh/aOs0/JmdaedKqlMS8k0Gd38QX7qjzl+TfP56fV5nelvu/i1ZzS3Tzkad8nyQ9+uODCbtyOz5O/J+XzCnP6vxSXnvm9TJ7Gkmx8IDafpU+paSeuEWS/HANPexWSV6Uzi1RT15IikUH5Omvi0qKpf+SpEeuWiH222fH146Pm/khbDj5ikPyvHYheen5rCS698Rz/e/38HM3N3X+HT4/fgdk2IHvJ3zf43snR44ccuLECbvqfmVuvl87deok1atXVyIW/eP79eLFi96+4C1t3bq15M2bV54+fapu6iZMmOA3Fnbgd3LkyJEybdo0wU0hzO77e+rUqZItWzZVb8SIEYIonaJFi8qVK1cEHlsnc/P9HGh8HA9+W/G7AsNxa8PvBMqOHz8uy5Yt85vG0qVLpVu3bnL79m2x4xfs8Vnx8xvcsMPp980NH9xL4DcS1wo8t+vWrVPXHAzt8Xv361//WrJnz67ub8DpX//6l3cWgfjqCoGuHyf+dsdtLLP7/Xfi78TPzefnv/7rvwTi5PHjx4LrAixxH/PNN98/JHbi4/Y4Y1vPbn5OfDCm3fzdXB9u5v3q1St5HeAhJ7jCYwnD/R8EJq4p3AuPHTtWLRcwRhwgTP/SpUvqPlBb79691baVeEV/uOfEPR0EqFFcOp1/p/JQ+WL+dp9PN+VeCPwj3gl4xSWEIi7C+vXrqy9UbSVLllQ/kDBc2Hv37lVfqLgAGzVqJAMGDJD//M//9NbHDxG+TCBGIUJwIR87dkwJ0VD6h5seT6pbtGihPjy/+c1v1LrBU6dOqR/7UPvXBxBf83dzJvEDDc8svhDwVAlCU4dIoH3z5s2VsPz000/VDQ+YDB06VN5//30f/riZAReEWUDot2/fXpVPmTJF/YN4RTuzuTm/uHkYPXq0eqBQoUIFwZf14cOH5caNG+bu/LZfeG76H/22kiTxiLm3p33/ROxxq5LylufG+a2T133qQ+QkW+cvqvw6hZfkey0oaQevVMUQIY89Qin5/x6R1OM3CUQj7GGnChJTILO8PeUfSrjhxv3+gDqSvt/3N0xJPCI0w2/nK2H3sLv/2lXUhyBIOXO3JL58T56XzSMPPWsM0/f+SvX/wiNYHvauIcn/flJSzNvredFPlBISsCQeIZp61Dp5lS2tPPSMmXrYGol64BsWC6H8NLqwvD15qyS68VBeebyc6MPKzHzc9O/EJ9WM3YJ/z4tll0cWayftjs88x5fpUsjDPh4Wa456hWUox4f+neYPQZb0X5c9wm2/RL14Kc/qFpaHnlDqdIO+vy7Qx9NGxSTlrH9KKs+Di2eetaWPelWXpD0Xe6dvV27Hxw3/mF/lkLdHr5PnngcnTzyfg7fHrJdnlX8hzzzXOsTlwx5VPKItjaT+03qJinklj9uXlZeehxJuzYmvEx+n+Sl+LUrK23/+u+Cz8qzSOx5+1Xz42c3V6fNj1xZl+J7B97/xZt6pjbHc6fu1Z8+eUrhwYXWTht8YfN8OGzZMEDEDwwM7hKitWbNG/b7hIRS+r60sQ4YM8vvf/17dYGth6fT9jfFhuAnDjf6SJUtk+PDhSki7NbvvZ7vx//3vf8vvfvc7yZkzpzpmfK8bPRsQuFr44p4AD4uXL1/uFdkQlk78gjk+K35ODJx+39Dejg9urCEexowZI9euXRN4ERMl8k1L0a5dO8UHPGrUqCEDBw70/r7a8cXYdtePE3+nY9fluH8J9PvvxN+Jn9PnB9csnACffPKJulfEPRpEszYnPm6PMbb1nObnxMfN/O2uj9jO264dhCjszJkzSnRCEK5d+/3yBOxHdB/WPWrD9Y+HZhD7iRP7R1Ch/f79+9U/8/pxp/PvVB4qX6fPp1O5HUeWxT0Bn29OxG4bE/LgiQi+JCAOYTdv3lRue1zE8BTOnj1bsmbN6n3aiTr44cdTD5TDfY8fYPwQwULpH1/MEEz4Ydu69fuQRYQGYH6YF37kQ+lfTdBj8TV/3b/d//hgz5kzRx0nftzwtzFECU+yZ86cqTyR+DFftWqV8k5CxGv7xz/+ITt37lRib/78+fLgwQP1EMBo2Gdlbs4vvNDaU/3Pf/5TeViNPyBW/ep9T5uVkNRTt0mSQ1fkfv/vPagxRbP7CcsX+TLIK08yEKe1lE89N7cxhbLKWwd+9CyosV6+8ngV7yivHww3wrDnlfMpT9ZbZ25KYo94SzV7j0R5xOnTmgVVuTYIzyjPmk6zPalfRFJ6PE7wdCX2rEtMsfGk8n49rVlAVX1Wq6DHG3pT1YE3862zt3yOAeG7UfefqLrw+mAb/7zmCfX1PLJUwjLx7cfy1umb8ta3/qI9EB/H/vVAAfjo4qiH1mstnY4P7cET9rBvDfXQIMUqw3qOEI/PyynA/MEs2T9OK882WKT0hFS/zpza4y1O7m2a1BNWnWzfBUl8y+O1XHZQcKxPPZ5obU7lqBeIjyN/z3WFc5r49A2JuuM5v55zm+TiHXnt8V7Cnr+bR3kp4ZFPfPW+pFh8QKISB5FzzYGvIx+H+WGOSbed8X6eku06L4k8HI381IEEMKfPT4Bm3t142o7vn2rVqinvItYFYu29W3P6fkUoGh6cnjx5Un3//vWvfxXcvOGBKwz/f/vttzJr1iwVLYLvafN6J32zB6GGGziIS21uvr9RF2ut4JXQD3khZNya3fez0/j4zYY3Dob/sY1/MCxD0eISD3NxEw3vHYSvnp8TP30Mdsdnx88tg0C/b2hvxwcPcuExwv0NfgtxE67vffTYeMCtjxf3Ifj91b+vTnydrh87/m6P3c3vvx1/jBOIn9PnB59J3LNA6Fy9elV5eo3i3ImP22OMbT2n+el+A/FxM3+76yO28w7UDg83IB737NmjqsDLWKlSJW91fB5xTeH7DFakSBElPvHwKpAhWRocSLj2EZmB+tqczr9Tue4ntnydPp9O5YGOmfvjh4DXc4nuV69erbxg+gejXLlyPslyEDIDL1jx4sV91rpA5Gkzhmhi38OHD1WIUaj9Y20NvvSSJk2q+oRhHz4A+ALD/+E8f80HN0jp06fXm8oLiDUOEGg4DnhgtRn/xk0Uwg4QEqyfAKEePlAQ+FZtsA9PRI3l3ooWf7g5v+YbHSwsN3pXLbr17nqdKqm6acY/GMLsIAbM9rxaAXlrz7/Nu9X2s2r5Pd6efBKV1HPpejx/KRGWaiHAzJ7QmDzp1VpHcwgfQiZf5vjeu2g54A87X6b3XMMej+ajzhXk0W/Ke6sizPFV5u/Xfb3OnlaSnPb1wNr1aS5Luv+ivCiSTe7/dyNJ5klSlGztMSUyzWbHx1w30LaZT6B6xv2uju/ZC3n4n1VVeHKq4T8+QUU/cXl8VvOHiHzSsqS8KJxVXqfyJEX4IbTolUd0aYmWxBMqazSENuvzh/1O5W44BaqT6AfRHvXytfchAx6EvE6SSIXpQkgmvvxjEhWIzEDhUVZjOPG144P+7Oanx8PDFKMl9gh5Iz+reWGfm89PoLbG/fDm4TsNoYlp0qSRcePGeT2Ldu2dvl/xABQP8sxeUTxI095JePWcQnERsovEGxBeiOrR5vb7W9c3J9mwOzZjWaDv52DHN48HsaDFJVghid6vfvUrdQ4gPN3wM/YZ6PgC8TPPJ7bbgfigv927d0uJEiVk4sSJ6qHBihUrlMg0mjlCB0IUv69u+Lq5fmJ7XLqd8Z4B+wL9/gfiH2h8p88PPJb4/OChiDZ4/7X32w2fQGPHxX6n+ZnHMPNxO/9A14e5/9hu161bVzmAcB8Mtrif1A9AIC5btWql7hORrBFC0xjWiihCCP5Ahvt63KtDXMLgvUQf+Fw4nX+ncvOYseHr9Pl0KjfPgdvxS8BHXGIoXFh44gGvF2Ln//KXv3hn0LdvX7XeBRmm9JeueQ0GRJ6dxbZ/iJjUqVOr0Npf/vKX6gsdceb4HyJTzye2/es5x9f8df9gZwxH0Ot5tIfy5cuXPvj0tn4CiJspHXOvK+LpaSCD59jtDaqb8wtPZWwtzej13qbJd5z1ePV+XKtr7PN5uTzytmcdmpUl3X9BUqw47InPe+Hr9TNXNnseA+UYwfrKH9ZYmrvw2f4hPOrtKds8nkVfz2/iH264Xyf29BVoHNvOfyxMNXevCqt92uhXcv9PTSXF//unJN/54wMH1LTj43IYj0r398w6tXVzfDEecZzEE+Kc6NZjeexZ/5jS44kzWpwdn8X8H3X1ZNLzXBepx270inK8GsPWcO7tzplTuW3npsKYHz/bUTGmQQ1lPq2CTI5jx9eRj9389KTe8vWkqmvCjbn4/LjpRteBoEFoKkK+sC7R7GEy9+X0/Wqur7fx/anXYON72+m7FJE1uHHCTSbyE2CNOizY72+n36FA8w30/Rzs+Ob+wRuhqvBOwDN15MgRFUWE+wGUBTIjP2OdQMcXiF+g/oPdH4iP7gdLbRD2jPBShIniZnzLli3eYczJjvRvuRu+bq6fYI/HqX6g3/9A/AP15/T50Z8Rc3vN2w0fc9u43Haan3ksMx+38w90fZj7j+02Hupg3S/mp6MKdF+4N75w4YLA+4gIQ3yW9PcP8pXg4ZDOPIs2EKgIfYVzA/eV+Gxjn/GeHpGBMKfz71RuPt7Y8nX6fDqVm+fB7fgj4BdzhSd2yBKFxfT4ITU+qYVbHesstJDD06BgLbb9Q1BhPNxMNGnSRK09ROIaPB02hh7Ftn+3xxFq/3hyCkGp/+lx8YMN3khaoQ1PzPWPF25W4LHFgn2ISeM/49zNIapghhAvNxYX59fNOHZ1sI4LYakIH7SyqMceUQnvpzGc1KqiaZ8KP3weI8+LZ/cpgUdTJ/Sx6wZhlFGPnnm8NKkEYtL4T7fD6zvggbIzHTb6+i2/5zreZji+VF/slOQeYfbU44kzmiOfH8SIXf9287Mrc3N8eE1Has+aVsz/Wb3CnoRKmf26DOX4/Doz7Ij5ZRZJ/rcfvb1IYGO2mJy+axhfeuoYHxY4lZv7M2+7Ob/mNthO4lnD+9rjxcT1qA1rhYMKi/2hYSC+bvhYzc2472UOX6bYRhi3k7n5/Dj1gYeduEHCjR5ugvAUH2b2Rln14/T9Co8PboTN7xSGRw43bTB8j2J5hp3hhg9r9iZNmqTW7+E7Feb2+9uu71DK3I6vw1LN0ShYhoEHvIhmgrCEgMaxwaMDcemGn5v5B+Lnpm1c1cH5xvlD7gidr0D3bb7nwe81rgs3fN1cP4H4uz22UH7/7cZw+vxA1OBB+DvvvOPTjY7ScsPHbvxQy5zm59S/2/kHuj6c+ndbDocKPm9mYanbw1OJXBx43zmiDbTzAl5IeC6xllr/w+cZ+Tt0sh+IS1zzuhzriSEa8b3rdP6dyp2Ozy1f9GP3+XRT7jQXlscNAb87XFyESNCD+HKs3TMaRCUuWlwICPvp3Llz0LOIbf94YoMFwwh9xcJsbdhntNj27/ZA4rN/eF3xImmEO+CDD76IT9eGrHUox1MfZO6DJxdPp9BO32BhXQF++BGejIQ+qIMnsUbT6fszZ87sk4gnLs6vW46B6iG5SbLt1h7NQG389nvCC19j/ZnJ0O+TdmU9mTh3SaK7noQ+DQrLa0/d5Ju/X5tprm/eTubJ2vrkP0orr1+Sb6/L67c9r0vBmtF/XVLr0ND/w/515HGLEpLUs64PHtGYfBkl+dYfQ39VSLCn/bO6v5Tka4/Lq6SJvdlvn5fKqYZM5BEa8AfF5PcklDCFITrxsevfezwB+Ojy128nVX++zOgR0h5Rrc3N8UV5xCUM4aXJVx+VR90qS7qBK9S+uDg+1VGA+WP934vynocTnv9feYTZk7bvqupGe+FJpvPc41lNfP77hD44h8n//q23ilM5KgbigzJX/H2n5N1KtuucPP0/ZTzreT3RHx4P7JM2ZZTgdGtOfN3wcRrreYV35C2sOfY8rHlWvYD6DCT3rD32sbd+SBSh//+h0Onz4zQ2hB+evGsvAjyWf/7zn12/j9Hp+xW5AvCeOdxwYc0hXgmAmyudIAPrqZDMBesN8XsEb0iBAgWUl0CbXrMIsQUPAKJBevTooYrdfH+jHsbUS0mcmART7mZ83LjitwdhxwgLhcjUkTL4jcEaLzxgxY0rjh8PQLXn0omfnqvd8dnxc3usgX7fnNpDOMMgRGCFChXyS1SH9b7IeYDwT/37insSmBNfN9ePHX81iIO5+f2344/uA/Fz+vwgcRW89QiHxYNwfE6MnjwnPg6HFnKx0/z0AIH4uJm/3fXh9gDw/RbI0+rUB8QluKO9TiSm25gjDODMwD0fhCoSmeFe0eioQbsDBw4osQrvptP5dyoPla/T59Op3Ikdy+OWgP8duKd/LFRHVj6jCx3D4kcXSRSwMB0/NAhLMtdxM73Y9I+U71g/gKcpcPVjfDw1xRoJc1KF2PTvZt66Tnz1jyfeeIEtbmAgKpEwCfHz2vDlBmGJhAp4go+QBXiWjV8ieOKKkB7c9OBJKTIfahs/frxaG6O/uJCwAuOgXyRfiqvzGwxLY92XniQ+MR5P19vTdwTdBdZ03R/VRL2CAvbUIwKftCylbnxTerKHwhAy+Pj/lPJkEK0mktKz/tOTWCX1nze6HiuFxysW5fF+PvG8auRVlrfV6yLgYU36w2s28DqUVJO2qFeRPPNkfY1C4plTN3zEpZqHx6v3pKmnTq1fet7N4Anj9MwBniuIUawZVGvYPNlOk3gSAiEzrTa3fKz6j3r83JHPvT/+Wl5ibapnHrD7f26uxA1EYkrPu0XdHp+eb4qVh+WF5xUcCMfEnEI5PjfnF6wedyyvEizh9TMpPRl7kb3XaCk983jasJgS/fC4IXOw23InProfK/4+gwTYQDZaZIx9MDj6+1eReK7bGM/6UdfmcP244eM0Fs7pU09iKzz4wIOHVJ4EXdru/76evITn/gdRqT6PHpGcfN1xFcru9PlxGvvzzz8X/EMCM3yP4fsrGHP6fkVIFR7eYc1kqlSpVCIMY8ZE/AZhjTy+fxE9g+9OfP8axaVxPosXL1ZP/fGdju9lu+9v/JZNnjxZvb8Ohpt0eM0gXJDELS7Mbnxj/1hziJT/DRo0UGGvyCwODwh+c+HdgOcShgecWJOF32WYHb/YHJ+ZnxMDp983p/b43gNzLLXBuUXyJvwmGg0hiXjoAOGJ6CE83NDmxNft9ROIv9P8UR7o998Nfyd+Tp8fjA2vF94ugHsT3JfBEeGWj5vjC6WO3fzc8HE6v5ib3fXhNHc8rIBDQX8H4PrHmu9g7rHBG4nGcF+MrMFuDZ9rq3dlIgEW3loAczr/duVxwdfp8+lU7pYF68UNgShPWIffiiO8YgIXuX7iGjdD/dhLKP1jwTKyZOFixaJlZMpC9j6jhdK/m2ON7/7dzIF14pfAA89rNJBR1vyey/gdlb2TgC+BO39tK6k8r6Zx+57L+OSHBFwpPBl2k+0+H5/DOPaNNUW4ecLDTRoJJBQBrL9ELgpkZKW5I4B7M+TtwGuE4srwwAae9f/+7/8Oucu4nB+vj5BPBzt4gwhYei7xNNLsUo/LYw6lf7jtza5789xC6d/cl9V2fPdvNSb3JSyB157MsFE/vNg+YUfmaCTwIwGdQMYpMVGK2Z7ET1v8My/HOUuX+XvifFxDh3igqNPvx+c47JsEzARiG65o7ufnsI0EUMgmbPRehtNxx8f8eH2E0xnmXH5KAn7iElml4JnD4t/4MPYfH1TZZ1wQeFEkq0R51jgi8UnMOxklxQ/htHHRN/sggVAIpB6yyra5CqumkQAJkMBPRKBr165qjR7CpBFW/pvf/EaFFpuz2/9E05Nwn99PxYXjkkB8EPCKS7zjEG59xMpjXYv5/U6hDs7+QyXI9vFJ4GWGlPKoUwV5lS6lJ9nPY7VeL1DG2vicB/smASsCFI9WVLiPBEggXAggkQ8EJTLa4z4Sa3KDWfcX38cR7vOL7+Nn/ySQkAQs11wm5AQ4FgmQAAmQAAmQAAmQAAmQAAmQQOQT8HvPZeQfEo+ABEiABEiABEiABEiABEiABEggoQlQXCY0cY5HAiRAAiRAAiRAAiRAAiRAAm8gAYrLN/Ck8pBIgARIgARIgARIgARIgARIIKEJUFwmNHGOl6AEFi5cKKVLlw44plN5wIYsIAESIAESIAESIAESIAES8CHg9yoS8vl5E/jjH/8op0+flo0bN6pMb926dZNbt24pKNHR0dKlSxdJliyZ2o6JiZGzZ8/K4MGD1Xb//v2lcuXK6u9nz56pFOQrV66UzZs3q33BWIcOHaRly5YyZMgQOXr0qE/TPn36qHHatm0bTJcRUdeOf1wcgFP/efLkkdatWwve5frRRx/JxYsX1bA5c+aUyZMnW05h1apVMmPGDMmYMaN07NhRypQpI3jf14kTJ9SL7q9du2bZzmpnKONb9Wfe165dO6lTp45KlY/5IUO22/nly5dP0L5IkSLq+M6cOSNffvmlXLhwwTyM2h44cKBcvnxZ5s2b5y0PdHy6QtasWdV1Xbx4cfWOuP3798vYsWO97Z3On+VEuJMESIAESIAESIAEEogAxWUCgY6UYe7fvy+PHj3y3nBrYYn5b9iwQf1r2rSp1KxZUz7++GO/w9q2bZssWLBAkidPrjyGH374oRKnhw4d8qsbaEfBggWlYsWKgrlYWdmyZdUcq1atKtu3b7eqErH77PjHxUHZ9V+7dm318GD9+vV+Q0Ek9e3b12c/BBbEDkQWrH379vLq1SsZM2aMevAAIYYHDgMGDPDrz2pHqONb9Wnch+u2fv36Mn36dPVi706dOsmgQYMsr2OrvsqXL6/e27ZixQp5/vy5EuE4PjzssDK803fOnDneIrvjQ6XMmTMrIYnP0Lhx4wSp880v5bY7f1Zz4D4SIAESIAESIAESSEgCFJcJSTsCxnrw4IHgH+zJkyeWM4aAeP36tWUZ3m+lX5p8/vx5JTDhyYIYxI0zXmSMm2ZtECeXLl1SHiBtvXv3VttW4hXNtIW0AAAgAElEQVT9vXjxQjZt2qQEqFFcpk2bVrp37y6lSpVSN//wGKGuNqfyqVOnSrZs2VT1ESNGSLNmzaRo0aJy5coV6devn9rfuHFjadiwoeC9rTg+eOzg6dXWpk0bgYjAWDjOdevWyddff+263A3/Vq1aqTF69erl7dftH3b9gylego15N2/e3K9L7cXUBRD5iRIlkq1bt6pdZs8m+EMkubVQx3cap0GDBjJr1izZuXOnqpo9e3ZJmTKlOsfHjh1zai6LFi3yqfO3v/3N67U3N27SpImcOnVKrl696i1yOj6I1d27d/t8Fsz92p0/c11ukwAJkAAJkAAJkEBCE6C4TGjiYT4eQvy0ONyzZ0/Is4UQhcG7hX4hCNeuXevtt1ixYoJ1j9rgTUK44jfffCOJEyf2Gx/tESqIfxCmRkMIb65cudR+eHggNHUIL+o5lffs2VN1B5EJj+uSJUtk+PDhkiNHDrUfggvC8tNPP1XhogjNHTp0qLz//vuqHMIX4hOeO4RaZsqUSYkvbU7lqOeG/8uXL5VnMDbm1L9R+Dv136hRI+XJDmQI64TID8bicnzzuHhwoEOse/ToIYcPH5YUKVJIgQIFXIlLY38IX4WA3LFjh3kYtQ3xj5Bws9kdX7ly5ZSnE9cvrjk81Jg/f74Sqdqczp95PG6TAAmQAAmQAAmQQEISYEKfhKQdAWMhJFLfgE+cODGkGdeoUUMgHrVIhZcRa/m0IbQWIbMnT55Uu7CWDeIR4i6QITRx7969SoA+ffpU1deGv3FzjptxiDv8nSTJj89PnMp1PxBu8ErC6wjDTT4MnsyZM2fKwYMH5fbt24K1htevX5d69eqpcghZeHQhom/evKnmaPSIOZWjDzf8ly9f7heiqibgwtz076IbyZ07tzq3mpFVmxYtWni9mlbloexzM76xf4hBGMJhCxcurB4M4FzeuXNHeZndGryLX331lVqPjLZWnxGI1SxZsgS91hhiHIIVohQPNfA5HDZsmKRPn947vbg6f26Pl/VIgARIgARIgARIIBgC9FwGQ4t1HQnUrVtXatWqJUmTJlXeQ4S3aoEFcYmQTtzM37t3TwlNY1grwmGRYCWQIckJPE0QlzB4L9EHQgnz5s2rvITnzp3zNjf+7VRuHtOcRAjJajBvhKJqDyfaQDBq4YJ5lChRQgkOJDHC2jyITG1O5eY5hPM2PLR4aGBck2ucLzzQWEOIhEzxYU7j240JjzY8gvAi4mFAoBBvqz4gpv/5z3+q5EUQgn/605/kd7/7nU9VJAwK5NG06hP79DX0+eefex/uQMTiYQqu8TVr1gRqyv0kQAIkQAIkQAIkEDYEKC7D5lS8GRPZtWuXWpsGr6JZeGBtJcL6cMOMcMqSJUvK3Llz1YEj+QnCFnXmWeyDQEWI4L59+9TaPXgesW/ZsmVeWFjjCdMeSoSMGk1vO5X7NPJsYP5G0+GtmIcOG9bl8F5qQ7IYCAFkup0yZYoSy1u2bHFd7jNoGG9Ur15dRo4caTnD9957T6pVqyaffPKJZXlc7LQb36p/nREWwhKZjHVoNtbOas+0VTvzPjwUwb9///vfan3q4sWL5Ve/+pUcOXLEWxWJpkaNGmVuarutw4fRt9FwbWGONBIgARIgARIgARKIBAIUl5FwliJojkjcg8yigQyeSoQkQhQi2YlOEgMvJDyXRhs/frwSZ/rGHeISSWJwUw/DmkwIHCSWgQCFBwqvekC4IgzrL/W6Taz5tCv3GdhiA+GUDx8+VOGOTplvIaInTZqkvKjIoGoUl+jaqdxi+LDaBe8zBLbZu4tJIttshQoVlLA0JrOJywOwG99uHFxr8KzjFSHaECJrtTbSrh9jGbK5vvXWW95dCAXH9YeQ6GAMbSAs4Z3H9aENr4Bxut6CGYd1SYAESIAESIAESCA+CVBcxifdN7RvePHMr0hwe6gQl3hFBdrjlQtGM4tSiEGElcIDChGQOnVqWbp0qU8bCE2IVYhLhMviPYsIx4V3qnPnzj6Jb5zKdcfwciL81mzI+or+4dU8fvy4mg+8r+gX3i8kZIHp9x4WKlRIrfHT5lRuHi/QNsQVPHfmV4MEqh/X+5F1FcmOzIYkOfDawWOLLKz58+dXVZDh1OjdxfwhwgK9wsPcr3k70Pi6XqD+EdKKaw9ZYhHODO8yBJ05U2yg9jg+PATBNfn222+rBE9oj+RT2pDIB1lhY2PweONhBK4ZCEyEl2fIkMHy1TB2/cNr/MEHH6hkU8bQcLs2LCMBEiABEiABEiCBuCBAcRkXFH8mfURHRyvBhndYwhASePbs2YCvY7DCghtnJNzB2kQkRXFr8FpaeXCwtg2hjjBkaYVgQRIUJOWZPXu2T7IWu3KsocOrNPSxdejQQd3or169WiV+gUFcQlgiqQtCeOF9hYdKi2QIZrTB+jmMj3ciIrOsNqdyb0WHP9BPbMW9XdeY94QJE7xVEAIMgQ9umn2VKlWUMLN6F6ZObGT0DKIzrD81vqYk0PxDHd/I2YoPxBtCTJE1GMeAczd69Gg/JIHmh9fa/Pa3v1UJdvQDBmPGYni1kZTKyNDYudPxQbDjwQ1ELMQ5PltI7BOs5cuXT72Ch8IyWHKsTwIkQAIkQAIkECqBKE8YofULC0Ptme1JgARIgAQSnIDVu2MTfBIckARIgARIgARI4GdJgK8i+Vmedh40CZDAm0oA4cgbN258Uw+Px0UCJEACJEACJBDGBOi5DOOTw6mRAAmQAAmQAAmQAAmQAAmQQKQQoOcyUs4U50kCJEACJEACJEACJEACJEACYUyA4jKMTw6nRgIkQAIkQAIkQAIkQAIkQAKRQoDiMlLOFOdJAiRAAiRAAiRAAiRAAiRAAmFMgOIyjE8Op0YCJEACJEACJEACJEACJEACkUKA4jJSzhTnSQIkQAIkQAIkQAIkQAIkQAJhTIDiMoxPDqcWOoGFCxdK6dKlA3bkVB6wIQtIgARIgARIgARIgARIgAR8CCQhDxIwEsAL2E+fPq3ekzdt2jTp1q2b3Lp1S1WJjo6WLl26SLJkydR2TEyMnD17VgYPHqy2+/fvL5UrV1Z/P3v2TL777jtZuXKlbN68We0Lxjp06CAtW7aUIUOGyNGjR32a9unTR43Ttm3bYLqMiLp2/OPiAJz6z5Mnj7Ru3VoqVaokH330kVy8eFENmzNnTpk8ebLlFFatWiUzZsyQjBkzSseOHaVMmTISFRUlJ06ckC+++EKuXbtm2c5qZyjjW/Vn3teuXTupU6eOpEqVSs3vs88+C2p+uj+761PXGThwoFy+fFnmzZvnnUag49MVsmbNqq7r4sWLS5o0aWT//v0yduxYb3un82c+Xm6TAAmQAAmQAAmQQEISoLhMSNoRMNb9+/fl0aNH3htuLSwx9Q0bNqh/TZs2lZo1a8rHH3/sd0Tbtm2TBQsWSPLkyZXH8MMPP1Ti9NChQ351A+0oWLCgVKxYUTAXKytbtqyaY9WqVWX79u1WVSJ2nx3/uDgou/5r166tHh6sX7/ebyiIpL59+/rsh4CE2Dlz5oza3759e3n16pWMGTNGPXiAkMMDhwEDBvj1Z7Uj1PGt+jTuw3Vbv359mT59uty4cUM6deokgwYNsryO7fpyuj5123fffVfmzJnj7cru+FApc+bMSkjiMzRu3Di5e/euEulGszt/dnNmGQmQAAmQAAmQAAkkBAGKy4SgHEFjPHjwQPAP9uTJE8uZQ0C8fv3asuzx48fKYwk7f/68EpjwZEEM4sa5a9eu6qZZG8TJpUuX5Msvv/Tu6927t9q2Eq/o78WLF7Jp0yYlQI3iMm3atNK9e3cpVaqUPH/+XHmMUFebU/nUqVMlW7ZsqvqIESOkWbNmUrRoUbly5Yr069dP7W/cuLE0bNhQ0qVLp44PHjt4erW1adNGICIwFo5z3bp18vXXX7sud8O/VatWaoxevXp5+3X7h13/YHrgwAE17+bNm/t1qb2YugAiP1GiRLJ161a1y+zZBH+IJLcW6vhO4zRo0EBmzZolO3fuVFWzZ88uKVOmVOf42LFjTs295XbXp67UpEkTOXXqlFy9etXbzun44DHevXu3z2fBPCm782euy20SIAESIAESIAESSGgCFJcJTTzMx7tw4YJXHO7Zsyfk2UKIwuDdguiEIFy7dq2332LFignWPWqDNwnhit98840kTpzYb3y0R6gg/kGYGg0hvLly5VL74eGB0NQhvKjnVN6zZ0/VHUQmPK5LliyR4cOHS44cOdR+CC4Iy08//VSFiyI0d+jQofL++++rcghfiE947hAKmilTJiW+tDmVo54b/i9fvlSewdiYU/9G4e/Uf6NGjZQnO5AhrBMiPxiLy/HN4+LBgQ6x7tGjhxw+fFhSpEghBQoUcC0una5PPSbEP0LCzWZ3fOXKlVOeTly/uObwUGP+/PlKpGpzOn/m8bhNAiRAAiRAAiRAAglJgAl9EpJ2BIyFkEh9Az5x4sSQZlyjRg2BeNQiFV5GrOXThtBahMyePHlS7SpSpIgSnxB3gax8+fKyd+9eJUCfPn2q6mvD37g5x804xB3+TpLkx+cnTuW6Hwg3eCXhdYThJh8GT+bMmTPl4MGDcvv2bcFaw+vXr0u9evVUOYQsPLoQ0Tdv3lRzNHrEnMrRhxv+y5cv9wtRVRNwYW76d9GN5M6dW51bzciqTYsWLbxeTavyUPa5Gd/YP9YywhAOW7hwYfVgAOfyzp07ysvsxtxcn+gHYjVLlixBrzWGGIfHE6IUDzXwORw2bJikT5/eO724On9ujpd1SIAESIAESIAESCBYAvRcBkuM9W0J1K1bV2rVqiVJkyZV3kOEt2qBBXGJkE7czN+7d08JTWNYK8INkWAlkCHJCTxNEJcweC/RB0IJ8+bNq7yE586d8zY3/u1Ubh7TnEQIyWowb4Siag8n2kAwauGCeZQoUUIgypHEaMWKFUpkanMqN88hnLfhocVDA+OaXON84eHDGkIkZIoPcxrfbkx4tOERhBcRDwMChXib+3C6PnV9JAzasWOHubnttr6GPv/8c+/Dna+++krwMAXX+Jo1a2zbs5AESIAESIAESIAEwoEAxWU4nIU3aA67du2SRYsWKa+iWXhgbSXC+nDDjHDKkiVLyty5c9XRI/kJwhZ15lnsg0BFiOC+ffvU2j14HrFv2bJlXmJY4wnTHkqEjBpNbzuV+zTybGD+RtPhrZiHXlOqy+G91IZkMRACyHQ7ZcoUJZa3bNniutxn0DDeqF69uowcOdJyhu+9955Uq1ZNPvnkE8vyuNhpN75V/zpjLYQlMhnr0GysndWeaat2ep+b61PXRaKpUaNG2XXnV6bDh/HQxWi4tjBHGgmQAAmQAAmQAAlEAgGKy0g4SxE0RyTuQWbRQAZPJUISIQqR7EQniYEXEp4ho40fP16JsyNHjqjdEJdIEoOkMzCsyYTAQWIZCFB4oPCqB4Q6wrD+Uq/bxJpPu3LVwMYQTvnw4UMV7uiU+RYietKkScqLigyqRnGJIZzKbaYRFkXwPkNgm727mByyzVaoUEEJS2Mym7icuN34duPgWoNnHa8I0YYQWau1keZ+3FyfaINQcFx/CIkOxtAGwhLeeVwf2vAKGKfrLZhxWJcESIAESIAESIAE4pMAxWV80n1D+4YXz/yKBLeHCnGJV1SgPV65YDSzKIUYRFgpPKAQAalTp5alS5f6tIHQhFiFuES4LN6ziHBceKc6d+7sk/jGqVx3DC8nwm/Nhqyv6B9ezePHj6v5wPuKfuH9QkIWGLyzsEKFCqk1ftqcyr0VHf6AuILnzvxqEIdmcVaMrKtIdmQ2JMmB1w4eW2RhzZ8/v6qCDKdG7y7mDxGG95XGxgKNr/sK1D/Wh+LaQ5ZYhDPDuwxBZ84UG6i93fWpx0YiH2SFjY3B442HEbhmIDARXp4hQwbLV8PY9Q+v8QcffKCSTRlDw+3asIwESIAESIAESIAE4oIAxWVcUPyZ9BEdHa0EG95hCVu8eLGcPXvWJ5TVCQVunJFwB2sTp02b5lTdWw6vpZUHB2vbEOoIQ5ZWCBYkQUFSntmzZ/ska7Erx5pKvEpDH1uHDh3Ujf7q1atV4hcYxCWEJV4ZgRBeeF/hodIiGYIZbbB+DuN/++23KrOsNqdyb0WHP9BPbMW9XdeY94QJE7xVEAIMgQ9umn2VKlWUMLN6F6ZObGT0DKIzrD81vqYk0PxDHd/I2YoPxBtCTJE1GMeAczd69Gg/JIHm51fRtANebST9MTI0VnE6Pgh2PLiBSIc4x2cLiX2CtXz58qlX8FBYBkuO9UmABEiABEiABEIlEOUJI7R+YWGoPbM9CZAACZBAghOwendsgk+CA5IACZAACZAACfwsCfBVJD/L086DJgESeFMJIBx548aNb+rh8bhIgARIgARIgATCmAA9l2F8cjg1EiABEiABEiABEiABEiABEogUAvRcRsqZ4jxJgARIgARIgARIgARIgARIIIwJUFyG8cnh1EiABEiABEiABEiABEiABEggUghQXEbKmeI8SYAESIAESIAESIAESIAESCCMCVBchvHJ4dRIgARIgARIgARIgARIgARIIFIIUFxGypniPEmABEiABEiABEiABEiABEggjAlQXIbxyeHUQiewcOFCKV26dMCOnMoDNmQBCZAACZAACZAACZAACZCAD4Ek5EECRgJ4Afvp06fVe/KmTZsm3bp1k1u3bqkq0dHR0qVLF0mWLJnajomJkbNnz8rgwYPVdv/+/aVy5crq72fPnsl3330nK1eulM2bN6t9wViHDh2kZcuWMmTIEDl69KhP0z59+qhx2rZtG0yXEVHXjn9cHIBT/3ny5JHWrVtLpUqV5KOPPpKLFy+qYXPmzCmTJ0+2nMKqVatkxowZkjFjRunYsaOUKVNGoqKi5MSJE/LFF1/ItWvXLNtZ7QxlfKv+zPvatWsnderUkVSpUqn5ffbZZ0HNr2vXrlKlShVJkSKFnDlzRh03/reygQMHyuXLl2XevHne4kDHpytkzZpVXdfFixeXNGnSyP79+2Xs2LHe9k7nz2oe3EcCJEACJEACJEACCUWA4jKhSEfIOPfv35dHjx55b7i1sMT0N2zYoP41bdpUatasKR9//LHfUW3btk0WLFggyZMnVx7DDz/8UInTQ4cO+dUNtKNgwYJSsWJFwVysrGzZsmqOVatWle3bt1tVidh9dvzj4qDs+q9du7Z6eLB+/Xq/oSCS+vbt67MfAhJiR4ur9u3by6tXr2TMmDHqwQOEHB44DBgwwK8/qx2hjm/Vp3Efrtv69evL9OnT5caNG9KpUycZNGiQ5XVs1dd7772nhDPE3t27d+U//uM/5Pe//7389re/taou7777rsyZM8dbZnd8qJQ5c2bVNz5D48aNU2OAsdHszp/lJLiTBEiABEiABEiABBKQAMVlAsKOhKEePHgg+Ad78uSJ5ZQhIF6/fm1Z9vjxY+WxhJ0/f14JTNyQQwzixhmeH9w0a4M4uXTpknz55Zfefb1791bbVuIV/b148UI2bdqkBKhRXKZNm1a6d+8upUqVkufPnyuPEepqcyqfOnWqZMuWTVUfMWKENGvWTIoWLSpXrlyRfv36qf2NGzeWhg0bSrp06dTxwXMFT6+2Nm3aCEQExsJxrlu3Tr7++mvX5W74t2rVSo3Rq1cvb79u/7DrH0wPHDig5t28eXO/LrUXUxdA5CdKlEi2bt2qdpk9m+APkeTWQh3faZwGDRrIrFmzZOfOnapq9uzZJWXKlOocHzt2zKm5qo+28HjCcF5xHqysSZMmcurUKbl69aq32On44DHevXu3z2fB3Lfd+TPX5TYJkAAJkAAJkAAJJDQBisuEJh7m4124cMErDvfs2RPybCFEYfBuQXRCEK5du9bbb7FixQTrHrXBm4Sb92+++UYSJ07sNz7aI1QQ/yBMjYYQ3ly5cqn98PBAaOoQXtRzKu/Zs6fqDiITHtclS5bI8OHDJUeOHGo/BBeE5aeffqrCRRGaO3ToUHn//fdVOYQvxCc8dwgFzZQpkxJf2pzKUc8N/5cvXyrPYGzMqX+j8Hfqv1GjRsqTHcgQ1gmRH4zF5fjmcfHgQIdY9+jRQw4fPqzCWwsUKOBKXOLzANE4d+5c1TUemhw8eNA8jNqG6ERIuNnsjq9cuXLK04nrF9ccHmrMnz9fiVRtTufPPB63SYAESIAESIAESCAhCTChT0LSjoCxEBKpb8AnTpwY0oxr1KghEI9apMLLiLV82hBai5DZkydPql1FihRR4hPiLpCVL19e9u7dqwTo06dPVX1t+Bs357gZh7jD30mS/Pj8xKlc9wPhBq8kvI4w3OTD4MmcOXOmEhS3b98WrDW8fv261KtXT5VDyMKjCxF98+ZNNUejR8ypHH244b98+XK/EFU1ARfmpn8X3Uju3LnVudWMrNq0aNHC69W0Kg9ln5vxjf1jLSMM4bCFCxdWDwZwLu/cuaO8zG7sH//4h/z9738XfC4Q7luoUCH18MFsEKtZsmQJeq0xxDjEK0Qp+sXncNiwYZI+fXrvEHF1/sxz5jYJkAAJkAAJkAAJxAUBei7jgiL78BKoW7eu1KpVS5ImTaq8hwhv1QIL4hIhnbiZv3fvnhKaxrBWhMMiwUogQ5ITeJogLmHwXqIPhBLmzZtXeQnPnTvnbW7826ncPKY5iRCS1WDeCEXVHk60gWDUwgXzKFGihBIfSGK0YsUKJTK1OZWb5xDO2/DQ4qGBcU2ucb7wQGMNIRIyxYc5jW83Jjza8AjCi4iHAYFCvM19IBkP1m1iTSQ8svDc4sGCeY0qEgbt2LHD3Nx2W19Dn3/+uffhzldffSV4mIJrfM2aNbbtWUgCJEACJEACJEAC4UCA4jIczsIbNIddu3bJokWLlFfRLDywthJhfbhhRjhlyZIlvSGGSH6CsEWdeRZIIFARIrhv3z61dg+eR+xbtmyZlxjWeMK0hxIho0bT207lPo08G5i/0XR4K+ah15TqcngvtSFZDIQAMt1OmTJFieUtW7a4LvcZNIw3qlevLiNHjrScIRLfVKtWTT755BPL8rjYaTe+Vf86Yy2EJTIZ69BsrJ3VnmmrdsZ98Fb+7W9/k//93/9Vu7H+cvz48crL/e2333qrItHUqFGjnLrzKdfhw3joYjRcW5gjjQRIgARIgARIgAQigQDFZSScpQiaIxL3ILNoIIOnEiGJEIVIdqKTxMALCc+l0XDjDnF25MgRtRviEklikHQGhjWZEDhILAMBCg8UvEsIdYRh/aVet4k1n3blqoGNIZzy4cOHKtzRKfMtRPSkSZOUFxUZVI3iEkM4ldtMIyyK4H2GwDZ7dzE5ZJutUKGCEpbGZDZxOXG78e3GwbUGzzpeEaINIbJWayOt+sE6SOP6RxwfHqC88847XnGJUHBcfzrpj1U/VvvQBsIS3nlcH9rwChin682qP+4jARIgARIgARIggZ+CAMXlT0E9wseEF8/8igS3hwRxiVdUoD3CC41mFqUQgwgrxQ08REDq1Kll6dKlPm0gNCFWIS4RLov3LCIcF96pzp07+yS+cSrXHcPLifBbsyE7KPqHV/P48eNqPvC+ol94v5CQBQbvLAxr8iBKtTmVeys6/AFxBc+d+dUgDs3irBhZV5HsyGxIkgOvHTy2yMKaP39+VQUZTo3eXcwfIgzvK42NBRpf9xWof6wPxbWHrK8IZ4Z3GYLOnCk2UHusDUYZMs4ikzK8swhnNYpsJPJBVtjYGDzeeBiBawYCE+HlGTJk8Au7deob8/rggw9UsiljaLhTO5aTAAmQAAmQAAmQQKgEKC5DJfgzah8dHa0EG95hCVu8eLGcPXvWJ5TVCQdunOH9wdrEadOmOVX3lsNraeXBwdo2hDrCkKUVggVJUJCUZ/bs2T7JWuzKsaYSr9LQx9ahQwd1o7969WqV+AUGcQlhiVdGIIQX3ld4qLRIhmBGGwgOjI9QSWSW1eZU7q3o8Af6ia24t+sa854wYYK3CkKAIfDBTbOvUqWKEmbmdYZopBMbGT2D2I/1p8bXlASaf6jj64kH6h/iDSGmyBqMY8C5Gz16tB+SQO3/53/+R13/CHnFdYJwWPytH4rAq42kVEaGxs6djg+CHQ9uINIhzvHZskoY5Ddh0458+fKpV/BQWDqRYjkJkAAJkAAJkEBcE4jyhBFav7AwrkdifyRAAiRAAvFOwOrdsfE+KAcgARIgARIgARIgAQ8BvoqElwEJkAAJvEEEEI68cePGN+iIeCgkQAIkQAIkQAKRQoCey0g5U5wnCZAACZAACZAACZAACZAACYQxAXouw/jkcGokQAIkQAIkQAIkQAIkQAIkECkEKC4j5UxxniRAAiRAAiRAAiRAAiRAAiQQxgQoLsP45HBqJEACJEACJEACJEACJEACJBApBCguI+VMcZ4kQAIkQAIkQAIkQAIkQAIkEMYEKC7D+ORwaiRAAiRAAiRAAiRAAiRAAiQQKQQoLiPlTHGesSKwcOFCKV26dMC2TuUBG7KABEiABEiABEiABEiABEjAh0AS8iABIwG8gP306dPqPXnTpk2Tbt26ya1bt1SV6Oho6dKliyRLlkxtx8TEyNmzZ2Xw4MFqu3///lK5cmX197Nnz+S7776TlStXyubNm9W+YKxDhw7SsmVLGTJkiBw9etSnaZ8+fdQ4bdu2DabLiKhrxz8uDsCp/zx58kjr1q2lUqVK8tFHH8nFixfVsDlz5pTJkydbTmHVqlUyY8YMyZgxo3Ts2FHKlCkjUVFRcuLECfniiy/k2rVrlu2sdoYyvlV/5n3t2rWTOnXqSKpUqdT8PvvsM9fzC/b4Bg4cKJcvX5Z58+Z5pxHo+HSFrFmzquu6ePHikiZNGtm/f7+MHTvW297p/JmPl9skQAIkQAIkQAIkkJAEKC4TknYEjHX//n159OiR94ZbC0tMfcOGDepf06ZNpbBv6UEAACAASURBVGbNmvLxxx/7HdG2bdtkwYIFkjx5cuUx/PDDD5U4PXTokF/dQDsKFiwoFStWFMzFysqWLavmWLVqVdm+fbtVlYjdZ8c/Lg7Krv/atWurhwfr16/3GwoiqW/fvj77ISAhds6cOaP2t2/fXl69eiVjxoxRDx4g5PDAYcCAAX79We0IdXyrPo37cN3Wr19fpk+fLjdu3JBOnTrJoEGDLK9jq76CPb53331X5syZ4+3K7vhQKXPmzEpI4jM0btw4uXv3rhLpRrM7f1Zz5j4SIAESIAESIAESSEgCFJcJSTsCxnrw4IHgH+zJkyeWM4aAeP36tWXZ48ePlccSdv78eSUw4cmCGMSNc9euXdVNszaIk0uXLsmXX37p3de7d2+1bSVe0d+LFy9k06ZNSoAaxWXatGmle/fuUqpUKXn+/LnyGKGuNqfyqVOnSrZs2VT1ESNGSLNmzaRo0aJy5coV6devn9rfuHFjadiwoaRLl04dHzx28PRqa9OmjUBEYCwc57p16+Trr792Xe6Gf6tWrdQYvXr18vbr9g+7/sH0wIEDat7Nmzf361J7MXUBRH6iRIlk69atapfZswn+EEluLdTxncZp0KCBzJo1S3bu3KmqZs+eXVKmTKnO8bFjx5yaB3V8TZo0kVOnTsnVq1e9/TodHzzGu3fv9vksmCdld/7MdblNAiRAAiRAAiRAAglNgOIyoYmH+XgXLlzwisM9e/aEPFsIURi8WxCdEIRr16719lusWDHBukdt8CYhXPGbb76RxIkT+42P9ggVxD8IU6MhhDdXrlxqPzw8EJo6hBf1nMp79uypuoPIhMd1yZIlMnz4cMmRI4faD8EFYfnpp5+qcFGE5g4dOlTef/99VQ7hC/EJzx1CQTNlyqTElzanctRzw//ly5fKMxgbc+rfKPyd+m/UqJHyZAcyhHVC5AdjcTm+eVw8ONAh1j169JDDhw9LihQppECBAq7Epbk/u+OD+EdIuNnsjq9cuXLK04nrF9ccHmrMnz9fiVRtTufPPB63SYAESIAESIAESCAhCTChT0LSjoCxEBKpb8AnTpwY0oxr1KghEI9apMLLiLV82hBai5DZkydPql1FihRR4hPiLpCVL19e9u7dqwTo06dPVX1t+Bs357gZh7jD30mS/Pj8xKlc9wPhBq8kvI4w3OTD4MmcOXOmHDx4UG7fvi1Ya3j9+nWpV6+eKoeQhUcXIvrmzZtqjkaPmFM5+nDDf/ny5X4hqmoCLsxN/y66kdy5c6tzqxlZtWnRooXXq2lVHso+N+Mb+8daRhjCYQsXLqweDOBc3rlzR3mZY2OBjg9iNUuWLEGvNYZYhccTohQPNfA5HDZsmKRPn947vbg6f7E5XrYhARIgARIgARIgAScC9Fw6EWJ5UATq1q0rtWrVkqRJkyrvIcJbtcCCuERIJ27m7927p4SmMawV4bBIsBLIkOQEniaISxi8l+gDoYR58+ZVXsJz5855mxv/dio3j2lOIoRkLpg3QlG1hxNtIBi1cME8SpQoIRDlSGK0YsUKJTK1OZWb5xDO2/DQ4qGBcU2ucb7wQGMNIRIyxYc5jW83Jjza8AjCi4iHAYFCvO36sDs+JAzasWOHXXO/Mn0Nff75596HO1999ZXgYQqu8TVr1vi14Q4SIAESIAESIAESCDcCFJfhdkYifD67du2SRYsWKa+iWXhgbSXC+nDDjHDKkiVLyty5c9URI/kJwhZ15lnsg0BFiOC+ffvU2j14HrFv2bJlXkpY4wnTHkqEjBpNbzuV+zTybGD+RtPhrZiHXlOqy+G91IZkMRACyHQ7ZcoUJZa3bNniutxn0DDeqF69uowcOdJyhu+9955Uq1ZNPvnkE8vyuNhpN75V/zpjLYQlMhnr0GysndWeaat2Vvucjg+JpkaNGmXVNOA+HT6Mhy5Gw7WFOdJIgARIgARIgARIIBIIUFxGwlmKoDkicQ8yiwYyeCoRkghRiGQnOkkMvJDwXBpt/PjxSpwdOXJE7Ya4RJIYJJ2BYU0mBA4Sy0CAwgOFVz0g1BGG9Zd63SbWfNqVqwY2hnDKhw8fqnBHp8y3ENGTJk1SXlRkGDWKSwzhVG4zjbAogvcZAtvs3cXkkG22QoUKSlgak9nE5cTtxrcbB9caPOt4RYg2hMharY0M1I/T8SEUHNcfQqKDMbSBsIR3HteHNrwCxul6C2Yc1iUBEiABEiABEiCB+CRAcRmfdN/QvuHFM78iwe2hQlziFRVoj1cuGM0sSiEGEVYKDyhEQOrUqWXp0qU+bSA0IVYhLhEui/csIhwX3qnOnTv7JL5xKtcdw8uJ8FuzIesr+odX8/jx42o+8L6iX3i/kJAFBu8srFChQmqNnzancm9Fhz8gruC5M78axKFZnBUj6yqSHZkNSXLgtYPHFllY8+fPr6ogw6nRu4v5Q4ThfaWxsUDj674C9Y/1obj2kCUW4czwLkPQmTPFBmrv5viQyAdZYWNj8HjjYQSuGQhMhJdnyJDB8tUwdv3Da/zBBx+oZFPG0HC7NiwjARIgARIgARIggbggQHEZFxR/Jn1ER0crwYZ3WMIWL14sZ8+e9QlldUKBG2ck3MHaxGnTpjlV95bDa2nlwcHaNoQ6wpClFYIFSVCQlGf27Nk+yVrsyrGmEq/S0MfWoUMHdaO/evVqlfgFBnEJYYlXRiCEF95XeKi0SIZgRhusn8P43377rcosq82p3FvR4Q/0E1txb9c15j1hwgRvFYQAQ+CDm2ZfpUoVJcys3oWpExsZPYPoDOtPja8pCTT/UMc3crbiA/GGEFNkDcYx4NyNHj3aD0mg+TkdH7zaSEplZGjs3On4INjx4AYiFuIcny0k9gnW8uXLp17BQ2EZLDnWJwESIAESIAESCJVAlCeM0PqFhaH2zPYkQAIkQAIJTsDq3bEJPgkOSAIkQAIkQAIk8LMkwFeR/CxPOw+aBEjgTSWAcOSNGze+qYfH4yIBEiABEiABEghjAvRchvHJ4dRIgARIgARIgARIgARIgARIIFII0HMZKWeK8yQBEiABEiABEiABEiABEiCBMCZAcRnGJ4dTIwESIAESIAESIAESIAESIIFIIUBxGSlnivMkARIgARIgARIgARIgARIggTAmQHEZxieHUyMBEiABEiABEiABEiABEiCBSCFAcRkpZ4rzJAESIAESIAESIAESIAESIIEwJkBxGcYnh1MLncDChQuldOnSATtyKg/YkAUkQAIkQAIkQAIkQAIkQAI+BJKQBwkYCeAF7KdPn1bvyZs2bZp069ZNbt26papER0dLly5dJFmyZGo7JiZGzp49K4MHD1bb/fv3l8qVK6u/nz17Jt99952sXLlSNm/erPYFYx06dJCWLVvKkCFD5OjRoz5N+/Tpo8Zp27ZtMF1GRF07/nFxAE7958mTR1q3bi2VKlWSjz76SC5evKiGzZkzp0yePNlyCqtWrZIZM2ZIxowZpWPHjlKmTBmJioqSEydOyBdffCHXrl2zbGe1M5Txrfoz72vXrp3UqVNHUqVKpeb32WefBTW/rFmzquuuePHikiZNGtm/f7+MHTvWPIzaHjhwoFy+fFnmzZvnLQ90fLqCU/9O589yItxJAiRAAiRAAiRAAglEgOIygUBHyjD379+XR48eeW+4tbDE/Dds2KD+NW3aVGrWrCkff/yx32Ft27ZNFixYIMmTJ1ceww8//FCJ00OHDvnVDbSjYMGCUrFiRcFcrKxs2bJqjlWrVpXt27dbVYnYfXb84+Kg7PqvXbu2eniwfv16v6Egkvr27euzHwISYufMmTNqf/v27eXVq1cyZswY9eABQg4PHAYMGODXn9WOUMe36tO4D9dt/fr1Zfr06XLjxg3p1KmTDBo0yPI6tuorc+bMSkjiGh83bpzcvXtXiehA9u6778qcOXO8xXbHh0pu+rc7f4Hmwf0kQAIkQAIkQAIkkFAEKC4TinSEjPPgwQPBP9iTJ08sZw0B8fr1a8uyx48fK48l7Pz580pgwpMFMYgb865du6qbcm0QJ5cuXZIvv/zSu693795q20q8or8XL17Ipk2blAA1isu0adNK9+7dpVSpUvL8+XPlMUJdbU7lU6dOlWzZsqnqI0aMkGbNmknRokXlypUr0q9fP7W/cePG0rBhQ0mXLp06Pnjs4OnV1qZNG4GIwFg4znXr1snXX3/tutwN/1atWqkxevXq5e3X7R92/YPpgQMH1LybN2/u16X2YuoCiPxEiRLJ1q1b1S6zZxP8IcLcWqjjO43ToEEDmTVrluzcuVNVzZ49u6RMmVKd42PHjjk1Vx7d3bt3+1yrgRo1adJETp06JVevXvVWcTo+N/3bnb9Ac+F+EiABEiABEiABEkgoAhSXCUU6Qsa5cOGCVxzu2bMn5FlDiMLg3YLohCBcu3att99ixYoJ1j1qgzcJ4YrffPONJE6c2G98tEcoIv5BmBoNIby5cuVS++HhgdDUIbyo51Tes2dP1R1EJjyuS5YskeHDh0uOHDnUfgguCMtPP/1UhYsiNHfo0KHy/vvvq3IIX4hPeO4QCpopUyYlvrQ5laOeG/4vX75UnsHYmFP/RuHv1H+jRo2UJzuQIWwUIj8Yi8vxzePiwYEOse7Ro4ccPnxYUqRIIQUKFHAlLsuVK6c8kbi+cE3gocP8+fOViDQbxD9Cws1md3xu+nc6f+bxuE0CJEACJEACJEACCUmACX0SknYEjIWQSH0DPnHixJBmXKNGDYF41CIVXkas5dOG0FqEzJ48eVLtKlKkiBKfEHeBrHz58rJ3714lQJ8+farqa8PfuPnHzT7EHf5OkuTH5ydO5bofCDd4JeF1hEFEwODJnDlzphw8eFBu374tWGt4/fp1qVevniqHkIVHFyL65s2bao5Gj5hTOfpww3/58uV+IapqAi7MTf8uupHcuXOrc6sZWbVp0aKF16tpVR7KPjfjG/vHWkYYwmELFy6sHgzgXN65c0d5md0YxDI8khCNeOiAz8mwYcMkffr0Ps0hVrNkyRL0WmM3/cfV+XNzvKxDAiRAAiRAAiRAAsESoOcyWGKsb0ugbt26UqtWLUmaNKnyHiK8VQssiEuEdOJm/t69e0poGsNaEQ6LBCuBDElU4GmCuITBe4k+EKqYN29e5SU8d+6ct7nxb6dy85jmJEJIVoN5IxRVezjRBoJRCxfMo0SJEgJRjiRGK1asUCJTm1O5eQ7hvA0PLR4aGNfkGucLDzTWECIhU3yY0/h2Y8KjDY8jvIh4GBAoxNvYhz7Hn3/+uffhy1dffSV42IFrcM2aNd7qSBi0Y8cOuyn4lQXTv19j7iABEiABEiABEiCBMCFAcRkmJ+JNmcauXbtk0aJFyqtoFh5YW4mwPtyQI5yyZMmSMnfuXHXoSH6CsEWdeRb7IFARgrhv3z61dg+eR+xbtmyZFxfWeMK0hxIho0bT207lPo08G5i/0XR4K+ah15TqcngvtSFZDIQGMt1OmTJFieUtW7a4LvcZNIw3qlevLiNHjrSc4XvvvSfVqlWTTz75xLI8LnbajW/Vv85YC2GJTMY6NBtrZ7Vn2qqd3qfDe/FQxGg49+jDaEg0NWrUKLvu/MqC6d+vMXeQAAmQAAmQAAmQQJgQoLgMkxPxpkwDiXuQWTSQwVOJkESIQiQ70Uli4IWE59Jo48ePV+LsyJEjajfEJZLEIOkMDGsyIXCQWAYCFB4ovOoBoY4wrL/U6zax5tOuXDWwMYRTPnz4UIU7OmW+hYieNGmS8qIig6pRXGIIp3KbaYRFEbzPENhm7y4mh2yzFSpUUMLSmMwmLiduN77dOLjW4FnHK0K0IUTWam2kuR9cUxCW8J7j/GnDK1qM1wNCwVEXIdHBmNv+g+mTdUmABEiABEiABEggoQlQXCY08TdgPHjx7F7BYHeIEJd4RQXa45UORjOLUohBhJXCAwoRkDp1alm6dKlPGwhNiFWIS4TL4j2LCMeFd6pz584+iW+cynXH8HIi/NZsyPqK/uHVPH78uJoPvK/oF94vJGSBwTsLK1SokFrjp82p3FvR4Q+IK3juzK8GcWgWZ8XIuopkR2ZDkhx47eCxRRbW/PnzqyrIcGr07mL+EGF4X2lsLND4uq9A/WN9KK49ZIlFODO8yxCM5kyxgdrDI42HBTinEJgI/86QIYPPq1uQyAdZYWNjbvp30y+8xh988IFKNmUMDXfTlnVIgARIgARIgARIIBQCFJeh0PuZtY2OjlaCDe+whC1evFjOnj3rE8rqhAQ35ki4g7WJ06ZNc6ruLYfX0spjiLVtCHWEIUsrBAuSrCApz+zZs32StdiVY00lXqWhj61Dhw5KSKxevVolfoFBXEJY4pURCOGF9xUeKi2SIZjRBuvnMP63336rMstqcyr3VnT4A/3EVtzbdY15T5gwwVsFIcAQ+OCm2VepUkUJM6t3YerERkbPIDrD+lPja0oCzT/U8Y2crfhAvCGEFVmDcQw4d6NHj/ZDEmh+ENR4sAIRDfGMax+JfbTBq42kVEaGxs6djs+pf7+JBtiRL18+9QoeCssAgLibBEiABEiABEgg3ghEecIIrV9YGG9DsmMSIAESIIH4ImD17tj4Gov9kgAJkAAJkAAJkICRAF9FwuuBBEiABN4gAghH3rhx4xt0RDwUEiABEiABEiCBSCFAz2WknCnOkwRIgARIgARIgARIgARIgATCmAA9l2F8cjg1EiABEiABEiABEiABEiABEogUAhSXkXKmOE8SIAESIAESIAESIAESIAESCGMCFJdhfHI4NRIgARIgARIgARIgARIgARKIFAIUl5FypjhPEiABEiABEiABEiABEiABEghjAhSXYXxyODUSIAESIAESIAESIAESIAESiBQCFJeRcqY4z1gRWLhwoZQuXTpgW6fygA1ZQAIkQAIkQAIkQAIkQAIk4EMgCXmQgJEAXsB++vRp9Z68adOmSbdu3eTWrVuqSnR0tHTp0kWSJUumtmNiYuTs2bMyePBgtd2/f3+pXLmy+vvZs2fy3XffycqVK2Xz5s1qXzDWoUMHadmypQwZMkSOHj3q07RPnz5qnLZt2wbTZUTUteMfFwfg1H+ePHmkdevWUqlSJfnoo4/k4sWLaticOXPK5MmTLaewatUqmTFjhmTMmFE6duwoZcqUkaioKDlx4oR88cUXcu3aNct2VjtDGd+qP/O+du3aSZ06dSRVqlRqfp999pmr+bk5fvNYAwcOlMuXL8u8efO8RYGOT1fImjWruq6LFy8uadKkkf3798vYsWO97Z3On3kO3CYBEiABEiABEiCBhCRAcZmQtCNgrPv378ujR4+8N9xaWGLqGzZsUP+aNm0qNWvWlI8//tjviLZt2yYLFiyQ5MmTK4/hhx9+qMTpoUOH/OoG2lGwYEGpWLGiYC5WVrZsWTXHqlWryvbt262qROw+O/5xcVB2/deuXVs9PFi/fr3fUBBJffv29dkPAQmxc+bMGbW/ffv28urVKxkzZox68AAhhwcOAwYM8OvPakeo41v1adyH67Z+/foyffp0uXHjhnTq1EkGDRpkeR2b+3Jz/OY27777rsyZM8e72+74UClz5sxKSOIzNG7cOLl7964S6UazO3/m8blNAiRAAiRAAiRAAglNgOIyoYmH+XgPHjwQ/IM9efLEcrYQEK9fv7Yse/z4sfJYws6fP68EJjxZEIO4ce7atau6adYGcXLp0iX58ssvvft69+6ttq3EK/p78eKFbNq0SQlQo7hMmzatdO/eXUqVKiXPnz9XHiPU1eZUPnXqVMmWLZuqPmLECGnWrJkULVpUrly5Iv369VP7GzduLA0bNpR06dKp44PHDp5ebW3atBGICIyF41y3bp18/fXXrsvd8G/VqpUao1evXt5+3f5h1z+YHjhwQM27efPmfl1qL6YugMhPlCiRbN26Ve0yezbBHyLJrYU6vtM4DRo0kFmzZsnOnTtV1ezZs0vKlCnVOT527JhTc68XV1c0H7+xgyZNmsipU6fk6tWr3t1OxweP8e7du30+C+ZJ2Z0/c11ukwAJkAAJkAAJkEBCE6C4TGjiYT7ehQsXvOJwz549Ic8WQhQG7xZEJwTh2rVrvf0WK1ZMsO5RG7xJCFf85ptvJHHixH7joz1CBfEPwtRoCOHNlSuX2g8PD4SmDuFFPafynj17qu4gMuFxXbJkiQwfPlxy5Mih9kNwQVh++umnSmggNHfo0KHy/vvvq3IIX4hPeO4QCpopUyYlvrQ5laOeG/4vX75UnsHYmFP/RuHv1H+jRo2UJzuQIawTIj8Yi8vxzePiwYEOse7Ro4ccPnxYUqRIIQUKFHAlLs392R0/xD9Cws1md3zlypVTnk5cv7jm8FBj/vz5SqRqczp/5vG4TQIkQAIkQAIkQAIJSYAJfRKSdgSMhZBIfQM+ceLEkGZco0YNgXjUIhVeRqzl04bQWoTMnjx5Uu0qUqSIEp8Qd4GsfPnysnfvXiVAnz59quprw9+4OcfNOMQd/k6S5MfnJ07luh8IN3gl4XWE4SYfBk/mzJkz5eDBg3L79m3BWsPr169LvXr1VDmELDy6ENE3b95UczR6xJzK0Ycb/suXL/cLUVUTcGFu+nfRjeTOnVudW83Iqk2LFi28Xk2r8lD2uRnf2D/WMsIQDlu4cGH1YADn8s6dO8rLHKzZjQ+xmiVLlqDXGkOMw+MJUYqHGvgcDhs2TNKnT++dXlydv2CPl/VJgARIgARIgARIwA0Bei7dUGId1wTq1q0rtWrVkqRJkyrvIcJbtcCCuERIJ27m7927p4SmMawV4bBIsBLIkOQEniaISxi8l+gDoYR58+ZVXsJz5855mxv/dio3j2lOIoRkNZg3QlG1hxNtIBi1cME8SpQoIRDlSGK0YsUKJTK1OZWb5xDO2/DQ4qGBcU2ucb7wQGMNIRIyxYc5jW83Jjza8AjCi4iHAYFCvO36sBsfCYN27Nhh19yvTF9Dn3/+uffhzldffSV4mIJrfM2aNX5tuIMESIAESIAESIAEwo0AxWW4nZEIn8+uXbtk0aJFyqtoFh5YW4mwPtwwI5yyZMmSMnfuXHXESH6CsEWdeRb7IFARIrhv3z61dg+eR+xbtmyZlxLWeMK0hxIho0bT207lPo08G5i/0XR4K+ah15TqcngvtSFZDIQAMt1OmTJFieUtW7a4LvcZNIw3qlevLiNHjrSc4XvvvSfVqlWTTz75xLI8LnbajW/Vv85YC2GJTMY6NBtrZ7Vn2qpdoH124yPR1KhRowI1tdyvw4fx0MVouLYwRxoJkAAJkAAJkAAJRAIBistIOEsRNEck7kFmzUAGTyVCEiEKkexEJ4mBFxKeS6ONHz9eibMjR46o3RCXSBKDpDMwrMmEwEFiFQhQeKDwqgeEOsKw/lKv28SaT7ty1cDGEE758OFDFe7olPkWInrSpEnKi4oMqkZxiSGcym2mERZF8D5DYJu9u5gcss1WqFBBCUtjMpu4nLjd+Hbj4FqDZx2vCNGGEFmrtZF2/diNj1BwXH8IiQ7G0AbCEt55XB/a8AoUp+stmHFYlwRIgARIgARIgATikwDFZXzSfUP7hhfP/IoEt4cKcYlXVKA9XrlgNLMohRhEWCk8oBABqVOnlqVLl/q0gdCEWIW4RLgs3rOIcFx4pzp37uyT+MapXHcMLyfCb82GrK/oH17N48ePq/nA+4p+4f1CQhYYvLOwQoUKqTV+2pzKvRUd/oC4gefM/GoQh2ZxVoysq0h2ZDYkyYHXDh5bZGHNnz+/qoIMp0bvLuYPEYb3lcbGAo2v+wrUP9aH4tpDlliEM8O7DEFnzhQbqL3u3258JPJBVtjYGDzeeBiBawYCE+HlGTJksHw1jF3/8Bp/8MEHKtmUMTTcrg3LSIAESIAESIAESCAuCFBcxgXFn0kf0dHRSrDhHZawxYsXy9mzZ31CWZ1Q4MYZCXewNnHatGlO1b3l8FpaeXCwtg2hjjBkaYVgQRIUJOWZPXu2T7IWu3KsqcSrNPSxdejQQd3or169WiV+gUFcQljilREI4YX3FR4qLZIhmNEG6+cw/rfffqsyy2pzKvdWdPgD/cRW3Nt1jXlPmDDBWwUhwBD44KbZV6lSRQkzq3dh6sRGRs8gOsP6U+NrSgLNP9TxjZyt+EC8IcQUWYNxDDh3o0eP9kMSaH6oaHf88GojKZWRobFzp+ODYMeDG4h0iHN8tpDYJ1jLly+fegUPhWWw5FifBEiABEiABEggVAJRnjBC6xcWhtoz25MACZAACSQ4Aat3xyb4JDggCZAACZAACZDAz5IAX0XyszztPGgSIIE3lQDCkTdu3PimHh6PiwRIgARIgARIIIwJ0HMZxieHUyMBEiABEiABEiABEiABEiCBSCFAz2WknCnOkwRIgARIgARIgARIgARIgATCmADFZRifHE6NBEiABEiABEiABEiABEiABCKFAMVlpJwpzpMESIAESIAESIAESIAESIAEwpgAxWUYnxxOjQRIgARIgARIgARIgARIgAQihQDFZaScKc6TBEiABEiABEiABEiABEiABMKYAMVlGJ8cTi10AgsXLpTSpUsH7MipPGBDFpAACZAACZAACZAACZAACfgQSEIeJGAkgBewnz59Wr0nb9q0adKtWze5deuWqhIdHS1dunSRZMmSqe2YmBg5e/asDB48WG33799fKleurP5+9uyZfPfdd7Jy5UrZvHmz2heMdejQQVq2bClDhgyRo0eP+jTt06ePGqdt27bBdBkRde34x8UBOPWfJ08ead26tVSqVEk++ugjuXjxoho2Z86cMnnyZMsprFq1SmbMmCEZM2aUjh07SpkyZSQqKkpOnDghX3zxhVy7ds2yndXOUMa36s+8r127dlKnTh1JlSqVmt9nn30W1Px69uypji9FihTqupw+fbrcvHnTPIzaHjhwoFy+fFnmzZvnLQ90fLpC1qxZ1XVdWjPGmwAAIABJREFUvHhxSZMmjezfv1/Gjh3rbe90/iwnwp0kQAIkQAIkQAIkkEAEKC4TCHSkDHP//n159OiR94ZbC0vMf8OGDepf06ZNpWbNmvLxxx/7Hda2bdtkwYIFkjx5cuUx/PDDD5U4PXTokF/dQDsKFiwoFStWFMzFysqWLavmWLVqVdm+fbtVlYjdZ8c/Lg7Krv/atWurhwfr16/3GwoiqW/fvj77ISAhds6cOaP2t2/fXl69eiVjxoxRDx4g5PDAYcCAAX79We0IdXyrPo37cN3Wr19fCcIbN25Ip06dZNCgQZbXsVVff/jDHyRJkiQyevRoefnypbRo0UI9/DBz0W3fffddmTNnjrcru+NDpcyZMyshic/QuHHj5O7du0qkG83u/FnNmftIgARIgARIgARIICEJUFwmJO0IGOvBgweCf7AnT55YzhgC4vXr15Zljx8/Vh5L2Pnz55XAhKcHYhA3zl27dlU3zdogTi5duiRffvmld1/v3r3VtpV4RX8vXryQTZs2KQFqFJdp06aV7t27S6lSpeT58+fKY4S62pzKp06dKtmyZVPVR4wYIc2aNZOiRYvKlStXpF+/fmp/48aNpWHDhpIuXTp1fPDYwdOrrU2bNgIRgbFwnOvWrZOvv/7adbkb/q1atVJj9OrVy9uv2z/s+gfTAwcOqHk3b97cr0vtxdQFEPmJEiWSrVu3ql1mzyb4QyS5tVDHdxqnQYMGMmvWLNm5c6eqmj17dkmZMqU6x8eOHXNqLhCLeFiC6wH2f//v/5W//vWv6hr/5ptvfNo3adJETp06JVevXvXudzo+eIx3797t81kwT8ru/JnrcpsESIAESIAESIAEEpoAxWVCEw/z8S5cuOAVh3v27Al5thCiMHi3IDohCNeuXevtt1ixYoJ1j9rgTUK4Im7WEydO7Dc+2iNUEP8gTI2GEN5cuXKp/fDwQGjqEF7UcypHyCMMIhMiYsmSJTJ8+HDJkSOH2g/BBWH56aefqnBRhOYOHTpU3n//fVUOkQHxCc8dQkEzZcqkxJc2p3LUc8MfXjN4BmNjTv0bhb9T/40aNVKe7ECGsE6I/GAsLsc3j4sHBzrEukePHnL48GEV3lqgQAFHcYmHCTDzAxdc07/4xS/8xCXEP0LCzWZ3fOXKlVOeTly/uOYgYufPn69Eqjan82cej9skQAIkQAIkQAIkkJAEmNAnIWlHwFgIidQ34BMnTgxpxjVq1BCIRy1S4WXEWj5tCK1FyOzJkyfVriJFiijxCXEXyMqXLy979+5VAvTp06eqvjb8jZtz3IxD3OFvhDG6Ldf1INzglYTXEaY9VfBkzpw5Uw4ePCi3b98WrDW8fv261KtXT9WDkIVHF4ID6/AwR6NHzKkcfbjhv3z58oChmGoiNuamf5vm3qLcuXOrc6sZWbVB2Kj2alqVh7LPzfjG/rGWEYZw2MKFC6sHAziXd+7cUV5mJ4MohIcdobXa6tatK4UKFVLeT6NBrGbJkiXotcYQ4/B4QpTioQY+h8OGDZP06dN7u4+r8+d0vCwnARIgARIgARIggdgQoOcyNtTYJiAB3HDXqlVLkiZNqryHCG/VAgviEiGduJm/d++eEprGsFaEwyLBSiBDkhN4miAuYfBeog+EEubNm1d5Cc+dO+dtbvzbqdw8pjmJEJLVYN4IRdUeTrSBYNTCBfMoUaKEQJQjidGKFSt8kr04lZvnEM7b8NDioYFxTa5xvvBAYw0h1iTGhzmNbzcmPNrwCEIw4mFAoBBvcx9/+ctf1PnHmmIYhDMeQuAhh9GQMGjHjh3m5rbb+hr6/PPPvQ93vvrqK8HDFFzja9assW3PQhIgARIgARIgARIIBwIUl+FwFt6gOezatUsWLVqkbrjNwgOeH4T14YYZ4ZQlS5aUuXPnqqPHejaELerMs9gHgYoQwX379qm1e/BMYt+yZcu8xLDGE6Y9lAgZNZredir3aeTZMAsGHd6Keeg1pboNvJfakCwGQgCZbqdMmaLE8pYtW1yXm+cRrtvVq1eXkSNHWk7vvffek2rVqsknn3xiWR4XO+3Gt+pfZ6yFsEQmYx2ajXBX7Zm2amfc9+9//1tlgDXa7Nmz1UMEoyHR1KhRo5y68ynX4cN46GI0XFs6JDeoDlmZBEiABEiABEiABH4CAhSXPwH0N3lIJO5BZtFABk8lQhIhCpHsRCeJgRcSnkujjR8/XomzI0eOqN0Ql0gSg6QzMKzJhMBBYhkIUHig8KoHhDrCsP5Sr9vEmk+7ctXAxhBO+fDhQxXu6JT5FiJ60qRJyouKDKpGcYkhnMptphEWRfA+Q2CbvbuYHLLNVqhQQQlLYzKbuJy43fh24+Bag2fdKBARImu1NtKuH12GvnB94YGKNoSC4/pDSHQwhjYQlvDO4/rQhlfAOF1vwYzDuiRAAiRAAiRAAiQQnwQoLuOT7hvaN7x45lckuD1UiEu8ogLt8coFo5lFKcQg1i7CAwoRkDp1alm6dKlPGwhNiFWIS4TL4j2LCMeFd6pz584+iW+cynXH8HIi/NZsyPqK/uHVPH78uJoPvK/oF94vJGSBwTsLw3o8iFJtTuXeig5/QFzBcxfoFRgOzUMuRtZVJDsyG5LkwGsHjy3WIebPn19VQYZTo3cX84cIw/tKY2OBxtd9Beof60Nx7SFLLMKZ4V2GoDNnig3UHv3j4QW84XigAQ8t1m0aDYl8kBU2NgaPNx5G4JqBwER4eYYMGSxfDWPXP7zGH3zwgUo2ZQwNt2vDMhIgARIgARIgARKICwIUl3FB8WfSR3R0tBJseIclbPHixXL27FmfUFYnFLhxRsIdrE2cNm2aU3VvObyWVh4crG1DqCMMWVohWJAEBUl5ELJoTNZiV441lXiVhj62Dh06qBv91atXewUExCWEJV4ZgRBeeF/hodIiGYIZbbB+DuN/++23KrOsNqdytzDQT2zFvd0YmPeECRO8VRACDIEPbpp9lSpVlDCzehemTmxkDh3F+lPja0oCzT/U8Y2crfhAvCHEFFmDcQw4d3hnpdkCzQ9JhDQTeEEhov/xj394m8OrjaRURobGvp2OD4IdD24g0iHO8dlCYp9gLV++fOoVPBSWwZJjfRIgARIgARIggVAJRHmexFu/sDDUntmeBEiABEggwQlYvTs2wSfBAUmABEiABEiABH6WBPgqkp/laedBkwAJvKkEEI68cePG/8/eeYBZUWR9/0xgIkPOGUFBeMk5BwERkLgfSVBAEBYUxAVlXWGBRUTUZQmCIgIvSl4QeIElSZAoScElSJacwzAweebrf0Fd+vbc7uqZe+9wZzjnee4zc7uqT1X9um93nzqnTmfW4fG4mAATYAJMgAkwAR8mwJ5LHz443DUmwASYABNgAkyACTABJsAEmEBGIcCey4xypLifTIAJMAEmwASYABNgAkyACTABHybAxqUPHxzuGhNgAkyACTABJsAEmAATYAJMIKMQYOMyoxwp7icTYAJMgAkwASbABJgAE2ACTMCHCbBx6cMHh7vGBJgAE2ACTIAJMAEmwASYABPIKATYuMwoR4r7yQSYABNgAkyACTABJsAEmAAT8GECbFz68MHhrrlPYNGiRVSlShVTRapy0x25gAkwASbABJgAE2ACTIAJMAEnAoHMgwnoCeAF7KdOnRLvyZsxYwb169ePbt26Jao0b96c+vTpQ8HBweJ7QkICnTlzhkaMGCG+Dxs2jOrWrSv+j42NpatXr9KqVatoy5YtYltqpEePHtSxY0caOXIkHTlyxGnXwYMHi3a6du2aGpUZoq4Vf08MQKW/WLFi1LlzZ6pTpw69++67dOHCBdFs4cKFaerUqS67sHr1apo9ezblzp2bevbsSVWrViU/Pz86fvw4zZo1i65du+ZyP1cb3WnflT7jtm7dutFLL71E4eHhon9fffWV7f7Vr1+f3nvvPSeVe/fupQkTJhibEd/ff/99unTpEs2fP99RbjY+WSF//vzivK5QoQJly5aNDhw4QJ9++qljf9Xxc9kR3sgEmAATYAJMgAkwgXQiwMZlOoHOKM1ERkbSgwcPHA/c0rBE/zdu3Cg+bdu2pcaNG6d40Ead7du308KFCykkJER4DN9++21hnB4+fNg2gueff55q165N6IsrqV69uugjHvZ37NjhqkqG3WbF3xODstLftGlTMXmwYcOGFE3BSBoyZIjTdhiQMHZOnz4ttnfv3p2SkpKEsYWJBxhymHAYPnx4Cn2uNrjbviud+m04b19++WWaOXMm3bhxg3r16kUffPCBy/PYla4cOXIIgxSTLlKio6NdVRXbqlWrRt99952j3Gp8qJQ3b15hSOI3NHHiRLp7964w0vVidfycKvIXJsAEmAATYAJMgAk8BQJsXD4F6L7c5P379wkfiNmDMwyI5ORkl8N4+PCh8FhCzp07JwxMeLJgDOLBuW/fvuKhWQqMk4sXL9K3337r2PbOO++I70YvESpAX3x8PG3evFkYoHrjMnv27NS/f3+qXLkyxcXFCY8R6kpRlU+fPp0KFCggqo8dO5batWtH5cqVo8uXL9PQoUPF9jZt2lCrVq0IhgbGB48dPL1SunTpQjAi0BbGuX79evrhhx9sl9vh36lTJ9HGoEGDHHrt/mOlH0wPHjwo+t2+ffsUKqUXUxbAyPf396dt27aJTUbPJvjDSLIr7ravaqdly5Y0d+5c2rVrl6hasGBBCgsLE8f46NGjqt3FMQcDIwdXO7766qt08uRJunLliqNYNT54jPfs2eP0WzDqtjp+xrr8nQkwASbABJgAE2AC6U2Ajcv0Ju7j7Z0/f95hHCLkz12BIQqBdwtGJwzCdevWOdSWL1+esO5RCrxJ8A798ssvFBAQkKJ57I9QQXxgmOoFIbxFihQR2+HhgaEpQ3hRT1U+cOBAoQ5GJjyuS5cupTFjxlChQoXEdhhcMCy//PJLYWAgNHfUqFH0+uuvi3IYvjA+4blDKGiePHmE8SVFVY56dvgnJiYKz2BaRKVfb/ir9Ldu3Vp4ss0EYZ0w8lMjnmzf2C4mDmSI9YABA+i3336j0NBQKl26tC3jMmfOnMIbiQ/44xz9+uuvjc2I7zD+ERJuFKvx1ahRQ3g6cf7inMOkxoIFC4SRKkV1/Izt8XcmwASYABNgAkyACaQnAU7ok560M0BbCImUD+CTJ092q8eNGjUiGI/SSIWXEWv5pCC0FiGzv//+u9j04osvCuMTxp2Z1KxZk/bt2ycM0JiYGFFfCv7HwzkexmHc4f/AwCfzJ6pyqQeGA7yS8DpC8JAPgSdzzpw5dOjQIbp9+zZhreH169epRYsWohyGLDy6MKJv3rwp+qj3iKnKocMO/xUrVqQIURUdsCF29NtQQ0WLFhXHVjJytU+HDh0cXk1X5e5ss9O+Xj/WMkIQDlu2bFkxMYBjeefOHeFltiMw9D7//HMxoQDPesWKFWn06NEpdoWxmi9fvlSvNYYxDo8njFJMauB3CP0waqV46vil6DRvYAJMgAkwASbABJiABwiw59IDEFnFEwLNmjWjJk2aUFBQkPAe4iFcGlgwLhHSiYf5e/fuCUNTH9aKcFgkWDETJDmBpwnGJQTeS+hAKGHx4sWFl/Ds2bOO3fX/q8qNbRqTCCFZDfqNUFTp4cQ+MBil4YJ+wOCAUY4kRitXrhRGphRVubEPvvwdHlpMGujX5Or7Cw801hAiIZM3RNW+VZvwaMNQhBcRkwFmId5GHRirHC8mHBCiOn78eBFKLUPBsQ8SBu3cudO4u+V3eQ598803jsmdf//734TJFJzja9eutdyfC5kAE2ACTIAJMAEm4AsE2Lj0haOQifqwe/duWrx4sfAqGg0PrK1EWB8emBFOWalSJfr+++/F6BFqiId0mXkW22CgIkRw//79Yu0ePI/Ytnz5cgcxrPGESA8lQkb1Ir+ryp120r6g/3qR4a3oh96QQB14L6UgWQwMAWS6nTZtmjCWt27darvcqVEf/tKwYUMaN26cyx6+9tpr1KBBA/roo49clntio1X7rvTLjLUwLJHJWIZmYx2l9Ey72s9qGzzTEOjQnxNINPXxxx9b7ZqiTIYPY9JFLzi3oJ+FCTABJsAEmAATYAIZgQAblxnhKGWgPiJxDzKLmgk8lQhJhFGIZCcyOQq8kPBc6gUhiDDO/vvf/4rNMC6RJAZJZyBYkwkDB4llYIDCA4VXPSDUEYL1l3LdJtZ8WpWLHSwE4ZRRUVEi3FGV+RZG9JQpU4QXFRlU9cYlmlCVW3TDJ4rgfYYxZfTuonPINlurVi1hWOqT2Xiy41btW7WDcw2edbwiRApCZF2tjbTSI8vKlCkj/tWPE6HgOP+k4WlHD+pgHxiW8M7j/JCCV8Cozje7bXA9JsAEmAATYAJMgAl4mwAbl94mnAn1w4tnfEWC3WHCuMQrKrA/XrmgF6NRCmMQYaXwgMIIiIiIoGXLljntA0MTxiqMS4TL4j2LCMeFd6p3795OiW9U5VIxvJwIvzUKsr5CP7yax44dE/2B9xV64f1CQhYIvLMQGB8wSqWoyh0VFf/AuILnzvhqEMVuHitG1lUkOzIKkuTAawePLbKwlipVSlRB+Kjeu4v+wwjD+0rTImbtS11m+rE+FOcessQinBneZRh0xkyxZvu/+eab9Ouvv4r1ttABDy0mDvTeRiTyQVbYtAg83piMwDkDAxPh5bly5XL5ahgr/fAav/XWW2JtqD403GofLmMCTIAJMAEmwASYgCcIsHHpCYrPiI7mzZsLgw3vsIQsWbKEzpw54xTKqkKBB2ck3MHaRP37AlX7wWvpyoODtW0IdYQgSysMFiRBQVKeefPmOSVrsSrHmkq8SkOOrUePHuJBf82aNSLxCwTGJQxLvDICIbzwvsJDJY1kGMzYB+vn0P6JEydEZlkpqnJHRcU/0JNW495KNfo9adIkRxWEAMPABzfJvl69esIwc/UuTJnYSO8ZhDKsP9W/psSs/+62r+fsig+MN4SYImswxoBjhzWTRjHrH443XqWDBDswMPFKExnWDR3waiMplZ6hXrdqfDDYMXEDIx3GOX5bSOyTWilZsqR4BQ8blqklx/WZABNgAkyACTABdwn4aWGErl9Y6K5m3p8JMAEmwATSnYCrd8emeye4QSbABJgAE2ACTOCZJMCvInkmDzsPmgkwgcxKAOHImzZtyqzD43ExASbABJgAE2ACPkyAPZc+fHC4a0yACTABJsAEmAATYAJMgAkwgYxCgD2XGeVIcT+ZABNgAkyACTABJsAEmAATYAI+TICNSx8+ONw1JsAEmAATYAJMgAkwASbABJhARiHAxmVGOVLcTybABJgAE2ACTIAJMAEmwASYgA8TYOPShw8Od40JMAEmwASYABNgAkyACTABJpBRCLBxmVGOFPeTCTABJsAEmAATYAJMgAkwASbgwwQ8alx+9dVX1KRJEx8ernXXfLH/ixYtoipVqlh3/HEp+o+X3KukefPmNHPmTMqePbuq6jNbfu/jNhTdpvwzOf6YRqXp7uftKSkiOFXjf/inyhT5l6ap2ic9K9+d2I5iaxY3bVJVLndMKx/ThjNJQeSolnRn9muOT2KecK+MrGbNmtS3b1+P6E7N9VXVYM+ePQnvGPV14eu/rx+hp9u/6tWr08iRI59uJzJJ66rri6o8k2DgYTyDBAIz2pjbtWtHuDnmzp2brl69SkuWLKHdu3dntGE81f7euXNHsLt3795T7Yeq8fuDGlDA1UgKW3ZIVL0/sD4lVH9sHMQmkP/1+xS84RiF7DyrUpXq8oBr98k/MjbV+9nZ4fbMrpRj+Aryvxdjp7ppHSMfWdFd/f53owVb//veGb/pgAwFZuOzu7+36qn4uMvfW/32tt5sY9eJJhILRFDk+LZeaW7o0KFUtWpVCg4OFn937txJ8+fP90pbmVVpRrn+m/HHPf+tt96iu3fvmlV5qtt9vX9PFc5TbBzPjX369BHXDkhCQgKdOXOGRowYIb4PGzaM6tatK/6PjY0Vz0irVq2iLVu2iG1SBg8eLOp17drVaTt/YQJM4AmBDGVcvvnmm1SkSBH65JNP6NKlS1S+fHl6++23KT4+nvbv38/H1SYBsPJ1XvCaxVcsTKFLf3EaVZY9ZylkxWGi4EBKqFCIHvapQwF3oinL0as2R2+vWtYp2+xVTGWtxFxh5BcYkMq9UlY34+MJ/UGHLhE+T1PMxud2n5KTrVWoyrW9rfh4gr91B32/NDlJwTiNQ3jvvfcoNDSUFi5cSCVLlqQff/yRsmbNmkZtz+5uGeH6b3Z08uTJQ4GBvvvY4uv9M+P6LGzfuHEj4dO2bVtq3Lgx4XpilO3bt4vrS0hIiIgYw/PlrVu36PBh7ZnjscCz++DBA6pfvz7t2LHDqIK/MwEmoBFwXKVxs4bRZpyN+eCDD8SPa9asWVSsWDHq0aMHPffccxQWFkZnz56lb7/9Vsz+SMF27FO5cmXCDClmlTG77K7+okWLUrVq1ehvf/sbDRo0iJ5//nnxA//hhx+oS5cuoo++3H87ZxvCVPv37y/YxcXFCXYwnPXSpk0batWqFeXIkYPOnTtHs2fPplOnTjmq5MuXjz7++GMqVaoUXb9+XRyfQ4ceef5woWza9EnYYseOHZ10q44vwm6///57atGiBZUoUYKio6Np8eLFtHnzZjvDS1Wd2DolKfDsLQq8HuW0n19MgmNb4IW7FPc/BSleMzJhXN6b0JaS8kWI+uFfbKbYV16k+OfzEbyQ2UetEdsfdq1KsbVKEIVkocDTNyhswQEKuPzIg5uQHx6XV8nPz0/UDd54nMIWHhD/S4luXobimpXRQkZDKODiXQpdsJ+ynLvtKI+rWIhiXq1AiUVzEGl9zXLsKmX9eiclFMlBUe82pqTsoQTt9yZ1cuyTs88Tz0t0uwoUW+85SsoWonlOYyhk60kKWXtU3wXxv5GPHf0qPg/61Ka4+qVc9ktuNBtfig5qGxKK56L7HzSjsP/dS8E/nxNV0jo+7Kvqf0Lh7BTdqTIllMgljm/A+Tvi+AX+8eT4JOXJSpF/bS765n/zgVa+n4KOPJmYsCq34qPiH1epMMW+9AIla/1KLJiNQhcdFN+TcoZRxOStFPj4HIrqV4fiqxQlv+h4Cl18kGJeKUehy36loP9ecYU4xTYrvlZ87PQPYcMhKw9TXNMylKj9VvzvRWvn/wGNn72+ieOv+P2kGJBuA65PuN7julOoUCE6fvy4VfUUZXaur7169aKGDRsKIxb6cX29cOGCQxe8pZ07d6bixYtTTEyMeOicNGlSirawAffJcePG0YwZMwgPrRCr6/f06dOpQIECot7YsWMJUTrlypWjy5cvEzy27orq+m/n+o57Le4hYAnP4fr168UxgWB/3A9eeeUVKliwoLj/g9+vv/7q6LrV+FHJjC94496P+x4EeqUY72OOAsM/dvqnOv5m47fbv7/85S8E4+Thw4e0bNkywRL3+V9++YXsHH8VP7P+mTHx9HZvjs/O8bMznqSkJEo2mUTEcYHHEoLnKxiYOCelcYnveCbDM0/t2rWdjEvV9UVVnh7H/2mfH3aOD9fJHAQcxiUMxYsXL9LLL78sbhhSKlWqJG6QEPzw9u3bJy7s+IG1bt2ahg8fTn/+858d9XGhx8USxiiMkHfeeYeOHj0qDFF39CMMATPVHTp0EDe1N954Q6wbPHnypLjZu6tfDsBb/bdzuvTr1094ZrFuJzIyUhiaMoQD+7dv314Yll9++aV44AGTUaNG0euvv+7EHw8z4IIwEBj63bt3F+XTpk0THxiv2M8odo4vbr7jx48XEwq1atUi3Ex+++03unHjhlFdiu/x2kP/gzfrUKBmzGWd8WjG72GnSpRFe3DO8vt1p/owcoLXpzSqUiiFl+SRLUjZR6wSxTBCHmqGUsj//ZciPt9MMBohUb1qUULpvJR12k/CcMODe+Twlyjn0OWiPFAzQnO9uUAYdlH9U65dRX0YBGFz9lDApXsUV70YRWlrDHO+82+xf7xmsES904hCfvydQufvI/L3E4aE0K0ZohEfr6ekAtkpSmszYvRa8rvvHBYLQzmmeVnKOnUb+d+IoiTNywkdrsTIx45+FZ/w2XsIn7jyBemBi7WTVuMz9jExRyhFDdZYrD3iMCzdGR/0q/oPgyzo10ua4XaA/OITKbZZWYrSQqlzfPDovICOmNblKWzuzxSuTVzEamtLHwxqSEEDlzi6b1VuxccO/4T/KURZx6+nOG3iJFr7HWSdsIFi6z5Hsdq5DuMyakA9zWjLRhGfbCC/hCR62L06JWqTEnZFxVfFR9U/wa9DJcr62Y/itxJbp4TGr4ETP6u+qn4/VvuiDNcZXP/1xopqH3256vo6cOBAKlu2LH366afiHoPr7ejRowkRMxBM2CGEbu3ateL+hkkoXK9dSa5cuejDDz8UBoQ0LFXXb7QPwUMmDMGlS5fSmDFjhCHtCVFd/9GG1fUdD9YwbiZMmEDXrl0jeOn8/Z3TNnTr1k0wg0HcqFEjev/99x33H9X4rfj+8ccf9Ne//pUKFy4s9OO+g3tkasWqf6rjbzV+O/3DMcUk+UcffSSepfAMA6NUiur4q/hZ9S+1nNJS39vjQ5+sjl9a+qzaB4aoXmBQHjhwQHyM66tV1xdVubeP/9M+P1SsuTxzEXC6MyC2XJ+QBzM2uAjCOITcvHlThBVgZgeewnnz5lH+/Pkds4mogxs/ZnVQjvAC3IDhtYS4ox83HhhMMHa3bXsUsojQBfQP/cJN3h39ooOaeKv/Ur/VX1y4vvvuOzFO3Lzxvz4ECDPZc+bMEZ7I27dv0+rVq4V3Eka8lJ9++ol27doljL0FCxbQ/fv3xSSAXrDNldg5vvBCS0/1zz//LDys+hukK71yW0y7ihQxfTsFHr5MkcMeeVATyhVMYVjGl8xFSVoyENVayhjt4TahTH7KcvCJZ0G0lZiakprRAAAgAElEQVSkeRXvCK8fBA/CkLi6JYUnK8vpmxSgGW/h8/aSn2acxjR+XpRLgeHpp63pNEr0yy9SmOZxgqcrQFuXGLrpd+H9imlcWlSNbfK85g29KerAm5nlzC2nMSB81y8yWtSF1wff8XGIFuqrTakKwzLg9kPKcuomZTmR0mg346PULxsy4SOL/aJcr7VUjQ/7gyckakgjMWkQuvqIY3gIZXZnfA5FJv0Hs+CfTgnPNliEaSHVyXkjNG9xiGPXIC2sOnj/eQq4pXktlx8ijDVG80RLUZWjnhkfJX/tvMIxDTh1g/zuaMdXO7aBF+5Qsua9hMRVKya8lPDIB1yJpNAlB8kvIBU51xR8lXwU/UMfg7afdvyegnefI3+No56fGIiJqH4/Jrs5NiMKA9efBg0aCO8i1t1h7b1dUV1fESqHidPff/9dXH+//vprwsMlJlwh+HvixAmaO3euiBbBddq4Hks+jMIQgjcKxqUUO9dv1MVaMHhN5CQvDDVPitn1H21YXd8x0QmPD+7/uFfAsyufDWT/MAEs+4v7NO5P8v6jGr+KL54p4A2F4C++45Maseqf6virxq/qH85Z3NNPnz5NV65cEZ5eo3GOsZgdfxU/Vf9Swyktdb09PvTJ6vilpc9W+2ByBEuv9u7d66iGZGJwsODcR+QCrilSVNcXVbnU463j/7TPDyvWXJb5CGhPe09kzZo1wguGmVLcIGrUqOGULAchKfCCVahQwWmtC4w8KfoQTWyLiooSIUYQd/RjbQ1uikFBQUInBNvwA8cFGn/d0S8UauKt/kv9eEDKmTOn/Cq8gFgDAwMN44AHVor+fzxEIawCIcFyhgv1cMGAge9qH2zDjKq+3FHRxT92jq/xQQcL3/XeVRdqHZuSw4PEQzM+EITZwRgwSlyD0pRl7x/GzeJ7bINSmrenJPkFaaeu5vkLQ1iqCwPM6AlNKJZTrHU0hvAhZDKx0CPvossGH29MzKmdw5pH80HvWvTgjZqOqghzTMr7aN1XcsHsFHjK2QNrpdNYFnTgAsW/WIAi/9GagrUkRcHrjgoj0yhWfIx1zb4b+ZjV02+3Nb7YeIr6c30Rnhw+Zp2TWk+Oz1X/YURGd6xE8WXzU3K4lrThcehTkmZ0SRMtUAuV1QtCm+Xxw3ZVuR1OZnX8HxvtfonJjkkGTIQkB/qLMF0YkgGXniQpgZFpFr7lqg0VXys+0GfVP9keJlP0EqAZ8np+rvqFbXZ+P2b76rfDm4drGkIvs2XLRhMnTnR4Fq32V11fMQGKiTyjVxQTadI7Ca+ZKhQXIbtIDIKwUET1SLF7/Zb1jxzRTcpYDczDZVbX9z179lDFihVp8uTJwqheuXKlMDL1YoxggSGK+4+d8dvh6+5wzfpn5/jbGb9Z/+CxxPmFSQMp8I6beV+Nx98OP3f6Z9Zvu9vTY3zoi9nxs9tPVb1mzZoJBwueM3Fs8LwmJ1Dw3ItnWRiXEHgv69SpQ+Cuur6oyo398sbxf5rnh3F8/D3zE3AyLjFc/HAwgwevF9YGfPHFFw4KQ4YMEetdkKZa3lSWL38UUigrwcizkrTqhxETEREhQmtfeOEFccPCmkv8hZEp+5NW/d7uv9QPdgEBTxK6yPU80kOZmJjohE9+lzOceJiSawJkRcwOmwk8x3YfUO0cX3gq0yrZxm9w7Bqy84zm1XuyVlevM65GMcqqrUNzJUEHzlPoyt+0+Lx4Z6+fsbLR82iWYwTrKx+vsTSqcPr+OPwr67TtmmfR2fMb8PiBOzlA02XWjqXyJ4Xh3+8TYbUxrf+HIj9pS6H/+zOF7Hoy4YCaVnxsNqNZ6Sk9s6p97YwvQTOOA7UQZ/9bD+mhtv4xTPPE6cVj43PR/wd9tUx/2nkR8ekmh1GOV2NYCo691TFTlVsqNxQmPPlt+yUYGtWVOe2VyuQ4VnyVfKz6JzuVxdmTKs4JO2Lj92NHjayDhG4ITUUqf6xLNHrQjLpU11djffkd10+5BhvXbdW1FJE1eDDEQzDyE2CNOiS112/VfdSsv+5uV13fsRQFYcFYPoIwW3jftm7d6mjWmGxH3uvsjN8OX3fHZ9Y/M7364486qvFb6XFVZsbbePzt8HOnf676lppt8jdi3MfT40vt8TP2R/Udbx7AumHwN3rF4XmE0al/5kXkHER1fVGVG/vlreOf1vPX2D/+zgRUBFLEXGFGElmwkIwAN1L9TO2LL75IK1ascBhymK1KraRVPwwqtIeHiVdffVWsPUTiGswO60OP0qrf7jjc1Y+ZYRiU8iPbRagMeCNphRTMmMubMx5W4LFFwh4Yk/qPvu/GEFUwQ4iXHfHE8bXTjlUdrONCWCrCB12J30PNqIT3Ux9O6qqiYZsIP4xLoLgKBZ1K4NGUCX2s1CCM0u9BrOalCScYk/qP3A+v74AHykpk2GhylhTzOo7dML7wWbsoRDPMYjRPnF6UfB4bI1b6rfpnVWZnfHhNR4S2phX9j21RVkuolDeFSnfGl0KZbkPCC/ko5D9PvL1IYGOUhMLOaxgTtTr6yQJVuVGf8bud42vcB98DtTW8yZoXE+ejFKwVTlVY7OMdzfja4eOqb/ptiYWcmeI7wrhVYuf3o9KByU4kvMGDNh7y4GWAGL1trvSorq+IEsGDsPGdwvBoYUITgusolmdYCR5IsSZxypQpYn0irqkQu9dvK92+UgYeGB9yK8j1/LJvxmcC3M/Azc747fCVYcd2o2WMzMz6Z+f4S11W4zfr3/nz5wkTxSVKlHDqkj6KydhX/Xc7/Oz0z6oNd8rSa3xmx8+dvuv3hcMCE1dGwxJ1YFzinMd6X3ywnhhGI65LquuLqlzVf08ef6vzV9UPLmcCdgmkeMKFqx8JehDfj7V7eoF3sF69euJGgbCf3r17223HUS+t+jGjhAXRCH3FwnEp2KaXtOq3OxBv6ofXFS/iRjgGPLXgi/h7KcjKh3LMah07dkx4cjFTjv3kAxbWPWDmHOG9SOiDOphp1otM3583b16nMBNPHF+7HM3qIblJ8A7XHk2zfVJs18ILk7H+zCDQG92tupaJczf539US+rQsS8la3ZAtj9ZmGusbvwdrWVuj/1RFeP0CT1yn5Kza61KwZvTXi2IdGvRHDXuJHnaoSEHauj54RBNK5qaQbU9Cf0VIsLZ/bLMXKGTdMUoKCnBkv42rXFg06a8ZGvAHJZTSEmYYwhBVfKz0O8ZjwkeWJ2cNEv8m5tYMac2olmJnfH6acQlBeGnImiP0oF9dyvH+SrHNE+MTikz6j/V/8TW1yQntb5JmmEV3rSaq6yVeS6YTp3lWA849SuiDYxjy4wlHFVU5KprxQZkt/s5dcnwL3n2WYv5fVW09rxb9oXlgo7tUFQanXVHxtcNH1Vaclmk5C9Yca5M1sQ1Li99AiLb22EmyPI7MkH8fF6p+P6q2YfghoY704sBj+dlnn9l+36Hq+opcAXgPHhKmYU0fXlmAh8d16x6Fd2O9F5LJIKkI7kfw1pQuXVrkIZAi1wTCWIGHA9EgAwYMEMV2rt+ohzblUhIVk7SUm13/VbqwTAYCQwJSpkyZFGGKWA+LnAAI/5T3H9yzIarx2+GLB3/cGxEWjbBcGJnGSB7RmIlY9U91/O2M36p/SOwEbzbCYTFRjPPI6IlDt82Ov4qfnf6ZYPHIZm+PD520On52B4Hrh5mn1UwHEn3hWUrvyEDdgwcPisSKWNqkur6oymXb3jr+T/v8MGPL2zMngZRP4No4sRAfWfnky2Xl0HHTRRIFLLyHMYOwJGMdO5jSoh+poLHWBrNFCDVC+1iHgDUgxqQKadFvp9+yjrf0Y8YbL+jFAwyMSiRMwjpLKbi5wLBEdlzM4CMkA55lmY0Q9TCjjJAlPPRgJhiZD6V8/vnnIrmSvLAiYQXagV4kX/LU8U0NS33dRC2JT4Lm6co6c2eqVWBNV+THr4pXUEBiNCMwumNl8eAbpmUPhSBk8OH/q6xlEG1AFKat/9QSq0R8tsl2W6GaV8xP835Ga68aScqXVbwuAh7WoMev2cDrUMKnbBWvIonVsr76IfHMyRtOxqXoh+bVi26r1WnygvZuBi2MU+sDPFcwRrFmUKxh07KdBmoJgZCZVopdPq70+z2MU/K59/dXKBFrUxEKqknkZ+2FcQMjMUx7t6jd8cn+hq76jeK1V3AgHBN9cmd8do4vWD3sWVMkWMLrZ8K0jL3I3quXMK0fMa3KC6MfHjdkDrZbruIj9bji79SIyRdko0XG2Psjmj96FYl23iZo60dti+L8scNH1RaOaYyW2AoTH5h4CNcSdEmJ/LAFJcJz/9ioFL9HzUgOWX9MhLKrfj+qtr/55hvCBwnMcB3D9Ss1orq+ImQMk3dYMxkeHi4S++gzQuIehDXyuP4iegbXTlx/9calvj9LliwRXg1c03Fdtrp+4142depU8X49CIwQeAVhmCGJmydEdf1XtYHrAvqEpSgYO5Ib4Z6hF4QUwiiH4YnoGhj/UqzGjzp2+WLNJ16p0LJlS7FMB5nP9a+LsRqHVf9Ux9/O+NG2Wf9wDsDjNU7Lvo97N55b5BpCO8dfxc9u/6z4uFPm7fGhb1bHT9V3THZgwl7+xvD7xJpqO8+w8Frq33Up20ICLGT1h6iuL1bl6XH8n/b5oTo+XJ65CPhpYSspVhzhFRP4EcoZV08P2R39nTp1EinO8WO8d++eyOSF7H16cUe/nbF6W7+dPnAd7xK4r71GAxllje+59G6rrJ0JOBO483VXCtdeTWP3PZfe5IcEXKFaht3gPee82YxSNzI2YlIRk5ssvkMA6y+RqwEZy31RfLF/eHZBXgu8ZsdXBBMi8Az/4x//cLtLnhyfLx4/twGxAiaQSQm49FwiA5beG+bpsbujH2EJxtAEY//c0W/U5eq7t/W7apO3pS+BZC0zrN/jF9unb8vcGhN4QkAmkFElJgqdpyV+2poy87LHWdrM3+PxdnUKMaGofz2AN9ti3akjkNpww9Rpd7+2L/UP70JFxmPpvXR/dL6lwRvj86Xj51u0uTdMwLcIpDAuq1WrRvDMvfPOO17pKev3ClZW6gEC8S/mJz9tjSMSnySUyE2hj8NpPaCaVTABtwhEjFxtub8Iq2ZhAkzAZwn07dtXrNHD8h6EXb/xxhsitDg1a0Z9dnBaxzL7+HyZPfeNCfgaAYdxiXccIuwAawGwrsX4/ip3O8763SXI+3uTQGKuMHrQqxYl5QjTkv08FOv1zDLWerMfrJsJuCLAxqMrKryNCWQcAkjkA4MSGd/xnIWkfDNmzMg4A1D0NLOPTzF8LmYCTEBHwOWaSybEBJgAE2ACTIAJMAEmwASYABNgAkwgNQRSvOcyNTtzXSbABJgAE2ACTIAJMAEmwASYABNgAiDAxiWfB0yACTABJsAEmAATYAJMgAkwASbgNgE2Lt1GyAqYABNgAkyACTABJsAEmAATYAJMgI1LPge8SmDRokVUpUoVr7bxNJWrxqcqf5p9z2xt44Xty5cvd3yQOEMvqvLMxoPHwwSYABNgAkyACTCB9CaQ4lUk6d0Bbs+ZwN///nc6deoUbdq0SWSS69evH926dctRqWXLltSqVSuRcS4yMlKkMv/8888Zo0agefPm1KdPHwoODhY8EhIS6MyZMzRixAjxfdiwYVS3bl3xf2xsrEgBv2rVKtqyZYvYJmXw4MGiXteuXZ228xci1fn5NBkNHz5cNF+oUCGaNm1aiq6oylPswBuYABNgAkyACTABJsAEUkWAjctU4fJ+ZRiMDx48oGvXronG9IYl3j8K42nu3Ln0+++/U0REBJUuXdr7ncogLWzcuJHwadu2LTVu3Jjee++9FD3fvn07LVy4kEJCQoRH9e233xaMDx8+7KhbvXp1cQzq169PO3bsSKHjWd5gdX76CpekpCTLrqjKLXfmQibABJgAE2ACTIAJMAFTAmxcmqJ5OgX3798nfCDR0dFOnXjxxReFp3Lt2rWO7b/++qtTnTZt2gjPJt4reu7cOZo9e7bwhEqpWrUqde7cmYoXL04xMTHCqJo0aZKjvFevXtSwYUMKDQ2l48ePi/0vXLggyvEe1O+//55atGhBJUqUEP1bvHgxbd68WZRnz56d+vfvT5UrV6a4uDiaP38+xcfHO3QXK1aMevToQc899xyFhYXR2bNn6dtvvxXeRcj06dOpQIEC4v+xY8dSu3btqFy5cnT58mWaMmUKffLJJym8iR988IEwDmfNmuVoB8ZDcnKy47v+H7xfTL60GnxgYIKJNC7xHX3GmGrXru1kXKrGpyq3Gt/QoUNFN1XHr0uXLtS0aVPBGu8VW79+Pf3www+OIarK3dVvdX7KTnTq1En0cdCgQS6PgdlG1fm1YMEC+te//kV79+51qFi6dCmNHz+efvnlFzO1vJ0JMAEmwASYABNgAkwgnQiwcZlOoO02c/78eYfxo3+Ixv6XLl2iJk2aUP78+R2eTb3e9u3bC8Pyyy+/FAYhQjtHjRpFr7/+uqhWqlQpESIK4xTGmJ+fHxUpUsShYuDAgVS2bFn69NNPheECfaNHj6Y333zTUQfGJx7mYRDCk/qXv/yFfvvtN7px44YI4YU+hE7CwwVDU4aoQgEMu3379gmDFQZc69atCaGKf/7zn4V+tA+BEQaPIgyHMWPGiDBHGJgXL16kl19+WRhUUipVqkTjxo1zfE/tP0YvFgzKAwcOiA/GoRfV+FTlVuNDO6rjB8MXxuGECRPE8c+TJw/5+z9ZNq0qd1c/+mh1fkpWiYmJIiQ5LWJ1fqVFH+/DBJgAE2ACTIAJMAEmkH4EOKFP+rG21dKGDRvoyJEjou7kyZOd9kHI59atW+mf//wnvfXWW8LI1As8fXPmzKFDhw7R7du3afXq1XT9+nXhaYTAMIPnE2G18GaePHnSab0hQklh+CHkFsbL119/TTC+sJ+UnTt3OjyNP//8s/BQwgsKgWH23XffCb3YH/8HBj6Zv7h586YIW4XnEN7GefPmiTHAy6oXGCbwKkojEoYlBGsjYVxLgccRBuvRo0ed9rf7pVGjRlS+fHknT1jNmjWFAQyvLTy7GJMU1fhU5VKP2fhUxw+GOjyy4AeW6KN+7Kpyd/Wj/1bnpxzfihUraMiQIXYPg1M9q/MrTQp5JybABJgAE2ACTIAJMIF0I8Cey3RD7ZmGYDyuW7dOrCtEiCAMMBiLuXPnFqGSCEWUHjK0CINDGqGFCxcWBokrKVmypDAEjWG28FDqvZvS0JM6kBgHbcDAhBcNoa5S9P9jG4zI7t27U4UKFShr1qyOelj/aBRpYOu3r1mzRnhhpSezRo0atHv3buOult+bNWsmDNSgoCDhXUVYrjTQ0C+EA8O4hMB7WadOHdqzZ49yfHbGr++YcXx2jh/6UbFiRTHpAEN75cqVwsiUYlXuCf2WYD1UaHZ+eUg9q2ECTIAJMAEmwASYABPwIgE2Lr0I11uqr1y5IryKCG/FesmDBw8StkEmTpzoCKuV7cN7CQkICDBdi2jWV4TO4iMFnkpXIj2UCInUi/47vFlYpzly5EiHUYRXR7gSeA1dCQw/eFix/g6Jd7744gtX1Uy3wRjFOlHo1ydLwg7wPMLo1PcJnlGIanyqcmOHjOOT4a1Wxw86Zs6cKY57x44dRUZUrFOEN1uKWbmn9BvH4envZueXWTs4p1mYABNgAkyACTABJsAEfIMAG5e+cRzS1Ausq4SxBo8lEtJERUWJV5ToM5/qFSNUFesuXQm8jHiwx7o9fXIUeDRhvKrk9OnTwnBF0p47d+6I6vB46h/+kZAIa0Clt61o0aIqtSnK4bHDGlB46dCemSc2xY6PNyALLNauuhIYl0hCJMeLvmM9J4zY/fv3W47PzvhdtSm3Yc2q6vjJulh7igRHOGbwBOuNS9RxVe5J/Vbj8GYZvOTwLEtBYigWJsAEmAATYAJMgAkwAd8hwMal7xwLZU+QkAWGEYxEeKJeeukl4VGTBhayhvbs2VN45Y4dOyZeVYKEN/D2Idzwxx9/FAl6unXrJsJJ4ZHEq0ywDhKCDKl41QkSAsFAROgt9CMM146gHbSPcFMYAr1793ZK7AKjsl69eiL5T8GCBUW5K0GbeiNCXwehqkgAhPWDu3btcrW7YKP3trqsZNiIREbgtWzZMqcSGJpIjATjUjU+VblUbDY+1fFDGDAESXUgZcqUESylqMrd1e9oSPEPssUi43Ba112aqUeINtYPY01wlixZRIi0q8RB8D5DUMeVqMobNGgg1jRjIsQY2u1KH29jAkyACTABJsAEmAATeESAjcsMdCZgbSOMN2QJRbgpjAxkbpUGBowHGJZ41Qhe6YGQThieeLcjBB5N1Ef5q6++Kh7MUS6NS4RUQv+wYcMoPDxcPMQbM6Za4UIW08GDBwsDFrqRsAdeVSkwWvHQjgRBMHaRsRbZayFYEzh16lTx/kkIXlkCrxzWWWKdqV62bdtGHTp0cOwry5o3by4MVqljyZIlIvmQbMNJieELvJauPL5IMIOstxDV+KzK7YxPdfxgMIMJ1tCCL5IzgakUVbm7+q346cuModR291PVQ7IprCdGKDgmMBYtWuS0dhevqoGnXRqPOJ/g2V+1apUIhVaVy/ahA9mM2bBUHREuZwJMgAkwASbABJiAMwE/LYzR9QsBmRQT8FECeAUKjMgBAwb4aA+5WxmZACZUEFqMZE8sTIAJMAEmwASYABNgAvYJ8KtI7LPimj5CABlcpTfWR7rE3chEBLAuedOmTZloRDwUJsAEmAATYAJMgAmkDwE2LtOHM7fiIQLVqlUjeC7lOzA9pJbVMAEHAazl/OOPP5gIE2ACTIAJMAEmwASYQCoJ8JrLVALj6k+HAN6RidduYB3pN9984/R+x6fTI26VCTABJsAEmAATYAJMgAkwAT0BXnPJ5wMTYAJMgAkwASbABJgAE2ACTIAJuE2Aw2LdRsgKmAATYAJMgAkwASbABJgAE2ACTICNSz4HmAATYAJMgAkwASbABJgAE2ACTMBtAmxcuo2QFTABJsAEmAATYAJMgAkwASbABJgAG5d8DlgSwIvqq1SpYlpHVW66IxcwASbABJgAE2ACTIAJMAEmkKkIcLZYHzuceIH7qVOnxHv2ZsyYQf369aNbt26JXjZv3pz69OlDwcHB4ntCQgKdOXOGRowYIb4PGzaM6tatK/6PjY2lq1ev0qpVq2jLli1im5TBgweLel27dnXanhm+WPHzxPhU+osVK0adO3cmvIvz3XffpQsXLohmCxcuTFOnTnXZhdWrV9Ps2bMpd+7c1LNnT6patSr5+fnR8ePHadasWXTt2jWX+7na6E77rvQZt3Xr1o1eeuklCg8PF/1DBl+7/bMzPhVfY3/4OxNgAkyACTABJsAEmIDvEGDj0neOhehJZGQkPXjwwPHALg1LlG3cuFF82rZtS40bN6b33nsvRe+3b99OCxcupJCQEOFxfPvtt4VxevjwYUfd6tWrizbq169PO3bsSKEjI2+w4ueJcVnpb9q0qTD+N2zYkKKpS5cu0ZAhQ5y2w4CEMXX69GmxvXv37pSUlEQTJkwQEwcw5DBhMHz48BT6XG1wt31XOvXbcN69/PLLNHPmTLpx4wb16tWLPvjgA5fnoStddsZnxdeVTt7GBJgAE2ACTIAJMAEm4DsE2Lj0nWMhenL//n3xgURHR7vsHQyQ5ORkl2V4DyQ8lpBz584JAxOeMGlc4nt8fDxt3ryZateu7WRcZs+enfr370+VK1emuLg4mj9/vqgrRVU+ffp0KlCggKg+duxYateuHZUrV44uX75MQ4cOFdvbtGlDrVq1Iry3Ev2Dxw6eWildunQhGElo6+7du7R+/Xr64YcfbJfb4depUyfRxqBBgxx67f5jpR9MDx48KPrdvn37FCqlF1MWwMj39/enbdu2iU1Gzyb4T5w4MYUesw3utm+mV25v2bIlzZ07l3bt2iU2FSxYkMLCwsQxPnr0qGp3W+Oz4qtsgCswASbABJgAE2ACTIAJPFUCbFw+VfwpGz9//rzDONy7d2/KCqncAkNULzAoDxw4ID7wmukFIbhFihQR2+FBgqEpQ3BRT1U+cOBAoQ5GJjymS5cupTFjxlChQoXEdhhcMCy//PJLES6K0NxRo0bR66+/Lsph+ML4hOcOoZZ58uQRxpcUVTnq2eGXmJgoPINpEZV+GJZ2pXXr1sITbSbZsmUTRn5qxJPtG9vFxMGRI0fE5gEDBtBvv/1GoaGhVLp0aVvGpVGfq/Gp+Bp18HcmwASYABNgAkyACTAB3yHACX1851iIniCkUj7AT5482a3eNWrUiMqXL096I7VmzZq0b98+sV4uJiZGeC+l4P/vvvuOTp48KYw7/B8Y+GT+QVUu9cBwg1cSXkcIPJcQeDLnzJlDhw4dotu3bxPWGl6/fp1atGghymHIwiMLz+vNmzdFH/UeMVU5dNjht2LFihQhqqIDNsSOfhtqqGjRouLYSEau9unQoYPDq+mq3J1tdtrX68+fP7/4inDYsmXLiokBHMs7d+4IL3NaxNX4PMU3Lf3hfZgAE2ACTIAJMAEmwATcI8CeS/f4+dzezZo1oyZNmlBQUJDwPn777bcOA61ChQrC0wTjEgLvJRLP7Nmzh4oXLy68hGfPnnWMSf+/qtwIQhrIcjuSucAIQSiq9HCiDAajNFzQj4oVKxKMaiQhWrlypTAypajKjX3w5e/w0MLo16+p1fcX6xnz5s1LI0eO9MowVO1bNQqP9oIFC0T4LyYDzEK0rXR4e3xWbXMZE2ACTIAJMAEmwASYgHcIsHHpHa5PTevu3btp8eLFwitpNFzgeYTRuXz5ckf/sEYTIj2UCBnVi/yuKjcOGO3rRYa3Yg2hXBMqy+G9lIJkMWvXrqWOHTvStGnTRDbSrVu32i439sNXvzds2JDGjRvnsnuvvfYaNWjQgD766COX5Z7YaNW+K/0yI7w+W3kAACAASURBVCwMS2QiXrdunaiGtbPSM+1qP1fb0mN8rtrlbUyACTABJsAEmAATYALeJcDGpXf5prt2ZIFFZlJXAuMSSWKQdAYSEBAgDBwkltm/f7/wQOFVFgh1hGD9JepAkNHUqlxUshCEU0ZFRVG+fPmcMte62uXixYs0ZcoU4UVFhlG9cYn6qnJXOn1pGxIKwcA2enfRR2SbrVWrljAsr1y54pVuW7Vv1SDWycIz/v777zuqIUQWr7uxK+kxPrt94XpMgAkwASbABJgAE2ACniXAay49yzNdtMELiNdYpEZgBERERNCyZcuE0YYPsrTC0JTvxkS4LN6zWLJkSZGEp3fv3k6Jb1Tlsj/wciL81ijI+gr9eAUKwmRLlCgh1mHKhD81atQgfBAmi0+ZMmXEGj8pqnJje2bfYVy5u57VTLed7ci6+p///CdFVSTJQRZbrGVEFtZSpUqJDwxyvaD/ML7TKmbtS31m+rE+FB5pZInF+fThhx/SvXv3UiTzMdvf7vhU44JXF+uBcZ6yMAEmwASYABNgAkyACfgOAfZc+s6xUPakefPmwuDDOywhS5YsoTNnztCIESOU+8JrqX/Xpdxh586dIissBFlaBw8eTKNHjxZG5bx585yStViVw1jEqzRk33r06CG8jmvWrBHGEgTGJYyTzp07i1eWICQXSXvwbk4IDGbsA8MS7Z84cUJklpWiKndUVPwDPak1zhUqRTH6PWnSJEdVhADD2wtukn29evXEOlNX78KUiY30nkEow/pT/WtKzPrvbvuy42b6Ea6MMFhkDcYYcOzGjx+fAo3Z/nbHl0KhYQOMSrwiR78mWLUPlzMBJsAEmAATYAJMgAl4n4CfFgbp+oWJ3m+bW2ACTIAJpJoAXpWD0Ggkq2JhAkyACTABJsAEmAAT8B0CHBbrO8eCe8IEmIANAggV3rRpk42aXIUJMAEmwASYABNgAkwgPQmw5zI9aXNbTIAJMAEmwASYABNgAkyACTCBTEqAPZeZ9MDysJgAE2ACTIAJMAEmwASYABNgAulJgI3L9KTNbTEBJsAEmAATYAJMgAkwASbABDIpATYuM+mB5WExASbABJgAE2ACTIAJMAEmwATSkwAbl+lJm9tiAkyACTABJsAEmAATYAJMgAlkUgJsXGbSA8vDYgJMgAkwASbABJgAE2ACTIAJpCcBNi7Tkza3leEILFq0iKpUqWLab1W56Y5cwASYABNgAkyACTABJsAEMhmBwEw2Hh5OBifw97//nU6dOiXeYzhjxgzq168f3bp1S4yqefPm1KdPHwoODhbfExIS6MyZMzRixAjxfdiwYVS3bl3xf2xsLF29epVWrVpFW7ZsEdukDB48WNTr2rWr0/bM8MWKnyfGp9JfrFgx6ty5M9WpU4feffddunDhgmi2cOHCNHXqVJddWL16Nc2ePZty585NPXv2pKpVq5Kfnx8dP36cZs2aRdeuXXO5n6uN7rTvSp9xW7du3eill16i8PBw0b+vvvrKdv/sjE/F19gf/s4EmAATYAJMgAkwAV8iwMalLx0N7gtFRkbSgwcPHA/s0rAEmo0bN4pP27ZtqXHjxvTee++lILZ9+3ZauHAhhYSECI/j22+/LYzTw4cPO+pWr15dtFG/fn3asWNHCh0ZeYMVP0+My0p/06ZNhfG/YcOGFE1dunSJhgwZ4rQdBiSMqdOnT4vt3bt3p6SkJJowYYKYOIAhhwmD4cOHp9DnaoO77bvSqd+G8+7ll1+mmTNn0o0bN6hXr170wQcfuDwPXemyMz4rvq508jYmwASYABNgAkyACfgSATYufelocF/o/v374gOJjo52SQQGSHJyssuyhw8fCo8l5Ny5c8LAhCdMGpf4Hh8fT5s3b6batWs7GZfZs2en/v37U+XKlSkuLo7mz58v6kpRlU+fPp0KFCggqo8dO5batWtH5cqVo8uXL9PQoUPF9jZt2lCrVq0oR44con/w2MFTK6VLly4EIwlt3b17l9avX08//PCD7XI7/Dp16iTaGDRokEOv3X+s9IPpwYMHRb/bt2+fQqX0YsoCGPn+/v60bds2scno2QT/iRMnptBjtsHd9s30yu0tW7akuXPn0q5du8SmggULUlhYmDjGR48eVe1ua3xWfJUNcAUmwASYABNgAkyACTxlAmxcPuUDwM07Ezh//rzDONy7d6/beGCI6gUG5YEDB8QHXjO9IAS3SJEiYjs8SDA0ZQgu6qnKBw4cKNTByITHdOnSpTRmzBgqVKiQ2A6DC4bll19+KcJFEZo7atQoev3110U5DF8Yn/DcIRQ0T548wviSoipHPTv8EhMThWcwLaLSD8PSrrRu3Vp4os0kW7ZswshPjXiyfWO7mDg4cuSI2DxgwAD67bffKDQ0lEqXLm3LuDTqczU+FV+jDv7OBJgAE2ACTIAJMAFfIsAJfXzpaHBfREilfICfPHmyW0QaNWpE5cuXJ72RWrNmTdq3b59YLxcTEyO8l1Lw/3fffUcnT54Uxh3+Dwx8Mv+iKpd6YLjBKwmvIwSeSwg8mXPmzKFDhw7R7du3CWsNr1+/Ti1atBDlMGThkYXn9ebNm6KPeo+Yqhw67PBbsWJFihBV0QEbYke/DTVUtGhRcWwkI1f7dOjQweHVdFXuzjY77ev158+fX3xFOGzZsmXFxACO5Z07d4SXOS3ianye4puW/vA+TIAJMAEmwASYABNwlwB7Lt0lyPv7FIFmzZpRkyZNKCgoSHgfv/32W4eBVqFCBeFpgnEJgfcSiWf27NlDxYsXF17Cs2fPOsaj/19VboQgDWS5HclcYIQgFFV6OFEGg1EaLuhHxYoVCUY1khCtXLlSGJlSVOXGPvjyd3hoYfTr19Tq+4v1jHnz5qWRI0d6ZRiq9q0ahUd7wYIFIvwXkwFmIdpWOrw9Pqu2uYwJMAEmwASYABNgAt4iwMalt8iy3qdCYPfu3bR48WLhlTQaLvA8wuhcvny5o29YowmRHkqEjOpFfleVGweL9vUiw1uxhlCuCZXl8F5KQbKYtWvXUseOHWnatGkiG+nWrVttlxv74avfGzZsSOPGjXPZvddee40aNGhAH330kctyT2y0at+VfpmxFoYlMhGvW7dOVMPaWemZdrWfq23pMT5X7fI2JsAEmAATYAJMgAl4mwAbl94mzPrTlQCywCIzqSuBcYkkMUg6AwkICBAGDhLL7N+/X3ig8CoLhDpCsP4SdSDIaGpVLipZCMIpo6KiKF++fE6Za13tcvHiRZoyZYrwoiLDqN64RH1VuSudvrQNCYVgYBu9u+gjss3WqlVLGJZXrlzxSret2rdqEOtk4Rl///33HdUQIovX3diV9Bif3b5wPSbABJgAE2ACTIAJeJoAr7n0NFHW53UC8ALiNRapERgBERERtGzZMmG04YMsrTA05bsxES6L9yyWLFlSJOHp3bu3U+IbVbnsD7ycCL81CrK+Qj9egYIw2RIlSoh1mDLhT40aNQgfhMniU6ZMGbHGT4qq3Nie2XcYV+6uZzXTbWc7sq7+5z//SVEVSXKQxRZrGZGFtVSpUuIDg1wv6D+M77SKWftSn5l+rA+FRxpZYnE+ffjhh3Tv3r0UyXzM9rc7PtW44NXFemCcpyxMgAkwASbABJgAE/AlAuy59KWjwX2xJNC8eXNh8OEdlpAlS5bQmTNnaMSIEZb7oRBeS/27LuUOO3fuFFlhIcjSOnjwYBo9erQwKufNm+eUrMWqHMYiXqUh+9ajRw/hdVyzZo0wliAwLmGcdO7cWbyyBCG5SNqDd3NCYDBjHxiWaP/EiRMis6wUVbmjouIf6Emtca5QKYrR70mTJjmqIgQY3l5wk+zr1asn1pm6ehemTGyk9wxCGdaf6l9TYtZ/d9uXHTfTj3BlhMEiazDGgGM3fvz4FGjM9rc7vhQKDRtgVOIVOfo1wap9uJwJMAEmwASYABNgAulBwE8LA3T9wsD0aJ3bYAJMgAkwgVQRwKtyEBqNZFUsTIAJMAEmwASYABPwJQIcFutLR4P7wgSYABNQEECo8KZNmxS1uJgJMAEmwASYABNgAulPgD2X6c+cW2QCTIAJMAEmwASYABNgAkyACWQ6Auy5zHSHlAfEBJgAE2ACTIAJMAEmwASYABNIfwJsXKY/c26RCTABJsAEmAATYAJMgAkwASaQ6QiwcZnpDikPiAkwASbABJgAE2ACTIAJMAEmkP4E2LhMf+bcIhNgAkyACTABJsAEmAATYAJMINMRYOMy0x1SHhATYAJMgAkwASbABJgAE2ACTCD9CbBxmf7MucUMRGDRokVUpUoV0x6ryk135AImwASYABNgAkyACTABJpDJCARmsvHwcDI4Abwg/tSpU+I9fjNmzKB+/frRrVu3xKiaN29Offr0oeDgYPE9ISGBzpw5QyNGjBDfhw0bRnXr1hX/x8bG0tWrV2nVqlW0ZcsWsU3K4MGDRb2uXbs6bc8MX6z4eWJ8Kv3FihWjzp07U506dejdd9+lCxcuODU7cOBAqlq1KoWGhtKRI0do5syZdPPmTVEnd+7c1LNnT1Hu5+dHx48fp1mzZtG1a9dsd13Vfv78+cVxr1ChAmXLlo0OHDhAn376qUN/3759qV69eqJ/p0+fptmzZ4u/dsVqfNChat+qnfr169N7773nVGXv3r00YcIExzbV8bHSz2VMgAkwASbABJgAE3CXABuX7hLk/T1KIDIykh48eOAwKKRhiUY2btwoPm3btqXGjRuneNBGne3bt9PChQspJCREeBzffvttYZwePnzY0c/q1auLNvCwvmPHDo/2/2krs+Lnib5Z6W/atKkw/jds2OCyqb/97W8UGBhI48ePp8TEROrQoQONHDmShgwZIup3796dkpKShLGEiYNu3bqJCYPhw4e71GfcqGo/b968wpDEOTJx4kS6e/euMGKlvPbaa8KwRR2U/elPf6IPP/yQ3nzzTWNTLr+rxqdq36VS3cYcOXIIgxuTLlKio6OddrM6Pir9XM4EmAATYAJMgAkwAXcJsHHpLkHe36ME7t+/T/hAjA/OsiEYIMnJyS7bffjwofBYQs6dOycMTBgM0rjE9/j4eNq8eTPVrl3bybjMnj079e/fnypXrkxxcXE0f/58UVeKqnz69OlUoEABUX3s2LHUrl07KleuHF2+fJmGDh0qtrdp04ZatWpFMBTQP3jG4KmV0qVLF4KRhLZg4Kxfv55++OEH2+V2+HXq1Em0MWjQIIdeu/9Y6QfTgwcPin63b98+hcpq1aoJYx88IP/617/o66+/Fsfol19+oalTpzrtA/4wAu2Kqn14VPfs2UPffvutS5UFCxakXbt2CQMOAu7gZFdU41O1r2oH5ww8wUZvsH4/q+Oj0s/lTIAJMAEmwASYABNwlwAbl+4S5P09SuD8+fMO4xAhf+4KDFG9wKBEKCQ+CCHUC0JwixQpIrbDAwRDU4bgop6qHCGREBiZMKKWLl1KY8aMoUKFContMLhgWH755ZfCQEBo7qhRo+j1118X5TCyYHzCc4dQ0Dx58pC//5Nl0apy6LDDD15DeAbTIir9MCxdCQwjiHHCABMBzz33nDAujYKwVRj5qRGz9qGjRo0a9N1334nji2MCI3fBggV08uRJ0QTOt1dffZW+//578R2TEocOHRL/q8TO+FTtq9rImTMnwYDFB8cPzGCc60V1fFRtcDkTYAJMgAkwASbABNwhwAl93KHH+3qcAEIqsRYPMnnyZLf0N2rUiMqXLy+MBik1a9akffv2Ce9UTEyM8F5Kwf8wPmBswLjD/wjjtFsu6+HBH15JeB0h0lMHT+acOXOEwXL79m1avXo1Xb9+nVq0aCHqwZCFRxYGF9Yhoo9Hjx6VapXlqGiH34oVKxyhqA7lNv+xo9+VKhh9Fy9eFCHNUpo1a0ZlypShsLAwV7uIsNlt27a5LEvLRhirMB6xDhdGP86z0aNHE4w2yE8//UQ//vijOO8Qjou+oZ4dsTM+VfuqdmAIf/7552JCAt7XihUriv7rJa3HR9U2lzMBJsAEmAATYAJMwA4B9lzaocR1MgwBGCxNmjShoKAg4X3EQ7g00JDEBYlaYFxC4L1E4hmEShYvXlx4Cc+ePesYq/5/VbkRkDSQ5XYkq0GoK0JRpYcTZTAokeQFgn7AYIBxgyREK1eudCS7sVNu7IOvff/iiy/E+LEmFgLDEUY4jHyj9OrVi7BGEWsyPSGS8TfffOOYvPj3v/9NmGzAObB27VpCMiAYv1iTCY9p69atheFvtobU2C+r8dlp36jP+B1rh+UaZExYIAQW61cRii1DwY378HcmwASYABNgAkyACaQnATYu05M2t+V1Art376bFixcLg0WfDAgNwzMJo3P58uWOfmCNJkR6KBEyqhf5XVXutJP2xWgwyfBWrCE0GgLwXkpB9lQYOh07dqRp06bRV199RVu3brVdbuyHL33/448/6P3333fq0rx584QRrRck1mnQoAF99NFHHuu+DK+9d++ek06wlyGt8Fb+5z//of/7v/8TdbD+Ep5CGMAnTpxQ9sVqfHbaVzZgqCDXhqL/xnMqtbq4PhNgAkyACTABJsAEPEGAjUtPUGQdPkMAWWAvXbrksj8wLpEkBklnIAEBATRu3DhC9tj9+/eLkFR4r+7cuSPKsf4SdSB4HYVVuahkITdu3KCoqCjKly+fU+ZaV7sgfHTKlCnCi4oMqnrjEvVV5a50+uI2eJnBFxMCUpBttlatWsKwvHLlise6jWMKwxLea/CTUrhwYcfxwDpMuf4S5WgfExQlSpSwZVwaO2scn6p94/6q7wjblf1U1eVyJsAEmAATYAJMgAmkBwE2LtODMrfhUQLwAupfIWFHedmyZSkiIoKWLVvmVB2GJhLrwLhEuCzes4hwWrwns3fv3k6Jb1TlUjG8nAi/NQqyj0I/vJrHjh0T/alUqZJoF2GOSPgCQVIWCIwHGKVSVOWOiop/kC22YcOGaV53qVBvWQzjHd5gGPTwUGINqpQBAwaI18PAY4t1mKVKlRJFCP/Ue3fRf6ynxftKUyPwCMNYB1MYmAifzpUrlyPs9ffffyfonjt3rkg8BO8pwlmNIc5W7VuNT9W+HIuZfrwS5ddffxXrdZHZFvww8WD0xqqYYFxvvfWWWLupD/1W7cflTIAJMAEmwASYABNQEWDjUkWIy32GQPPmzYXBh3dYQpYsWUJnzpyhESNGKPsIr6X+XZdyh507d4qssBBkaYXBgiQpSMqDkE2sk5RiVY41lXiVhuxbjx49hCGzZs0ahwEF4xKGJV5JgXVyCMlFaCPW+EFgMGMfGDRoH6GYyCwrRVXuqKj4B3pSa5wrVIpi9HvSpEmOqggBhrcX3MC+aNGi4tUi2IZsuTAikURHikxsZAydxfpT/WtKzPqvah/ZezExASMWxivOHX3Cnn/+85/i/Pr444/FcUQ4LP43esLN2leNT9W+5GCmH+dL3759RQIiGJgI25WZbe0cH1mnZMmS4hU7bFimhhrXZQJMgAkwASbABOwQ8NNm2l2/MNDO3lyHCTABJsAEMhQBvIoFnluz931mqMFwZ5kAE2ACTIAJMAGfIsCvIvGpw8GdYQJMgAl4lwDCjTdt2uTdRlg7E2ACTIAJMAEm8EwSYM/lM3nYedBMgAkwASbABJgAE2ACTIAJMAHPEmDPpWd5sjYmwASYABNgAkyACTABJsAEmMAzSYCNy2fysPOgmQATYAJMgAkwASbABJgAE2ACniXAxqVnebI2JsAEmAATYAJMgAkwASbABJjAM0mAjctn8rDzoJkAE2ACTIAJMAEmwASYABNgAp4lwMalZ3myNibABJgAE2ACTIAJMAEmwASYwDNJwKPG5VdffUVNmjTJsCB9sf+LFi2iKlWq2GKK/terV09Zt3nz5jRz5kzKnj27su6zWuHex20ouk35Z3L4MY1K093P21NSRHCqxv/wT5Up8i9NU7VPela+O7EdxdYsbtqkqlzumFY+pg1nkoLIUS3pzuzXHJ/EPOFeGVnNmjWpb9++HtGdmuurqsGePXsS3iHq68LXf18/Qr7dv+rVq9PIkSN9u5MZpHeq64+qPIMMk7v5DBIIzGhjbteuHeHmmDt3brp69SotWbKEdu/endGG8VT7e+fOHcHu3r17T7UfqsbvD2pAAVcjKWzZIVH1/sD6lFD9sXEQm0D+1+9T8IZjFLLzrEpVqssDrt0n/8jYVO9nZ4fbM7tSjuEryP9ejJ3qpnWMfGRFd/X7340WbP3ve2f8pgMyFJiNz+7+3qqn4uMuf2/129t6s41dJ5pILBBBkePbeqW5oUOHUtWqVSk4OFj83blzJ82fP98rbWVWpRnl+m/GH/f8t956i+7evWtW5alu99X+4ZkJEyD43fj5+dHx48dp1qxZdO3atafKy1cax3Nlnz59xLUFkpCQQGfOnKERI0aI78OGDaO6deuK/2NjY8Uz1KpVq2jLli1im5TBgweLel27dnXazl+YwLNEIEMZl2+++SYVKVKEPvnkE7p06RKVL1+e3n77bYqPj6f9+/c/S8fNrbGCla/zgtcsvmJhCl36i9NYs+w5SyErDhMFB1JChUL0sE8dCrgTTVmOXnWLiXHnrFO2GTd55HtirjDyCwxwW5cZH0/oDzp0ifB5mmI2Prf7lJxsrUJVru1txccT/K076PulyUkKxmkcwnvvvUehoaG0cOFCKlmyJP3444+UNWvWNGp7dnfLCNd/s6OTJ08eCgz03ccWX+5f9+7dKSkpiSZMmCAMp27dugmDafjw4Wa4n6ntGzduJHzatm1LjRs3JlxvjLJ9+3Zx/QkJCRERZXj+vHXrFh0+rD2TPBZ4dh88eED169enHTt2GFXwdybwTBBwXKVxs4bRZpxt+eCDD8SPBzNcxYoVox49etBzzz1HYWFhdPbsWfr222/F7I4UbMc+lStXJsyQYlYZs8vu6i9atChVq1aN/va3v9GgQYPo+eefFz/gH374gbp06SL66Mv9t3M2IUy1f//+gl1cXJxgB8NZL23atKFWrVpRjhw56Ny5czR79mw6deqUo0q+fPno448/plKlStH169fF8Tl06JHnDxfCpk2fhC127NjRSbfq+CLs9vvvv6cWLVpQiRIlKDo6mhYvXkybN2+2M7xU1YmtU5ICz96iwOtRTvv5xSQ4tgVeuEtx/1OQ4jUjE8blvQltKSlfhKgf/sVmin3lRYp/Ph/BC5l91Bqx/WHXqhRbqwRRSBYKPH2DwhYcoIDLjzy4CfnhcXlVzOpCgjcep7CFB8T/UqKbl6G4ZmW0kNEQCrh4l0IX7Kcs5247yuMqFqKYVytQYtEcRFpfsxy7Slm/3kkJRXJQ1LuNKSl7KEH7vUmdHPvk7PPE8xLdrgLF1nuOkrKFaJ7TGArZepJC1h7Vd0H8b+RjR7+Kz4M+tSmufimX/ZIbzcaXooPahoTiuej+B80o7H/3UvDP50SVtI4P+6r6n1A4O0V3qkwJJXKJ4xtw/o44foF/PDk+SXmyUuRfm4u++d98oJXvp6AjTyYmrMqt+Kj4x1UqTLEvvUDJWr8SC2aj0EUHxfeknGEUMXkrBT4+h6L61aH4KkXJLzqeQhcfpJhXylHosl8p6L9XXCFOsc2KrxUfO/1D2HDIysMU17QMJWq/Ff970dr5f0DjZ69v4vgrfj8pBqTbgOsTrve47hQqVEh4XlIjdq6vvXr1ooYNGwojFvpxfb1w4YKjGXh9OnfuTMWLF6eYmBjxUDlp0iSX3cB9cty4cTRjxgzCQynE6vo9ffp0KlCggKg3duxYQpROuXLl6PLlywSPrbuiuv7bub7jXot7CFjCc7h+/XpxTCDYH/eDV155hQoWLCju/+D366+/OrpuNX5UMuML3rj3474HgV4pxvuYo8Dwj53+qY6/2fjt9u8vf/kLwfh4+PAhLVu2TLDEff6XX34hO8dfxc+sf0AxdepUJyJod+LEiWa4vLLdm+O3c3ztDAoGeLLJJCOOGzyWEDx/wcDEOSuNS3zHMxueiWrXru1kXKquP6pyb58fGJPV+WOHHddhApKAw7iEoXjx4kV6+eWXxQ1DSqVKlcQNEoIf1r59+8SFHT+g1q1bi1mvP//5z476uNDjogVjFEbIO++8Q0ePHhWGqDv6EWaAmeoOHTqIm9obb7wh1g2ePHlS3Ozd1S8H4K3+OwBZ/NOvXz/hmcW6ncjISGFoyhAN7Na+fXthWH755ZfigQdMRo0aRa+//roTfzzMgAvCPGDoY8YSMm3aNPGB8Yr9jGLn+OLmO378eDGhUKtWLcLN4rfffqMbN24Y1aX4Hq899D94sw4FasZc1hmPZvQedqpEWbQH5yy/X3eqDyMneH1KoyqFUnhJHtmClH3EKlEMI+ShZiiF/N9/KeLzzQSjERLVqxYllM5LWaf9JAw3PLhHDn+Jcg5dLsoDNSM015sLhGEX1T/l2lXUh0EQNmcPBVy6R3HVi1GUtsYw5zv/FvvHawZL1DuNKOTH3yl0/j4ifz9hSAjdmiEa8fF6SiqQnaK0NiNGryW/+85hsTCUY5qXpaxTt5H/jShK0ryc0OFKjHzs6FfxCZ+9h/CJK1+QHrhYO2k1PmMfE3OEUtRgjcXaIw7D0p3xQb+q/zDIgn69pBluB8gvPpFim5WlKC2UOscHj84L6IhpXZ7C5v5M4drERay2tvTBoIYUNHCJo/tW5VZ87PBP+J9ClHX8eorTJk6itd9B1gkbKLbucxSrneswLqMG1NOMtmwU8ckG8ktIoofdq1OiNilhV1R8VXxU/RP8OlSirJ/9KH4rsXVKaPwaOPGz6qvq92O1L8pwncH1X2+sqPbRl6uurwMHDqSyZcvSp59+Ku4xuN6OHj2aEDEDwYQdQuTWrl0r7m+YhML12pXkypWLPvzwQ2FASMNSdf1G+xA8RMIQXLp0KY0ZM0YY0p4Q1fUfbVhdt7AVFwAAIABJREFU3/HgDOMGni+EUsJL5+/vnLYB3jAwg0HcqFEjev/99x33H9X4rfj+8ccf9Ne//pUKFy4s9OO+g3tkasWqf6rjbzV+O/3DMcUk+UcffSSepfAMA6NUiur4q/hZ9c8Vp2zZsolJ7PQSb48f47A6vt4YJwxRvcCgPHDggPgY11+rrj+qcm+fH6k9f7zBk3VmHgJOdwbEjusT8mBGBhdBGIeQmzdvirABzNzAUzhv3jzKnz+/YzYRdXDjx6wNyhE+gBswvJYQd/TjxgODCcbutm2PQhYRmoD+oV+4ybujX3RQE2/1X+q3+osL03fffSfGiZs3/teHAGEme86cOcITefv2bVq9erXwTsKIl/LTTz/Rrl27hLG3YMECun//vpgE0Au2uRI7xxdeaOmp/vnnn8XNSX+DdKVXbotpV5Eipm+nwMOXKXLYIw9qQrmCKQzL+JK5KElLBqJaSxmjPdwmlMlPWQ4+8SyIthKTNK/iHeH1g+BBGBJXt6TwZGU5fZMCNOMtfN5e8tOM05jGz4tyKTA8/bQ1nUaJfvlFCtM8TvB0BWjrEkM3/S68XzGNS4uqsU2e17yhN0UdeDOznLnlNAaE7/pFRou68PrgOz4O0UJ9tSlTYVgG3H5IWU7dpCwnUhrtZnyU+mVDJnxksV+U67WWqvFhf/CERA1pJCYNQlcfcQwPoczujM+hyKT/YBb80ynh2QaLMC2kOjlvhOYtDnHsGqSFVQfvP08BtzSv5fJDhLHGaJ5oKapy1DPjo+SvnVc4pgGnbpDfHe34asc28MIdSta8l5C4asWElxIe+YArkRS65CD5BaQi55qCr5KPon/oY9D2047fU/Duc+SvcdTzEwMxEdXvx2Q3x2ZEYeD606BBA+FdxLo7rCOzK6rrK0LhMHH6+++/i+vv119/LcIIMeEKwd8TJ07Q3LlzRbQIrtPG9VbyYROGELxRMC6l2Ll+oy5CFuEVkZO8MNQ8KWbXf7RhdX3HRCc8Orj/414Bz658NpD9wwSw7C/u07g/yfuPavwqvnimgDcUgr/4jk9qxKp/quOvGr+qfzhncU8/ffo0XblyRXh6jcY5xmJ2/FX8VP0zcsJEjXyWMpZ547u3x48+Wx1fT48JkydYmrV3716HaiQbgwMGvw1ENuCaI0V1/VGVSz3eOj9Se/54mifry1wEtKe9J7JmzRrhBcNMKW4QNWrUcEqWg5AUeMEqVKjgtNYFRp4UfYgmtkVFRYkQI4g7+rG2BjfFoKAgoROCbfgB4wKNv+7oFwo18Vb/pX48IOXMmVN+FV5ArIGBgYZxwAMrRf8/HqIQNoGQYDmDhXq4IMDAd7UPtmFGVV/uqOjiHzvH1/igg4Xteu+qC7WOTcnhQeKhGR8IwuxgDBglrkFpyrL3D+Nm8T22QSnN21OS/IK0U1fz/IUhLNWFAWb0hCYUyynWOhpD+BAymVjokXfRZYOPNybm1M5hzaP5oHctevBGTUdVhDkm5X207iu5YHYKPOXsgbXSaSwLOnCB4l8sQJH/aE3BWpKi4HVHhZFpFCs+xrpm3418zOrpt9saX2w8Rf25vghPDh+zzkmtJ8fnqv8wIqM7VqL4svkpOVxLyvA4tClJM7qkiRaohcrqBaHN8vhhu6rcDiezOv6PjXa/xGTHJAMmQpID/UWYLgzJgEtPkpTAyDQLz3LVhoqvFR/os+qfbA+TKXoJ0Ax5PT9X/cI2O78fs3312+HNwzUNoZfwvCCsT3oWrfZXXV8xAYqJPKNXFBNp0jsJr5kqFBchu1jHhrBQ/Vo2u9dvOYYjR3STMlYD83CZ1fV9z549VLFiRZo8ebIwqleuXCmMTL0YI1hgiOL+Y2f8dvi6O1yz/tk5/nbGb9Y/eCxxfmHSQAq842beV+Pxt8MvNf2Dhzpv3rzplvU1PcYPrmbH1+y4pHZ7s2bNhAMGz6E4dniekxMseC7Gsy6MSwi8l3Xq1CEcF9X1R1Vu7Kc3zo/UnD/G/vB3JmAk4GRcohA/DMzgweuFtQFffPGFY58hQ4aI9S5IQy1vKsuXPwoplJVg5FlJWvXDiImIiBChtS+88IK4YWHNJf7CyJT9Sat+b/df6ge7gIAAByK5nkd6KBMTE53wye9yhhMPUzLmX1bE7LCZwHNs9wHVzvF1J4wm2/gNjm6G7DyjefWerNXV9z+uRjHKqq1DcyVBB85T6MrftPi8eGevn7Gy0fNolmME6ysfr7E0qnD6/jj8K+u07Zpn0dnzG/D4gTs5QNNl1o6l8ieF4d/vE2G1Ma3/hyI/aUuh//szhex6MuGAmlZ8bDajWekpPbOqfe2ML0EzjgO1EGf/Ww/pobb+MUzzxOnFY+Nz0f8HfbVMftp5EfHpJodRjldjWAqOvdUxU5VbKjcUJjz5bfslGBrVlTntlcrkOFZ8lXys+ic7lcXZkyrOCTti4/djR42sg4RuCE1Fqn6sSzR60Iy6VNdXY335HddPuQYb123VtRSRNXjww0Mu8hNgjToktddv1X3UrL/ubldd37EUBWHBWD6CMFt437Zu3epo1phsR97r7IzfDl93x2fWPzO9+uOPOqrxW+lxVWbG23j87fCz27/XXntNeP8RnpteIn9DxvY8Pf7UHl9jf1Tf8WYCrCvG8TF6zeF5hNGpfyZGZB1Edf1RlRv75a3zI63nt7F//J0JpIi5wowkslwhGQFupPqZ2hdffJFWrFjhMOQwG5VaSat+GFRoDw8Tr776qlh7iMQ1mB3Whx6lVb/dcbirHzPDMCjlR7aLUBnwRtIKKZgxlzdnPKzAY4uEPTAm9R99340hqmBmN9W4J46vXY5m9bCOC2GpCB90JX4PNaMS3k99OKmrioZtIvwwLoHiKhR0KoFHUyb0sVKDMEq/B7GalyacYEzqP3I/vL4DHigrkWGjyVlSzOs4dsP4wmftohDNMIvRPHF6UfJ5bIxY6bfqn1WZnfHhNR0R2ppW9D+2RVktoVLeFCrdGV8KZboNCS/ko5D/PPH2IoGNURIKO69hTNTq6CcLVOVGfcbvdo6vcR98D9TW8CZrXkycj1KwVjhVYbGPdzTja4ePq77ptyUWcmaK7wjjVomd349KByY7kfAGD9p4iIMXAWL0trnSo7q+IkoED7rGdwrDo4UJTQiuo1ieYSV44MSaxClTpoj1ibimQuxev610+0oZeGB8yK0g1/PLvhmfCXA/Azc747fDV4Yd242WMTIz65+d4y91WY3frH/nz58nTBSXKFHCqUv6KCZjX/Xf7fCz0z+8agPhqTAsEZqbXpJe4zc7vp4aJxwamNgyGpbQD+MSvwmsB8YH641hNOK6pbr+qMpV/ffU+YF2rM5vVT+4nAlIAimecOHKR4IexPdj7Z5e4B2sV6+euFEg7Kd3796pJplW/ZgxwoJnhL5iYbgUbNNLWvXbHYg39cPrivdQIdwCnlrwRXy9FGTlQzlmrY4dOyY8uZgpx37yAQs3DsycI7wXCX1QBzPNepHp+xEWow8j8cTxtcvRrB6SmwTvcO3RNNsnxXYtvDAZ688MAr3R3aprmTh3k/9dLaFPy7KUrNUN2fJobaaxvvF7sJa1NfpPVYTXL/DEdUrOqr0uBWtGf70o1qFBf9Swl+hhh4oUpK3rg0c0oWRuCtn2JPRXhARr+8c2e4FC1h2jpKAAR/bbuMqFRZP+mqEBf1BCKS1hhiEMUcXHSr9jPCZ8ZHly1iDxb2JuzZDWjGopdsbnpxmXEISXhqw5Qg/61aUc768U2zwxPqHIpP9Y/xdfU5uc0P4maYZZdNdqorpe4rVkOnGaZzXg3KOEPjiGIT+ecFRRlaOiGR+U2eLv3CXHt+DdZynm/1XV1vNq0R+aBza6S1VhcNoVFV87fFRtxWmZlrNgzbE2WRPbsLT4DYRoa4+dJMvjyAz593Gh6vejahuGHxLqSC8OPJafffaZ7fcdqq6vyBWAh28kTMOaPrySAA+H69Y9Cu/Gei4kk0HSENyP4I0pXbq0yEMgRa4JhLECDwaiQQYMGCCK7Vy/UQ9tyqUkKiZpKTe7/qt0YZkMBIYCpEyZMinCEOERQ04AhH/K+w/u2RDV+O3wxYM97o0Ii0ZYLoxMYySPaMxErPqnOv52xm/VPyR2gjcb4bCYKMZ5ZPS0odtmx1/FT9U/nIdwHMDjjKz+cqIEy42sop9MUKZ6s7fHjw5ZHV+7Hcb1xczTaqYDicDwrKV3dKDuwYMHReJFLH1SXX9U5bJtb50fqvPHbOy8nQm4IpDyCVyrhUXeWOwtXx4rd8RNF0kUsPAexgzCkox1XDVi3JYW/Uj1jLU2mA1CqBHaxzoErAExJlVIi35jH62+e0s/ZrzxAl48wMCoRMIkrLOUgpsLDEtkx8UMPkIu4FmW2QhRDzPKCFnCQw9mgpH5UMrnn38ukivJCycSVqAd6EXyJU8dXyt2VmWJWhKfBM3TlXXmTqtqLsuwpivy41fFKyggMZoRGN2xsnjwDdOyh0IQMvjw/1XWMog2IArT1n9qiVUiPtvkUp+rjaGaV8xP835Ga68aScqXVbwuAh7WoMev2cDrUMKnbBWvIonVsr76IfHMyRtOxqXoh+bVi26r1WnygvZuBi2MU+sDPFcwRrFmUKxh07KdBmoJgZCZVopdPq70+z2MU/K59/dXKBFrUxEKqknkZ+2FcQMjMUx7t6jd8cn+hq76jeK1V3AgHBN9cmd8do4vWD3sWVMkWMLrZ8K0jL3I3quXMK0fMa3KC6MfHjdkDrZbruIj9bji79SIyRdko0XG2Psjmj96FYl23iZo60dti+L8scNH1RaOaYyW2AoTH5h4CNcSdEmJ/LAFJcJz/9ioFL9HzUgOWX9MhLKrfj+qtr/55hvCBwnMcB3D9Ss1orq+IiQMk3dYMxkeHi4S++gzPuIehDXyuP4iegbXTlx/9calvj9LliwRXgtc03Fdtrp+416GV0XI/AUwQuAVhGGGJG6eENX1X9UGrgvoE5aiYOxIboR7hl4QMgijHIYnDBYY/1Ksxo86dvlizSdemdCyZUuxTAeZz/Wvi7Eah1X/VMffzvjRtln/cA7AozVOy76PezeeW+Tkrp3jr+Kn6p9M/IdnKL2gH8bXlFgxTGuZt8ePflkdX1W/MRmCCX35G8TvF2uu7Tzjwmupf9elbAsJspD1H6K6/liVp8f5oTp/VPy4nAnoCfhpYSspVhzhFRP4kckZV08jc0d/p06dRIpz/Nju3bsnMnUhe59e3NFvZ6ze1m+nD1zHuwTua6/RQEZZ43suvdsqa2cCzgTufN2VwrVX09h9z6U3+SEBV6iWYTd4zzlvNqPUjYyMmFTE5CaL7xDA+kvkakDGcl8UX+wfnl2Q1wKv2ckoggkTeI7/8Y9/uN1lT47fF4+v24BYARPIoARcei6R4UrvDfP02NzRj7ADY+iBsX/u6DfqcvXd2/pdtcnb0pdAspYZ1u/xi+3Tt2VujQk8ISATyKgSE4XO0xI/bU2ZednjLG3m7/F4uzqFmFDUp//3ZlusO3UEUhtOmDrt7tf2pf7hXajIeKxfmuL+CDOOBm+M35eOb8Y5EtxTJuB5AimMy2rVqhE8c++8847nW9M0sn6vYGWlHiAQ/2J+8tPWOCLxSUKJ3BT6OJzWA6pZBRNwi0DEyNWW+4uwahYmwAR8lkDfvn3FGjws70HY9RtvvCFCi1OzZtRnB2ejY8/6+G0g4ipMINMQcBiXeMchwgqwFgDrWozvr3J3xKzfXYK8vzcJJOYKowe9alFSjjAt2c9DsV7PLGOtN/vBupmAKwJsPLqiwtuYQMYhgEQ+MCiR8R3PWUjKN2PGjIwzADd7+qyP3018vDsTyFAEXK65zFAj4M4yASbABJgAE2ACTIAJMAEmwASYwFMnkOI9l0+9R9wBJsAEmAATYAJMgAkwASbABJgAE8hwBNi4zHCHjDvMBJgAE2ACTIAJMAEmwASYABPwPQJsXPreMeEeMQEmwASYABNgAkyACTABJsAEMhwBNi4z3CHLWB1etGgRValSJWN1OhW9VY1PVZ6KpriqggBe2L58+XLHB4kz9KIqV6jnYibABJgAE2ACTIAJMAEFgRSvIlHU52IvE/j73/9Op06dok2bNolMcv369aNbt245Wm3ZsiW1atVKZJyLjIwUqcw///xzL/fq/7d3HlBSVdm7350DWZAcRf8gCAKSM0ijQw5vkUQeYIABBsRBURT+wCAgaxTJiqQHkkXCAJIkSM4CkgSanHPsphOvvu3coqq6qm51V3dT3X57rV5T95xzT/jdK1Nf7X32SR/dR0RESNeuXSUkJEQnHBcXJ5GRkfLJJ5/odb9+/aR69er6+fHjx5oCftmyZbJhwwYtM6x3797arl27dnblvBAxez+fJaOPPvpIh8+fP7+MHz8+0VTM6hPdwAISIAESIAESIAESIIEkEaC4TBKu1G8Mwfjw4UO5evWqDmYrLHH+KMTTjBkz5Pjx45IlSxZ58cUXU39S6WSEtWvXCv6aNWsmdevWlQ8//DDRzDdv3ixz586V0NBQ9aj26tVLGR88eNDatmLFivoMatasKVu2bEnUx1+5wN376StcEhIS3E7FrN7tzawkARIgARIgARIgARJwSYDi0iWaZ1Nx//59wR8sKirKbhIvv/yyeipXrlxpLf/tt9/s2jRp0kQ9mzhX9MyZMzJt2jT1hBpWoUIFadOmjRQpUkSio6NVVI0ePdpa37lzZ6ldu7aEhYXJsWPH9P7z589rPc5B/eGHH6Rhw4ZStGhRnd/8+fNl/fr1Wp8tWzbp1q2blCtXTmJiYmT27NkSGxtr7btw4cLSsWNHeeGFFyQ8PFxOnz4tU6dOVe8ibOLEiZI3b179PHToUGnevLmUKlVKLl26JGPHjpURI0Yk8ib2799fxeGUKVOs40A8PHnyxHpt+wHnixmHVoMPBCaYGOIS15gz1lS1alU7cWm2PrN6d+vr27evTtPs+bVt21bq16+vrHFu2OrVq2Xx4sXWJZrVe9u/u/fTmETr1q11jj179nT6DFwVmr1fc+bMkW+++UZ27dpl7WLhwoUyfPhw2b9/v6tuWU4CJEACJEACJEACJJBGBCgu0wi0p8OcO3fOKn5sv0Tj/osXL0q9evUkT548Vs+mbb8tWrRQYTlhwgQVhAjtHDRokHTq1EmbFS9eXENEIU4hxvz8/KRgwYLWLnr06CElS5aUL7/8UoUL+hs8eLC888471jYQn/gyD0EIT+o///lPOXTokFy/fl1DeNEfQifh4YLQNEJU0QGE3e7du1WwQsA1btxYEKr497//XfvH+DCIMHgUIRyGDBmiYY4QmBcuXJA33nhDBZVhr776qgwbNsx6ndQPjl4sCMq9e/fqH9Zha2brM6t3tz6MY/b8IHwhDkeOHKnPP1euXOLv/3TbtFm9t/1jju7eT4NVfHy8hiQnx9y9X8npj/eQAAmQAAmQAAmQAAmkHQEm9Ek71h6NtGbNGjl8+LC2HTNmjN09CPncuHGjfP311/L++++ryLQ1ePqmT58uBw4ckFu3bsny5cvl2rVr6mmEQZjB84mwWngzT5w4YbffEKGkEH4IuYV4+e677wTiC/cZtnXrVquncefOneqhhBcUBmE2a9Ys7Rf343Ng4NPfL27cuKFhq/Acwts4c+ZMXQO8rLYGYQKvoiEiISxh2BsJcW0YPI4QrEeOHLG739OLOnXqSOnSpe08YZUrV1YBDK8tPLtYk2Fm6zOrN/pxtT6z5wehDo8s+IEl5mi7drN6b/vH/N29n8b6lixZIn369PH0Mdi1c/d+JatD3kQCJEACJEACJEACJJBmBOi5TDPUKTMQxOOqVat0XyFCBCHAIBZz5sypoZIIRTQ8ZBgRgsMQoQUKFFBB4syKFSumQtAxzBYeSlvvpiH0jD6QGAdjQGDCi4ZQV8NsP6MMIrJDhw5SpkwZyZw5s7Ud9j86miGwbctXrFihXljDk1mpUiXZvn27461urxs0aKACNTg4WL2rCMs1BBrmhXBgiEsYvJfVqlWTHTt2mK7Pk/XbTsxxfZ48P8yjbNmy+qMDhPbSpUtVZBrmrj4l+ncLNoUqXb1fKdQ9uyEBEiABEiABEiABEkhFAhSXqQg3tbq+fPmyehUR3or9kvv27ROUwUaNGmUNqzXGh/cSFhAQ4HIvoqu5InQWf4bBU+nMDA8lQiJtzfYa3izs0xw4cKBVFOHoCGcGr6Ezg/CDhxX775B456uvvnLWzGUZxCj2iaJ/22RJuAGeR4hO2znBMwozW59ZveOEHNdnhLe6e37oY/LkyfrcW7VqpRlRsU8R3mzDXNWnVP+O60jpa1fvl6tx8E7TSIAESIAESIAESIAEfIMAxaVvPIdkzQL7KiHW4LFEQpoHDx7oESW2mU9tO0aoKvZdOjN4GfHFHvv2bJOjwKMJ8Wpmp06dUuGKpD23b9/W5vB42n75R0Ii7AE1vG2FChUy6zZRPTx22AMKLx3Gc+WJTXTjfwuQBRZ7V50ZxCWSEBnrxdyxnxMids+ePW7X58n6nY1plGHPqtnzM9pi7ykSHOGZwRNsKy7Rxll9Svbvbh2pWQcvOTzLhiExFI0ESIAESIAESIAESMB3CFBc+s6zMJ0JErJAGEEkwhP1+uuvq0fNEFjIGvr222+rV+7o0aN6VAkS3sDbh3DDX375RRP0tG/fXsNJ4ZHEUSbYBwlDhlQcdYKEQBCICL1F/wjD9cQwDsZHuCmEQJcuXewSu0BU1qhRQ5P/5MuXT+udGca0FRG2bRCqigRA2D+4bds2Z7crG1tvq9NGDoVIZAReixYtsquB0ERiJIhLs/WZ1Rsdu1qf2fNDGDAMSXVgJUqUUJaGmdV72791IJMPyBaLjMPJ3XfpqnuEaGP/MPYEBwUFaYi0s8RB8D7D0MaZmdXXqlVL9zTjhxDH0G5n/bGMBEiABEiABEiABEjgTwIUl+noTcDeRog3ZAlFuClEBjK3GgID4gHCEkeN4EgPhHRCeOJsRxg8mmiP+qZNm+oXc9Qb4hIhlei/X79+kilTJv0S75gx1R0uZDHt3bu3Clj0jYQ98KoaBtGKL+1IEASxi4y1yF4Lw57AcePG6fmTMBxZAq8c9llin6mtbdq0SVq2bGm916iLiIhQwWr0sWDBAk0+ZIxh14nDBbyWzjy+SDCDrLcws/W5q/dkfWbPD4IZTLCHFnyRnAlMDTOr97Z/d/xs6xxDqT29z6wdkk1hPzFCwfEDxrx58+z27uKoGnjaDfGI9wme/WXLlmkotFm9MT76QDZjCkuzJ8J6EiABEiABEiABErAn4GcJY3R+ICBJkYCPEsARKBCR3bt399EZclrpmQB+UEFoMZI90UiABEiABEiABEiABDwnwKNIPGfFlj5CABlcDW+sj0yJ08hABLAved26dRloRVwKCZAACZAACZAACaQNAYrLtOHMUVKIwGuvvSbwXBpnYKZQt+yGBKwEsJfz7NmzJEICJEACJEACJEACJJBEAtxzmURgbP5sCOCMTBy7gX2k33//vd35js9mRhyVBEiABEiABEiABEiABEjAlgD3XPJ9IAESIAESIAESIAESIAESIAES8JoAw2K9RsgOSIAESIAESIAESIAESIAESIAEKC75DpAACZAACZAACZAACZAACZAACXhNgOLSa4TsgARIgARIgARIgARIgARIgARIgOKS74BbAjiovnz58i7bmNW7vJEVJEACJEACJEACJEACJEACGYoAs8X62OPEAe4nT57Uc/YmTZok7733nty8eVNnGRERIV27dpWQkBC9jouLk8jISPnkk0/0ul+/flK9enX9/PjxY7ly5YosW7ZMNmzYoGWG9e7dW9u1a9fOrjwjXLjjlxLrM+u/cOHC0qZNG8FZnB988IGcP39ehy1QoICMGzfO6RSWL18u06ZNk5w5c8rbb78tFSpUED8/Pzl27JhMmTJFrl696vQ+Z4XejO+sP8ey9u3by+uvvy6ZMmXS+SGDr6fzK1asmOD+l19+Wdd36tQpmTp1qpw7d846jBlfx/nwmgRIgARIgARIgARIwHcIUFz6zrPQmdy7d08ePnxo/cJuCEvUrV27Vv+aNWsmdevWlQ8//DDR7Ddv3ixz586V0NBQ9Tj26tVLxenBgwetbStWrKhj1KxZU7Zs2ZKoj/Rc4I5fSqzLXf/169dX8b9mzZpEQ128eFH69OljVw6BBTEFkQXr0KGDJCQkyMiRI/WHAwgx/GDw0UcfJerPWYG34zvr07YM790bb7whkydPluvXr0vnzp2lf//+Tt9DZ31VrlxZ/vjjD1m6dKnExMSoCMf68GOHYe74OuuTZSRAAiRAAiRAAiRAAr5DgOLSd56FzuT+/fv6B4uKinI6OwiQJ0+eOK3DOZDwWMLOnDmjAhOeMENc4jo2NlbWr18vVatWtROX2bJlk27dukm5cuX0y//s2bO1rWFm9RMnTpS8efNq86FDh0rz5s2lVKlScunSJenbt6+WN2nSRBo1aiQ4txLzg8cOnlrD2rZtKxBJGOvOnTuyevVqWbx4scf1nvBr3bq1jtGzZ09rv55+cNc/mO7bt0/n3aJFi0RdGl5MowIi39/fXzZt2qRFjp5N8B81alSiflwVeDu+q36N8jfffFNmzJgh27Zt06J8+fJJeHi4PuMjR46Y3S7z58+3a/Pzzz9bve5GhTu+pgOwAQmQAAmQAAmQAAmQwDMlQHH5TPEnHhwhgoY43LVrV+IGSSyBELU1CMq9e/fqH7xmtoYQ3IIFC2o5PEgQmkYILtqZ1ffo0UO7g8iEx3ThwoUyZMgQyZ8/v5ZDcEFYTpgwQcNFEZo7aNAg6dSpk9ZD+EJ8wnOHUMtcuXKp+DLMrB7tPOEXHx+vnsHkmFn/EJaeWuPGjdUT7cqyZs2qIj8plpLjO46LHw4OHz6sxd27d5dDhw5JWFiYvPjiix6JS9v8Z9ynAAAgAElEQVT+8uTJI02bNpWtW7faDWPG13FOvCYBEiABEiABEiABEvAdAkzo4zvPQmeCkErjC/yYMWO8ml2dOnWkdOnSYitSEZq4e/du3S8XHR2t3kvD8HnWrFly4sQJFXf4HBj49PcHs3qjHwg3eCXhdYTBcwmDJ3P69Oly4MABuXXrlmCv4bVr16Rhw4ZaDyELjyzE9Y0bN3SOth4xs3r04Qm/JUuWJApR1Ql4YJ7070E3UqhQIX02BiNn97Rs2dLq1XRW702ZJ+Pb9g8xCEM4bMmSJfWHATzL27dvq5fZU0Mo7I8//qj7iXGv4zueUnw9nQ/bkQAJkAAJkAAJkAAJpBwBei5TjqVP9NSgQQOpV6+eBAcHq/cRCVMMgVamTBn1NEFcwuC9ROKZHTt2SJEiRdRLePr0aes6bD+b1Tsu3hDIRjmS1UCEIBTV8HCiDoLREC6YR9myZVVwIAkR9uZBZBpmVu84B1++hocWot92T63tfLGf8fnnn5eBAwemyjLMxnc3KDzac+bM0fBf/BjgKkTbWR8Q0zt37tTkRfBcjhgxQj799FNnTVlGAiRAAiRAAiRAAiSQzghQXKazB2Y23e3bt+veNnglHYULPI8QnT/99JO1G+zRhBkeSoSM2ppxbVbvOC+Mb2tGeCv2EBphv0Y9vJeGIVnMypUrpVWrVjJ+/HjNRrpx40aP6x3n4avXtWvXlmHDhjmd3ltvvSW1atWSzz//3Gl9ShS6G99Z/0ZGWAhLZCJetWqVNsPeWcMz7ew+x7K7d+8K/s6ePav7UxcsWCCvvPKK/P77745NeU0CJEACJEACJEACJJDOCFBcprMHZjZdZIFFZlJnBnGJJDH4Ug8LCAhQgYPEMnv27FEPFI6yQLgiDPsv0QaGjKbu6rWRG0M45YMHDyR37tx2mWud3XLhwgUZO3aselGRQdVWXKK9Wb2zPn2pDAmFILAdvbuYI7LNVqlSRYXl5cuXU2Xa7sZ3NyD2ycIz/vHHH1ubIUQWx90k15AxNygoKLm38z4SIAESIAESIAESIAEfIsA9lz70MDydCryA+FKeFIMIyJIliyxatEhFG/6QpRVC0zgbE+GyOGcR5xEiCU+XLl3sEt+Y1RvzgZcT4beOhqyv6B9HoCAssmjRoroP00j4U6lSJcEfwmTxV6JECd3jZ5hZveN4rq4hrhz3+rlqmxrlyLqKTKmOhiQ5yGKLvYzIwlq8eHH9gyC3Ncwf4ju55mp8oz9X/SOkFR5pZInF+zRgwAD1QjpminV1P9aHZ4j3CyHaCPnF/fv370/SUuDVxX5g9EMjARIgARIgARIgARLwHQL0XPrOszCdSUREhAo+nGEJQ0hhZGRkouMcnHUEr6XtWZdGG2TrRKgjDFlacebg4MGDVVTOnDnTLlmLu3qIRRylYcytY8eO6nVcsWKFiiUYxCXECZK6IPMoQnKRtAdnc8IgmHEPhCXGx5mIyCxrmFm9taHJB/STVHFu0qVWY96jR4+2NkUIMLy94Gawr1Gjhu4zdXYWppHYyNYziM6w/9T2mBJX8/d2fGPirvpHuDLCYJE1GGvAsxs+fHgiNK7ux7E277zzjuTIkUPfg6NHjybKWJyoMycFEJXoy3ZPsJNmLCIBEiABEiABEiABEkhjAn6WMEjnByam8UQ4HAmQAAl4QgBH5SA0GsmqaCRAAiRAAiRAAiRAAr5DgGGxvvMsOBMSIAEPCCBUeN26dR60ZBMSIAESIAESIAESIIG0JEDPZVrS5lgkQAIkQAIkQAIkQAIkQAIkkEEJ0HOZQR8sl0UCJEACJEACJEACJEACJEACaUmA4jItaXMsEiABEiABEiABEiABEiABEsigBCguM+iD5bJIgARIgARIgARIgARIgARIIC0JUFymJW2ORQIkQAIkQAIkQAIkQAIkQAIZlADFZQZ9sFwWCZAACZAACZAACZAACZAACaQlAYrLtKTNsdIdgXnz5kn58uVdztus3uWNrCABEiABEiABEiABEiCBDEYgMIOth8tJ5wT+93//V06ePKnnGE6aNEnee+89uXnzpq4qIiJCunbtKiEhIXodFxcnkZGR8sknn+h1v379pHr16vr58ePHcuXKFVm2bJls2LBBywzr3bu3tmvXrp1deUa4cMcvJdZn1n/hwoWlTZs2Uq1aNfnggw/k/PnzOmyBAgVk3LhxTqewfPlymTZtmuTMmVPefvttqVChgvj5+cmxY8dkypQpcvXqVaf3OSv0Znxn/TmWtW/fXl5//XXJlCmTzu/bb7/1eH7FihUT3P/yyy/r+k6dOiVTp06Vc+fOWYcx4+s4H16TAAmQAAmQAAmQgC8RoLj0pafBuci9e/fk4cOH1i/shrAEmrVr1+pfs2bNpG7duvLhhx8mIrZ582aZO3euhIaGqsexV69eKk4PHjxobVuxYkUdo2bNmrJly5ZEfaTnAnf8UmJd7vqvX7++iv81a9YkGurixYvSp08fu3IILIgpiCxYhw4dJCEhQUaOHKk/HECI4QeDjz76KFF/zgq8Hd9Zn7ZleO/eeOMNmTx5sly/fl06d+4s/fv3d/oeOuurcuXK8scff8jSpUslJiZGRTjWhx87DHPH11mfLCMBEiABEiABEiABXyJAcelLT4Nzkfv37+sfLCoqyikRCJAnT544rXv06JF6LGFnzpxRgQlPmCEucR0bGyvr16+XqlWr2onLbNmySbdu3aRcuXL65X/27Nna1jCz+okTJ0revHm1+dChQ6V58+ZSqlQpuXTpkvTt21fLmzRpIo0aNZLs2bPr/OCxg6fWsLZt2wpEEsa6c+eOrF69WhYvXuxxvSf8WrdurWP07NnT2q+nH9z1D6b79u3Tebdo0SJRl4YX06iAyPf395dNmzZpkaNnE/xHjRqVqB9XBd6O76pfo/zNN9+UGTNmyLZt27QoX758Eh4ers/4yJEjZrfL/Pnz7dr8/PPPVq+7UeGOr+kAbEACJEACJEACJEACz5gAxeUzfgAc3p4AQgQNcbhr1y6v8UCI2hoE5d69e/UPXjNbQwhuwYIFtRweJAhNIwQX7czqe/Tood1BZMJjunDhQhkyZIjkz59fyyG4ICwnTJig4aIIzR00aJB06tRJ6yF8IT7huUMoaK5cuVR8GWZWj3ae8IuPj1fPYHLMrH8IS0+tcePG6ol2ZVmzZlWRnxRLyfEdx8UPB4cPH9bi7t27y6FDhyQsLExefPFFj8SlbX958uSRpk2bytatW+2GMePrOCdekwAJkAAJkAAJkIAvEWBCH196GpyLhlQaX+DHjBnjFZE6depI6dKlxVakIjRx9+7dul8uOjpavZeG4fOsWbPkxIkTKu7wOTDw6e8vZvVGPxBu8ErC6wiD5xIGT+b06dPlwIEDcuvWLcFew2vXrknDhg21HkIWHlmI6xs3bugcbT1iZvXowxN+S5YsSRSiqhPwwDzp34NupFChQvpsDEbO7mnZsqXVq+ms3psyT8a37R9iEIZw2JIlS+oPA3iWt2/fVi+zp4ZQ2B9//FH3E+Nex3c8pfh6Oh+2IwESIAESIAESIIGUJEDPZUrSZF/PnECDBg2kXr16EhwcrN5HJEwxBFqZMmXU0wRxCYP3EolnduzYIUWKFFEv4enTp61rsP1sVu+4cEMgG+VIVgMRglBUw8OJOghGQ7hgHmXLllXBgSRE2JsHkWmYWb3jHHz5Gh5aiH7bPbW288V+xueff14GDhyYKsswG9/doPBoz5kzR8N/8WOAqxBtZ31ATO/cuVOTF8FzOWLECPn000+dNWUZCZAACZAACZAACaQ7AhSX6e6RccLuCGzfvl33tsEr6Shc4HmE6Pzpp5+sXWCPJszwUCJk1NaMa7N6xzlhfFszwluxh9AI+zXq4b00DMliVq5cKa1atZLx48drNtKNGzd6XO84D1+9rl27tgwbNszp9N566y2pVauWfP75507rU6LQ3fjO+jcy1kJYIhPxqlWrtBn2zhqeaWf3OZbdvXtX8Hf27Fndn7pgwQJ55ZVX5Pfff3dsymsSIAESIAESIAESSHcEKC7T3SPjhN0RQBZYZCZ1ZhCXSBKDL/WwgIAAFThILLNnzx71QOEoC4QrwrD/Em1gyGjqrl4buTGEUz548EBy585tl7nW2S0XLlyQsWPHqhcVGVRtxSXam9U769OXypBQCALb0buLOSLbbJUqVVRYXr58OVWm7W58dwNinyw84x9//LG1GUJkcdxNcg0Zc4OCgpJ7O+8jARIgARIgARIgAZ8iwD2XPvU4OBlPCMALiC/lSTGIgCxZssiiRYtUtOEPWVohNI2zMREui3MWcR4hkvB06dLFLvGNWb0xH3g5EX7raMj6iv5xBArCIosWLar7MI2EP5UqVRL8IUwWfyVKlNA9foaZ1TuO5+oa4spxr5+rtqlRjqyryJTqaEiSgyy22MuILKzFixfXPwhyW8P8Ib6Ta67GN/pz1T9CWuGRRpZYvE8DBgxQL6RjplhX92N9eIZ4vxCijZBf3L9///4kLQVeXewHRj80EiABEiABEiABEvAlAvRc+tLT4FzcEoiIiFDBhzMsYQgpjIyMTHScg7NO4LW0PevSaINsnQh1hCFLK84cHDx4sIrKmTNn2iVrcVcPsYijNIy5dezYUb2OK1asULEEg7iEOEFSF2QeRUgukvbgbE4YBDPugbDE+DgTEZllDTOrtzY0+YB+kirOTbrUasx79OjR1qYIAYa3F9wM9jVq1NB9ps7OwjQSG9l6BtEZ9p/aHlPiav7ejm9M3FX/CFdGGCyyBmMNeHbDhw9PhMbV/TjW5p133pEcOXLoe3D06NFEGYsTdeakAKISfdnuCXbSjEUkQAIkQAIkQAIkkOYE/CxhgM4PDEzzqXBAEiABEiABMwI4Kgeh0UhWRSMBEiABEiABEiABXyLAsFhfehqcCwmQAAmYEECo8Lp160xasZoESIAESIAESIAE0p4APZdpz5wjkgAJkAAJkAAJkAAJkAAJkECGI0DPZYZ7pFwQCZAACZAACZAACZAACZAACaQ9AYrLtGfOEUmABEiABEiABEiABEiABEggwxGguMxwj5QLIgESIAESIAESIAESIAESIIG0J0BxmfbMOSIJkAAJkAAJkAAJkAAJkAAJZDgCFJcZ7pFyQSRAAiRAAiRAAiRAAiRAAiSQ9gQoLtOeOUdMRwTmzZsn5cuXdzljs3qXN7KCBEiABEiABEiABEiABDIYgcAMth4uJ50TwAHxJ0+e1HP8Jk2aJO+9957cvHlTVxURESFdu3aVkJAQvY6Li5PIyEj55JNP9Lpfv35SvXp1/fz48WO5cuWKLFu2TDZs2KBlhvXu3VvbtWvXzq48I1y445cS6zPrv3DhwtKmTRupVq2afPDBB3L+/Hm7YXv06CEVKlSQsLAwOXz4sEyePFlu3LihbXLmzClvv/221vv5+cmxY8dkypQpcvXqVY+nbjZ+njx59LmXKVNGsmbNKnv37pUvv/zS2v+7774rNWrU0PmdOnVKpk2bpv/rqZmN767e2/V7cr/Z8/N0nWxHAiRAAiRAAiRAAs4I0HPpjArLnhmBe/fuycOHD62CwhCWmNDatWulffv2MmPGDDlz5oyKGENYGhPevHmzQMB8+umn8uuvv0qvXr2kbNmyduupWLGijlGzZs1nts7UGtgdv5QY013/9evXl+HDh8u1a9ecDvXZZ5/J888/r20GDBggjx49koEDB1rbdujQQRISEmTkyJHyr3/9SwIDA/UHA0/NbHyMDSH54MEDGTVqlL4beJcMe+utt1TYog2E8eXLl3WenprZ+Gb13q7fk/vdPT9P18l2JEACJEACJEACJOCKAD2Xrsiw/JkQuH//vuAPFhUV5XQOECBPnjxxWgfBAo8lDAIUIa0QDAcPHtQyXMfGxsr69eulatWqsmXLFms/2bJlk27dukm5cuUkJiZGZs+erW0NM6ufOHGi5M2bV5sPHTpUmjdvLqVKlZJLly5J3759tbxJkybSqFEjyZ49u84PnjF4ag1r27atQIRgrDt37sjq1atl8eLFHtd7wq9169Y6Rs+ePa39evrBXf9gum/fPp13ixYtEnX52muvqaADD9g333wj3333nT6T/fv3y7hx4+zuAX+IQE/NbHz8GLFjxw6ZOnWq0y7z5csn27ZtU48pDNzByVMzG9+s3tv1e3K/u+fn6TrZjgRIgARIgARIgARcEaC4dEWG5c+EwLlz56zicNeuXV7PAULU1iAoEQqJP4QI2hpCcAsWLKjl8PBAaBohuGhnVg+PKQwiEyJq4cKFMmTIEMmfP7+WQ3BBWE6YMEHDRRGaO2jQIOnUqZPWQ2RBfMJzh1DQXLlyib//0+ACs3r04Qm/+Ph4DSlOjpn1D2HpzCCmYY4/GOCHgBdeeEHFpaMhbBUiPynmanz0UalSJZk1a5Y+XzwTiNw5c+bIiRMndAi8b02bNpUffvhBr/GjxIEDB/Szp+ZufPRhVm87TnLWb3a/2fPzdJ1sRwIkQAIkQAIkQALOCDAs1hkVlj0zAmvWrNG9eLAxY8Z4NY86depI6dKlVTQYVrlyZdm9e7d6p6Kjo9V7aRg+Q3xAbEDc4TNCMz2tN9pBuMErCa8jzPDUwZM5ffp0FSy3bt2S5cuXawhpw4YNtR2ELDyyEFzYh4g5HjlyxOjWtB4NPeG3ZMkS6dOnj7XfpHzwpH9n/UFUXbhwQZo1a2atbtCggZQoUULCw8Od3SItW7aUTZs2Oa1LTiHEGsQj9uFC9OM9Gzx4sOTIkUO7Qxj1L7/8ou8dwnExN7R7Vubt+p3dn9zn96wYcFwSIAESIAESIIH0RYCey/T1vDhbEwIQLPXq1ZPg4GD1PiIE0hBoSOKCRC0QlzB4L5F4BqGSRYoUUS/h6dOnrSPYfjard5yWIZCNciRbQagrQlENDyfqICiRZAaGeWB/KMQNkhAtXbrUmuzGk3rHOfja9VdffaXrnzt3rk4NwhEiHCLf0Tp37qz7M233ZDq2Scq1wfj777+3/njx448/Cn5swDuwcuVKQbIdiF/s24XHtHHjxir8IcjS2rxdv7f3p/V6OR4JkAAJkAAJkEDGIEBxmTGeI1fxXwLbt2+X+fPnq2CxTQaEangmITp/+uknKy/s0YQZHkqEjNqacW1Wb3eT5cJRMBnhrdhDaOwJNe6xTYCD7KkQOq1atZLx48fLt99+Kxs3brR2b1bvOA9fuj579qx8/PHHdlOaOXOmimhbQ2KdWrVqyeeff55i0zfCa+/evWvXJ9gbIbvwVv7888/yn//8R9tg/+W///1vFcB//PFHis3FrCNv1+/t/WbzYz0JkAAJkAAJkAAJuCJAcemKDMvTJQFkgb148aLTuUNcIkkMks7AAgICZNiwYYLssXv27NGQVHivbt++rfXYf4k2MBxH4a5eG7mx69eva5bS3LlzW5MLuWqO8NGxY8eqFxUZQG3FJe4xq3fVr6+Vw8sMvvhBwDAcNVOlShUVlsjWmlKGZwphCe81+BlWoEAB6/PAPkxj/yXqMT5+oChatGiaiUtv1+/t/SnFm/2QAAmQAAmQAAn8NQlQXP41n3u6XjW8gDgHMSlWsmRJyZIliyxatMjuNghNJNaBuES4LM5ZRDgtzsns0qWLXeIbs3qjY3g5EX7raMg+iv7h1Tx69KjO59VXX9VxsS8TCWdgSLoCw54/iFLDzOqtDU0+IFts7dq1k73v0qR7t9UQ7/AGQ9DDw4Y9qIZ1795dj4eBxxb7MIsXL65VyHBq693F/LGfFueVJsXgEYZYB1MITIRPP/fcc9aw1+PHjwv6xvEkSDwE7ynCaR1DnJM7vtlcvV2/p/ebzQPrfv/99zXZlG1ouNl9rCcBEiABEiABEiABiku+A+mGQEREhAq+0NBQnfOCBQskMjIy0VmXzhYEr6VxHIlt/datWzUrLAxZWiFYkOQFSXkQsol9koa5q8eeShwFYcytY8eOKmRWrFhhFVAQlxCWOBIDR5YgJBdJe7DHDwbBjHsgaDA+QjGRWdYws3prQ5MP6Cep4tykS63GvEePHm1tihBgeHvBDewLFSqkR4ugDNlyISKRRMcwI7GRY+gs9p/aHrPhav5m4yN7L36YgAiDeMW7Y5uw5+uvv9b364svvtDniHBYfHb0hCd3fLP5ebt+T+83e5bFihXTI3goLM1IsZ4ESIAESIAESMCRgJ/Fk+D8wEDHlrwmARIgARLI8ARwVAs8u67OA83wALhAEiABEiABEiCBZBPgUSTJRscbSYAESCDjEUA48rp16zLewrgiEiABEiABEiCBVCdAz2WqI+YAJEACJEACJEACJEACJEACJJDxCdBzmfGfMVdIAiRAAiRAAiRAAiRAAiRAAqlOgAl9Uh0xByABEiABEniWBGzPtnU2D5wrSyMBEiABEiABEvCeAD2X3jNkDyRAAiRAAiRAAiRAAiRAAiTwlydAcfmXfwUIgARIgARIgARIgARIgARIgAS8J0Bx6T1D9kACJEACJEACJEACJEACJEACf3kCKSouv/32W6lXr166heqL8583b56UL1/eI6aYf40aNUzbRkREyOTJkyVbtmymbf+qDe5+0USimpT+Sy4/us6LcuffLSQhS0iS1v/o/5STe/+sn6R70rLxnVHN5XHlIi6HNKs3bkwuH5cDZ5CKe4PelNvT3rL+xefKlCorq1y5srz77rup0jc7JQESIAESIAES8I5Aukvo07x5c4E4ypkzp1y5ckUWLFgg27dv947CX+zu27dvK7u7d+/69Mrv96wlAVfuSfiiAzrP+z1qSlzF/4qDx3Hif+2+hKw5KqFbT6f4OgKu3hf/e49TvF90eGtyO8n+0RLxvxvtVf+OfIzOvO3f/06UsvW/nzrr93TRrtbn6f2p1c6Mj7f8U2veqd1v1qGrdIj4vFnk3vBmqTJc3759pUKFChISEqL/u3XrVpk9e3aqjMVOSYAESIAESIAEkk4gXYnLd955RwoWLCgjRoyQixcvSunSpaVXr14SGxsre/bsSfrq/6J3gJWv84LXLLZsAQlbuN/uKQXtOC2hSw6KhARKXJn88qhrNQm4HSVBR66k6NPMPHZTivZndBb/XLj4BQZ43bcrPinRf/CBi4K/Z2mu1uf1nJ48cd+FWb3lbnd8UoK/+wn6fu2TBBPGyVzChx9+KGFhYTJ37lwpVqyY/PLLL5I5c+Zk9sbbSIAESIAESIAEUoOAVVzi/6wh2tq1a2c3Tv/+/eXmzZsyZcoUKVy4sHTs2FFeeOEFCQ8Pl9OnT8vUqVMlMjLSeg/KcU+5cuUEHjL8qoxfl73tv1ChQvLaa6/JZ599Jj179pSXXnpJHj58KIsXL5a2bdvqHH15/p48PISpduvWTdnFxMQoOwhnW2vSpIk0atRIsmfPLmfOnJFp06bJyZMnrU1y584tX3zxhRQvXlyuXbumz+fAgT89fxDi9es/DVt0TL9v9nwRdvvDDz9Iw4YNpWjRohIVFSXz58+X9evXe7K8JLV5XK2YBJ6+KYHXHtjd5xcdZy0LPH9HYl7JJ7EWkQlxeXdkM0nInUXbZ/pqvTz+28sS+1JugRcy26AVWv6oXQV5XKWoSGiQBJ66LuFz9krApT89uHF54HFpKn5+fto2ZO0xCZ+7Vz8bFhVRQmIalLCEjIZKwIU7EjZnjwSduWWtjymbX6KblpH4QtlFLHMNOnpFMn+3VeIKZpcHH9SVhGxhgt7vjm5tvSdH16eel6jmZeRxjRckIWuoxXMaLaEbT0joyiO2U9DPjnw86d+Mz8OuVSWmZnGn8zIKXa0v0QQtBXFFnpP7/RtI+P/bJSE7z2iT5K4P95rNP65ANolqXU7iij6nzzfg3G19foFnnz6fhFyZ5d6nETo3/xsPLfV7JPjw0x8m3NW742PGP+bVAvL49f+RJ5Z5xefLKmHz9ul1Qo5wyTJmowT+9x168F41iS1fSPyiYiVs/j6J/lspCVv0mwT/ftkZ4kRl7vi64+PJ/BA2HLr0oMTULyHxlv9W/O9GWd7/vRZ+ns1Nn7/Jfz+JFmRTgH+f8O89/t3Jnz+/HDt2zF1z1pEACZAACZAACTwDAgEWQTMY4965c0eqVq2qX6xPnTplnQqEHETO9evXJSgoSBISEgT7AJcvXy7PPfecCrsVK/784g7h88orr8iqVatk+vTp2r5Tp076C/Ply5e96v9vf/ubzgvCKz4+XgYMGCAIkV26dKmKnZkzZ3rVPxacmvP35Nn+4x//EIjoL7/8Upm2aNFCv0Rt2bJFw1hxjTlOmjRJnwGsR48e+oXLmP+rr74qc+bMURGI0LGuXbvKokWLtH7Xrl0qBo8fPy516tTRz7bmyfNFKNq4ceNU1OKd6N27t2zcuFEePXpk15ezi1jLl/77lj15cSXzSPCec9rkUetXRSyejoCbD+1uefR/q0jI+uMCAWlYTKXC4hcTb+dVg8jyvx8tQZYv36HrjkvY0kMSYymLrVhYQjaelCzjf5VAi/D0fxgjDzpXkdiSeSXz5K0SuuqoxOfPZhm/nIStPqpDoE3YskMSsuHEn+LDIu7Qr2H4ov84oqRFLO2UMHhPLQ6aR12qStjPf4q/WItgefDR6xK895yKh+BdZy0iIUbXAKEYtPusBB+6LDEW8Zhl8EoJ/Y9lLEtYr79FhMIglKPaVpDM326RsP/8roLZ//YjC5vEbB35eNK/GZ/g/ReUX8DJGxJbvZh+tjV360O72FJ5JSF7mIRsPy3xlv998HEDCbUI9FALT2/Xh/vN5v8kKED8EiztLM8G4z6xCDeILdwHi7Y8u7jS+STspwN/hlpbvN9R7V6TsBWHPap3x8eMf3zerPK4WRnJZHm24u8nj1uV089PggMlvmAOCT54SR50r2ERntkk87hNErIlUqKbvCJxL+SSYIswD3D4kUUn7GBm7487Pp7MT+8FRkcAAAKCSURBVPlZnnEmy/wyWSIK8G4/ere6lZ8xnYRMwZYfYErqjzP+j57+OGb234/jehyvCxQooP9u4d9/f39/2bdvn2MTl9f4/yl35vhvobu2rCMBEiABEiABEnBNwC6hz4YNG+wS8kBIQDQcOfLnl+cbN27I2rVrVejAUwhBlydPHvWiGfbbb7+pJwv1CF+CWIXXEuZN//DEnThxQiCeNm36M2QxNDRU54d5IVzWm/5Te/6uH8HTGoj7WbNm6TqvXr2qnwMDn0YuQ0xDtMMTeevWLRX48E5CXBv266+/yrZt21T4QWTev39fGjdubDc8ypyZJ88XXmjDU71z5071sBYp4jpJiu040c3LSpaJmyXQ8kX6Xr8/PahxpfJJ0PFrdtOJLfacJFiSgZjtpYyuVlTiSuSRoH3n7ZcTn2DxKt5Wrx8s0OK5hMVYBBM8WUGnbkjA9QeSaeYuixh5ItF1X7K7H0LBz7Kn09Gi3nhZwiEaLZ6uAMu+xDCLaIH3K7rui9r0cb2XLN7QG9oG3sygyJt2a0D4rt+9KG0Lrw+u8Wc1i9gRS1imv2VuAbceSZBF5AX9cf1p/X8/ueJj2r/Rkws+RrXfA+d7Lc3Wh/vBE/agTx0V5mHL/xRuWujl+rQPmIv5g1nIryfVsw0W4RYB9OT5LBZvcaj11mBLWHWI5YcN/JgRbhGZWGu0xRNtmFk92rniY8ofPzBYnmnAyeviZ/nRAM828PxtFcGwmNcKq5cSP0YEXL4nYQv2iV9AEnKumfA15WMyP8wxePMp639PIdvPiL+Foy0/XYgLM/vvx8Vt1mJEYeDfn1q1aknt2rXl/fff1733NBIgARIgARIgAd8h8P8B42cSWVoQppYAAAAASUVORK5CYII=;" vertex="1" parent="1">
          <mxGeometry x="450" y="-130" width="919" height="372" as="geometry" />
        </mxCell>
        <mxCell id="3EtvzqERgFBNUbqquFPB-38" value="&lt;div&gt;&lt;font style=&quot;font-size: 17px;&quot;&gt;docker network &lt;br&gt;&lt;/font&gt;&lt;/div&gt;&lt;div&gt;&lt;font style=&quot;font-size: 17px;&quot;&gt;192.168.112.0&lt;br&gt;&lt;/font&gt;&lt;/div&gt;" style="text;html=1;align=center;verticalAlign=middle;resizable=0;points=[];autosize=1;strokeColor=none;fillColor=none;" vertex="1" parent="1">
          <mxGeometry x="195" y="970" width="140" height="50" as="geometry" />
        </mxCell>
        <mxCell id="3EtvzqERgFBNUbqquFPB-39" value="&lt;div&gt;&lt;font style=&quot;font-size: 17px;&quot;&gt;docker network &lt;br&gt;&lt;/font&gt;&lt;/div&gt;&lt;div&gt;&lt;font style=&quot;font-size: 17px;&quot;&gt;192.168.96.0&lt;br&gt;&lt;/font&gt;&lt;/div&gt;" style="text;html=1;align=center;verticalAlign=middle;resizable=0;points=[];autosize=1;strokeColor=none;fillColor=none;" vertex="1" parent="1">
          <mxGeometry x="1100" y="970" width="140" height="50" as="geometry" />
        </mxCell>
      </root>
    </mxGraphModel>
  </diagram>
</mxfile>
